<?xml version="1.0" encoding="UTF-8"?>
<!DOCTYPE svg PUBLIC "-//W3C//DTD SVG 1.1//EN" "http://www.w3.org/Graphics/SVG/1.1/DTD/svg11.dtd">
<svg xmlns="http://www.w3.org/2000/svg" version="1.1" width="500px" height="500px" style="shape-rendering:geometricPrecision; text-rendering:geometricPrecision; image-rendering:optimizeQuality; fill-rule:evenodd; clip-rule:evenodd" xmlns:xlink="http://www.w3.org/1999/xlink">
<g><path style="opacity:0.081" fill="#ececec" d="M 219.5,31.5 C 227.323,30.3439 235.323,30.1772 243.5,31C 244.337,32.0113 244.67,33.1779 244.5,34.5C 241.833,34.5 239.167,34.5 236.5,34.5C 239.167,34.5 241.833,34.5 244.5,34.5C 244.67,33.1779 244.337,32.0113 243.5,31C 235.323,30.1772 227.323,30.3439 219.5,31.5 Z"/></g>
<g><path style="opacity:0.294" fill="#c2c2c2" d="M 219.5,31.5 C 226.284,31.0796 232.95,31.5796 239.5,33C 238.263,33.2321 237.263,33.7321 236.5,34.5C 225.372,35.9458 214.372,37.9458 203.5,40.5C 203.833,39.8333 204.167,39.1667 204.5,38.5C 207.336,37.2245 210.336,36.5578 213.5,36.5C 219.564,35.6326 225.564,34.466 231.5,33C 224.167,32.3333 216.833,32.3333 209.5,33C 208.944,33.3826 208.611,33.8826 208.5,34.5C 204.481,34.6458 200.481,34.9791 196.5,35.5C 193.518,35.9629 190.518,36.2962 187.5,36.5C 193.585,34.4578 199.918,32.9578 206.5,32C 210.821,31.501 215.154,31.3343 219.5,31.5 Z"/></g>
<g><path style="opacity:0.768" fill="#4f4f4f" d="M 213.5,36.5 C 213.611,35.8826 213.944,35.3826 214.5,35C 212.527,34.5045 210.527,34.3379 208.5,34.5C 208.611,33.8826 208.944,33.3826 209.5,33C 216.833,32.3333 224.167,32.3333 231.5,33C 225.564,34.466 219.564,35.6326 213.5,36.5 Z"/></g>
<g><path style="opacity:1" fill="#0b0b0b" d="M 208.5,34.5 C 210.527,34.3379 212.527,34.5045 214.5,35C 213.944,35.3826 213.611,35.8826 213.5,36.5C 210.336,36.5578 207.336,37.2245 204.5,38.5C 201.615,38.643 199.282,39.643 197.5,41.5C 195.784,41.6287 194.117,41.962 192.5,42.5C 191.127,42.3433 189.793,42.51 188.5,43C 185.588,44.232 182.922,45.732 180.5,47.5C 140.489,64.6641 109.656,92.3308 88,130.5C 86.698,133.375 85.8647,136.375 85.5,139.5C 84.2794,140.028 83.1127,140.695 82,141.5C 80.9103,144.939 79.7436,148.273 78.5,151.5C 71.4921,151.666 64.4921,151.5 57.5,151C 59.5477,145.018 61.881,139.184 64.5,133.5C 67.3282,130.325 69.3282,126.658 70.5,122.5C 84.8736,101.464 102.207,83.1303 122.5,67.5C 128.929,62.9583 135.596,58.9583 142.5,55.5C 147.28,54.2505 151.613,52.2505 155.5,49.5C 163.147,44.7278 171.48,41.7278 180.5,40.5C 185.962,38.8292 191.296,37.1625 196.5,35.5C 200.481,34.9791 204.481,34.6458 208.5,34.5 Z"/></g>
<g><path style="opacity:0.843" fill="#535353" d="M 196.5,35.5 C 191.296,37.1625 185.962,38.8292 180.5,40.5C 182.364,38.9862 184.364,37.6528 186.5,36.5C 186.833,36.5 187.167,36.5 187.5,36.5C 190.518,36.2962 193.518,35.9629 196.5,35.5 Z"/></g>
<g><path style="opacity:0.447" fill="#6a6a6a" d="M 204.5,38.5 C 204.167,39.1667 203.833,39.8333 203.5,40.5C 201.435,40.5172 199.435,40.8505 197.5,41.5C 199.282,39.643 201.615,38.643 204.5,38.5 Z"/></g>
<g><path style="opacity:0.098" fill="#d1d1d1" d="M 186.5,36.5 C 184.364,37.6528 182.364,38.9862 180.5,40.5C 171.48,41.7278 163.147,44.7278 155.5,49.5C 151.325,50.3497 147.325,51.683 143.5,53.5C 156.75,45.3853 171.083,39.7186 186.5,36.5 Z"/></g>
<g><path style="opacity:0.094" fill="#cfcfcf" d="M 203.5,40.5 C 198.795,42.735 193.795,44.4017 188.5,45.5C 189.59,44.1429 190.924,43.1429 192.5,42.5C 194.117,41.962 195.784,41.6287 197.5,41.5C 199.435,40.8505 201.435,40.5172 203.5,40.5 Z"/></g>
<g><path style="opacity:0.361" fill="#727272" d="M 192.5,42.5 C 190.924,43.1429 189.59,44.1429 188.5,45.5C 185.833,46.1667 183.167,46.8333 180.5,47.5C 182.922,45.732 185.588,44.232 188.5,43C 189.793,42.51 191.127,42.3433 192.5,42.5 Z"/></g>
<g><path style="opacity:0.207" fill="#c9c9ca" d="M 316.5,50.5 C 313.833,50.1667 311.167,49.8333 308.5,49.5C 305.482,49.2962 302.482,48.9629 299.5,48.5C 298.391,47.71 297.058,47.21 295.5,47C 279.837,46.5001 264.17,46.3334 248.5,46.5C 245.518,46.9629 242.518,47.2962 239.5,47.5C 239.611,46.8826 239.944,46.3826 240.5,46C 265.354,43.25 290.02,44.25 314.5,49C 315.416,49.2784 316.082,49.7784 316.5,50.5 Z"/></g>
<g><path style="opacity:0.933" fill="#262828" d="M 248.5,46.5 C 264.17,46.3334 279.837,46.5001 295.5,47C 297.058,47.21 298.391,47.71 299.5,48.5C 281.5,47.1667 263.5,47.1667 245.5,48.5C 246.5,47.8333 247.5,47.1667 248.5,46.5 Z"/></g>
<g><path style="opacity:0.663" fill="#838384" d="M 248.5,46.5 C 247.5,47.1667 246.5,47.8333 245.5,48.5C 242.43,48.3677 239.43,48.701 236.5,49.5C 236.833,48.8333 237.167,48.1667 237.5,47.5C 238.167,47.5 238.833,47.5 239.5,47.5C 242.518,47.2962 245.518,46.9629 248.5,46.5 Z"/></g>
<g><path style="opacity:1" fill="#060708" d="M 299.5,48.5 C 302.482,48.9629 305.482,49.2962 308.5,49.5C 308.611,50.1174 308.944,50.6174 309.5,51C 313.17,51.5482 316.837,52.0482 320.5,52.5C 341.814,58.6547 361.814,67.8214 380.5,80C 387.138,84.3124 393.472,88.9791 399.5,94C 407.036,101.368 414.369,108.868 421.5,116.5C 426.894,123.897 431.894,131.563 436.5,139.5C 438.49,143.105 440.49,146.772 442.5,150.5C 435.524,151.664 428.524,151.831 421.5,151C 420.307,149.905 418.973,149.072 417.5,148.5C 416.833,147.167 415.833,146.167 414.5,145.5C 410.342,141.843 406.342,138.009 402.5,134C 395.724,129.945 388.724,126.445 381.5,123.5C 378.345,120.607 374.678,118.441 370.5,117C 369.365,116.251 368.365,116.417 367.5,117.5C 369.451,119.622 371.785,121.122 374.5,122C 383.75,130.757 393.083,139.257 402.5,147.5C 402.539,148.583 402.873,149.583 403.5,150.5C 396.524,151.664 389.524,151.831 382.5,151C 375.679,144.346 369.013,137.512 362.5,130.5C 357.03,125.999 351.363,121.999 345.5,118.5C 343.573,114.908 340.573,112.908 336.5,112.5C 334.503,109.157 331.503,107.49 327.5,107.5C 326.028,105.866 324.362,104.366 322.5,103C 314.113,98.6338 305.446,95.1338 296.5,92.5C 294.485,91.0762 292.152,90.4095 289.5,90.5C 288.5,90.5 287.5,90.5 286.5,90.5C 286.167,90.5 285.833,90.5 285.5,90.5C 282.713,88.9451 279.713,87.6118 276.5,86.5C 267.768,85.7821 259.101,84.6155 250.5,83C 274.271,81.7816 297.938,82.6149 321.5,85.5C 327.756,87.0719 334.089,88.7385 340.5,90.5C 341.833,90.5 343.167,90.5 344.5,90.5C 347.008,92.554 350.008,93.554 353.5,93.5C 353.833,93.5 354.167,93.5 354.5,93.5C 354.611,94.1174 354.944,94.6174 355.5,95C 357.866,95.4396 360.199,95.9396 362.5,96.5C 363.167,96.5 363.833,96.5 364.5,96.5C 369.023,100.47 374.356,102.303 380.5,102C 379.529,100.519 378.196,99.6854 376.5,99.5C 372.032,97.0971 367.699,94.4304 363.5,91.5C 361.967,89.7549 359.967,88.7549 357.5,88.5C 345.619,82.0177 332.953,77.3511 319.5,74.5C 319.389,73.8826 319.056,73.3826 318.5,73C 315.173,72.3897 311.839,71.8897 308.5,71.5C 307.833,71.5 307.167,71.5 306.5,71.5C 304.485,70.0762 302.152,69.4095 299.5,69.5C 296.391,69.7359 293.391,69.4025 290.5,68.5C 277.673,67.3398 264.673,67.1731 251.5,68C 250.263,68.2321 249.263,68.7321 248.5,69.5C 230.81,71.6973 213.81,76.0306 197.5,82.5C 162.558,96.9227 134.225,119.756 112.5,151C 108.459,151.827 104.459,151.66 100.5,150.5C 102.526,146.152 104.526,141.819 106.5,137.5C 110.833,132.167 115.167,126.833 119.5,121.5C 121.326,119.853 122.66,117.853 123.5,115.5C 125.547,113.45 127.214,111.117 128.5,108.5C 133.833,104.5 138.5,99.8333 142.5,94.5C 148.167,90.5 153.833,86.5 159.5,82.5C 162.293,80.6 165.293,78.9333 168.5,77.5C 168.863,76.8165 169.196,76.1499 169.5,75.5C 169.5,74.8333 169.833,74.5 170.5,74.5C 173.546,74.2753 175.879,72.942 177.5,70.5C 179.072,69.3127 180.739,68.3127 182.5,67.5C 188.175,66.4942 193.175,64.1609 197.5,60.5C 198.5,60.1667 199.167,59.5 199.5,58.5C 199.833,58.5 200.167,58.5 200.5,58.5C 205.342,57.6307 210.008,56.2974 214.5,54.5C 217.152,54.5905 219.485,53.9238 221.5,52.5C 226.534,51.6266 231.534,50.6266 236.5,49.5C 239.43,48.701 242.43,48.3677 245.5,48.5C 263.5,47.1667 281.5,47.1667 299.5,48.5 Z M 361.5,94.5 C 361.696,92.3544 362.696,92.1878 364.5,94C 363.552,94.4828 362.552,94.6495 361.5,94.5 Z"/></g>
<g><path style="opacity:0.129" fill="#d3d3d4" d="M 237.5,47.5 C 237.167,48.1667 236.833,48.8333 236.5,49.5C 231.534,50.6266 226.534,51.6266 221.5,52.5C 219.139,52.6741 216.806,53.0074 214.5,53.5C 215.347,52.0337 216.68,51.2004 218.5,51C 224.734,49.3869 231.067,48.2202 237.5,47.5 Z"/></g>
<g><path style="opacity:0.894" fill="#585858" d="M 155.5,49.5 C 151.613,52.2505 147.28,54.2505 142.5,55.5C 142.5,54.8333 142.5,54.1667 142.5,53.5C 142.833,53.5 143.167,53.5 143.5,53.5C 147.325,51.683 151.325,50.3497 155.5,49.5 Z"/></g>
<g><path style="opacity:0.357" fill="#7b7c7c" d="M 308.5,49.5 C 311.167,49.8333 313.833,50.1667 316.5,50.5C 316.833,50.5 317.167,50.5 317.5,50.5C 318.5,51.1667 319.5,51.8333 320.5,52.5C 316.837,52.0482 313.17,51.5482 309.5,51C 308.944,50.6174 308.611,50.1174 308.5,49.5 Z"/></g>
<g><path style="opacity:0.741" fill="#6d6e6f" d="M 221.5,52.5 C 219.485,53.9238 217.152,54.5905 214.5,54.5C 214.5,54.1667 214.5,53.8333 214.5,53.5C 216.806,53.0074 219.139,52.6741 221.5,52.5 Z"/></g>
<g><path style="opacity:0.173" fill="#d0d0d0" d="M 214.5,53.5 C 214.5,53.8333 214.5,54.1667 214.5,54.5C 210.008,56.2974 205.342,57.6307 200.5,58.5C 203.066,56.5605 206.066,55.0605 209.5,54C 211.134,53.5065 212.801,53.3398 214.5,53.5 Z"/></g>
<g><path style="opacity:0.063" fill="#e5e6e6" d="M 199.5,58.5 C 199.167,59.5 198.5,60.1667 197.5,60.5C 195.883,61.038 194.216,61.3713 192.5,61.5C 194.426,59.7073 196.759,58.7073 199.5,58.5 Z"/></g>
<g><path style="opacity:0.867" fill="#555656" d="M 197.5,60.5 C 193.175,64.1609 188.175,66.4942 182.5,67.5C 185.833,65.5 189.167,63.5 192.5,61.5C 194.216,61.3713 195.883,61.038 197.5,60.5 Z"/></g>
<g><path style="opacity:0.589" fill="#575859" d="M 290.5,68.5 C 276.471,68.2377 262.471,68.571 248.5,69.5C 249.263,68.7321 250.263,68.2321 251.5,68C 264.673,67.1731 277.673,67.3398 290.5,68.5 Z"/></g>
<g><path style="opacity:0.008" fill="#e6e6e6" d="M 192.5,61.5 C 189.167,63.5 185.833,65.5 182.5,67.5C 180.739,68.3127 179.072,69.3127 177.5,70.5C 175.685,71.6298 173.685,72.2964 171.5,72.5C 177.422,67.0365 184.422,63.3699 192.5,61.5 Z"/></g>
<g><path style="opacity:0.725" fill="#535454" d="M 299.5,69.5 C 302.152,69.4095 304.485,70.0762 306.5,71.5C 303.848,71.5905 301.515,70.9238 299.5,69.5 Z"/></g>
<g><path style="opacity:0.235" fill="#c7c7c7" d="M 290.5,68.5 C 293.391,69.4025 296.391,69.7359 299.5,69.5C 301.515,70.9238 303.848,71.5905 306.5,71.5C 307.167,71.5 307.833,71.5 308.5,71.5C 309.167,72.1667 309.833,72.8333 310.5,73.5C 271.371,66.073 233.371,69.7396 196.5,84.5C 196.833,83.8333 197.167,83.1667 197.5,82.5C 213.81,76.0306 230.81,71.6973 248.5,69.5C 262.471,68.571 276.471,68.2377 290.5,68.5 Z"/></g>
<g><path style="opacity:0.09" fill="#c2c2c3" d="M 317.5,50.5 C 348.211,57.6889 375.545,71.5222 399.5,92C 406.387,98.8874 413.221,105.721 420,112.5C 420.791,113.745 421.291,115.078 421.5,116.5C 414.369,108.868 407.036,101.368 399.5,94C 393.472,88.9791 387.138,84.3124 380.5,80C 361.814,67.8214 341.814,58.6547 320.5,52.5C 319.5,51.8333 318.5,51.1667 317.5,50.5 Z"/></g>
<g><path style="opacity:0.082" fill="#e1e1e1" d="M 171.5,72.5 C 171.167,73.1667 170.833,73.8333 170.5,74.5C 169.833,74.5 169.5,74.8333 169.5,75.5C 167.313,76.758 164.98,77.758 162.5,78.5C 164.61,75.2709 167.61,73.2709 171.5,72.5 Z"/></g>
<g><path style="opacity:0.737" fill="#646565" d="M 177.5,70.5 C 175.879,72.942 173.546,74.2753 170.5,74.5C 170.833,73.8333 171.167,73.1667 171.5,72.5C 173.685,72.2964 175.685,71.6298 177.5,70.5 Z"/></g>
<g><path style="opacity:0.62" fill="#757676" d="M 308.5,71.5 C 311.839,71.8897 315.173,72.3897 318.5,73C 319.056,73.3826 319.389,73.8826 319.5,74.5C 317.139,74.3259 314.806,73.9926 312.5,73.5C 311.833,73.5 311.167,73.5 310.5,73.5C 309.833,72.8333 309.167,72.1667 308.5,71.5 Z"/></g>
<g><path style="opacity:0.286" fill="#cfcfcf" d="M 142.5,53.5 C 142.5,54.1667 142.5,54.8333 142.5,55.5C 135.596,58.9583 128.929,62.9583 122.5,67.5C 102.207,83.1303 84.8736,101.464 70.5,122.5C 87.898,92.7718 111.898,69.7718 142.5,53.5 Z"/></g>
<g><path style="opacity:0.118" fill="#dadbdb" d="M 162.5,78.5 C 161.5,79.8333 160.5,81.1667 159.5,82.5C 153.833,86.5 148.167,90.5 142.5,94.5C 143.203,92.2843 144.536,90.451 146.5,89C 151.476,84.8385 156.81,81.3385 162.5,78.5 Z"/></g>
<g><path style="opacity:0.945" fill="#3f4041" d="M 169.5,75.5 C 169.196,76.1499 168.863,76.8165 168.5,77.5C 165.293,78.9333 162.293,80.6 159.5,82.5C 160.5,81.1667 161.5,79.8333 162.5,78.5C 164.98,77.758 167.313,76.758 169.5,75.5 Z"/></g>
<g><path style="opacity:0.076" fill="#b5b5b5" d="M 332.5,86.5 C 328.802,86.4476 325.135,86.1143 321.5,85.5C 297.938,82.6149 274.271,81.7816 250.5,83C 259.101,84.6155 267.768,85.7821 276.5,86.5C 279.713,87.6118 282.713,88.9451 285.5,90.5C 272.609,87.9357 259.609,85.7691 246.5,84C 246.167,83.6667 245.833,83.3333 245.5,83C 246.623,81.9563 247.956,81.2896 249.5,81C 276.671,79.3947 303.671,80.7281 330.5,85C 331.416,85.2784 332.082,85.7784 332.5,86.5 Z"/></g>
<g><path style="opacity:0.09" fill="#c9caca" d="M 312.5,73.5 C 314.806,73.9926 317.139,74.3259 319.5,74.5C 332.953,77.3511 345.619,82.0177 357.5,88.5C 357.833,89.1667 358.167,89.8333 358.5,90.5C 343.603,83.6107 328.27,77.9441 312.5,73.5 Z"/></g>
<g><path style="opacity:0.294" fill="#787979" d="M 321.5,85.5 C 325.135,86.1143 328.802,86.4476 332.5,86.5C 333.167,86.5 333.833,86.5 334.5,86.5C 336.364,88.0138 338.364,89.3472 340.5,90.5C 334.089,88.7385 327.756,87.0719 321.5,85.5 Z"/></g>
<g><path style="opacity:0.09" fill="#dadbdb" d="M 334.5,86.5 C 340.75,87.6463 346.75,89.3129 352.5,91.5C 349.763,91.5987 347.096,91.2653 344.5,90.5C 343.167,90.5 341.833,90.5 340.5,90.5C 338.364,89.3472 336.364,88.0138 334.5,86.5 Z"/></g>
<g><path style="opacity:0.02" fill="#b3b3b4" d="M 197.5,82.5 C 197.167,83.1667 196.833,83.8333 196.5,84.5C 163.243,99.6516 135.91,122.152 114.5,152C 109.177,152.499 103.844,152.666 98.5,152.5C 99.6643,146.653 102.331,141.653 106.5,137.5C 104.526,141.819 102.526,146.152 100.5,150.5C 104.459,151.66 108.459,151.827 112.5,151C 134.225,119.756 162.558,96.9227 197.5,82.5 Z"/></g>
<g><path style="opacity:0.714" fill="#676868" d="M 357.5,88.5 C 359.967,88.7549 361.967,89.7549 363.5,91.5C 362.167,91.1667 360.833,90.8333 359.5,90.5C 359.167,90.5 358.833,90.5 358.5,90.5C 358.167,89.8333 357.833,89.1667 357.5,88.5 Z"/></g>
<g><path style="opacity:0.082" fill="#dcdcdd" d="M 286.5,90.5 C 287.5,90.5 288.5,90.5 289.5,90.5C 290.5,91.1667 291.5,91.8333 292.5,92.5C 289.99,92.9465 287.99,92.2798 286.5,90.5 Z"/></g>
<g><path style="opacity:0.776" fill="#535455" d="M 289.5,90.5 C 292.152,90.4095 294.485,91.0762 296.5,92.5C 295.167,92.5 293.833,92.5 292.5,92.5C 291.5,91.8333 290.5,91.1667 289.5,90.5 Z"/></g>
<g><path style="opacity:0.769" fill="#5a5b5c" d="M 344.5,90.5 C 347.096,91.2653 349.763,91.5987 352.5,91.5C 352.833,92.1667 353.167,92.8333 353.5,93.5C 350.008,93.554 347.008,92.554 344.5,90.5 Z"/></g>
<g><path style="opacity:0.624" fill="#575859" d="M 354.5,93.5 C 356.764,94.2186 359.097,94.552 361.5,94.5C 361.833,95.1667 362.167,95.8333 362.5,96.5C 360.199,95.9396 357.866,95.4396 355.5,95C 354.944,94.6174 354.611,94.1174 354.5,93.5 Z"/></g>
<g><path style="opacity:0.02" fill="#d5d5d5" d="M 359.5,90.5 C 360.833,90.8333 362.167,91.1667 363.5,91.5C 367.699,94.4304 372.032,97.0971 376.5,99.5C 376.265,100.097 375.765,100.43 375,100.5C 371.42,99.29 367.92,97.9566 364.5,96.5C 363.833,96.5 363.167,96.5 362.5,96.5C 362.167,95.8333 361.833,95.1667 361.5,94.5C 359.097,94.552 356.764,94.2186 354.5,93.5C 354.167,93.5 353.833,93.5 353.5,93.5C 353.167,92.8333 352.833,92.1667 352.5,91.5C 354.401,91.4332 356.234,91.7665 358,92.5C 359.03,92.1639 359.53,91.4972 359.5,90.5 Z M 361.5,94.5 C 362.552,94.6495 363.552,94.4828 364.5,94C 362.696,92.1878 361.696,92.3544 361.5,94.5 Z"/></g>
<g><path style="opacity:0.165" fill="#b5b5b5" d="M 188.5,45.5 C 143.078,64.5843 108.745,95.9176 85.5,139.5C 85.8647,136.375 86.698,133.375 88,130.5C 109.656,92.3308 140.489,64.6641 180.5,47.5C 183.167,46.8333 185.833,46.1667 188.5,45.5 Z"/></g>
<g><path style="opacity:0.082" fill="#cacbcb" d="M 292.5,92.5 C 293.833,92.5 295.167,92.5 296.5,92.5C 305.446,95.1338 314.113,98.6338 322.5,103C 324.362,104.366 326.028,105.866 327.5,107.5C 316.021,102.01 304.354,97.0102 292.5,92.5 Z"/></g>
<g><path style="opacity:0.988" fill="#48494a" d="M 364.5,96.5 C 367.92,97.9566 371.42,99.29 375,100.5C 375.765,100.43 376.265,100.097 376.5,99.5C 378.196,99.6854 379.529,100.519 380.5,102C 374.356,102.303 369.023,100.47 364.5,96.5 Z"/></g>
<g><path style="opacity:0.027" fill="#dbdbdc" d="M 142.5,94.5 C 138.5,99.8333 133.833,104.5 128.5,108.5C 128.709,107.078 129.209,105.745 130,104.5C 134.085,100.899 138.251,97.5659 142.5,94.5 Z"/></g>
<g><path style="opacity:0.122" fill="#d5d5d5" d="M 128.5,108.5 C 127.214,111.117 125.547,113.45 123.5,115.5C 122.5,116.167 121.5,116.833 120.5,117.5C 122.14,113.53 124.807,110.53 128.5,108.5 Z"/></g>
<g><path style="opacity:0.008" fill="#c0c0c1" d="M 327.5,107.5 C 331.503,107.49 334.503,109.157 336.5,112.5C 335.07,112.579 333.736,112.246 332.5,111.5C 330.725,110.162 329.059,108.829 327.5,107.5 Z"/></g>
<g><path style="opacity:0.384" fill="#bebebe" d="M 336.5,112.5 C 340.573,112.908 343.573,114.908 345.5,118.5C 342.245,116.718 339.245,114.718 336.5,112.5 Z"/></g>
<g><path style="opacity:0.839" fill="#545656" d="M 123.5,115.5 C 122.66,117.853 121.326,119.853 119.5,121.5C 119.833,120.167 120.167,118.833 120.5,117.5C 121.5,116.833 122.5,116.167 123.5,115.5 Z"/></g>
<g><path style="opacity:0.047" fill="#b7b8b8" d="M 381.5,123.5 C 380.761,123.369 380.094,123.536 379.5,124C 383.374,127.876 387.541,131.376 392,134.5C 395.737,138.727 399.237,143.06 402.5,147.5C 393.083,139.257 383.75,130.757 374.5,122C 371.785,121.122 369.451,119.622 367.5,117.5C 368.365,116.417 369.365,116.251 370.5,117C 374.678,118.441 378.345,120.607 381.5,123.5 Z"/></g>
<g><path style="opacity:0.165" fill="#d7d8d8" d="M 120.5,117.5 C 120.167,118.833 119.833,120.167 119.5,121.5C 115.167,126.833 110.833,132.167 106.5,137.5C 107.44,134.286 108.94,131.286 111,128.5C 113.73,124.316 116.896,120.65 120.5,117.5 Z"/></g>
<g><path style="opacity:0.11" fill="#c2c2c2" d="M 345.5,118.5 C 351.363,121.999 357.03,125.999 362.5,130.5C 369.013,137.512 375.679,144.346 382.5,151C 389.524,151.831 396.524,151.664 403.5,150.5C 402.873,149.583 402.539,148.583 402.5,147.5C 404.257,148.292 405.591,149.625 406.5,151.5C 402.333,151.833 398.167,152.167 394,152.5C 389.056,152.612 384.223,152.112 379.5,151C 369.212,138.875 357.879,128.041 345.5,118.5 Z"/></g>
<g><path style="opacity:0.188" fill="#d0d0d0" d="M 70.5,122.5 C 69.3282,126.658 67.3282,130.325 64.5,133.5C 64.4914,131.692 64.9914,130.025 66,128.5C 67.2425,126.141 68.7425,124.141 70.5,122.5 Z"/></g>
<g><path style="opacity:0.039" fill="#d6d7d7" d="M 421.5,116.5 C 422.239,116.369 422.906,116.536 423.5,117C 429.547,124.204 434.547,132.037 438.5,140.5C 437.833,140.167 437.167,139.833 436.5,139.5C 431.894,131.563 426.894,123.897 421.5,116.5 Z"/></g>
<g><path style="opacity:0.055" fill="#bebfbf" d="M 381.5,123.5 C 388.724,126.445 395.724,129.945 402.5,134C 406.342,138.009 410.342,141.843 414.5,145.5C 403.703,137.8 392.703,130.466 381.5,123.5 Z"/></g>
<g><path style="opacity:0.027" fill="#d8d8d9" d="M 414.5,145.5 C 415.833,146.167 416.833,147.167 417.5,148.5C 415.5,148.5 414.5,147.5 414.5,145.5 Z"/></g>
<g><path style="opacity:0.443" fill="#9f9f9f" d="M 64.5,133.5 C 61.881,139.184 59.5477,145.018 57.5,151C 64.4921,151.5 71.4921,151.666 78.5,151.5C 79.7436,148.273 80.9103,144.939 82,141.5C 83.1127,140.695 84.2794,140.028 85.5,139.5C 83.7209,143.814 81.7209,147.981 79.5,152C 71.5,152.667 63.5,152.667 55.5,152C 55.1667,151.667 54.8333,151.333 54.5,151C 56.6978,147.435 58.5311,143.601 60,139.5C 61.2425,137.141 62.7425,135.141 64.5,133.5 Z"/></g>
<g><path style="opacity:0.302" fill="#b0b1b1" d="M 436.5,139.5 C 437.167,139.833 437.833,140.167 438.5,140.5C 441.374,143.729 443.707,147.396 445.5,151.5C 437.187,152.665 428.853,152.832 420.5,152C 418.574,151.578 417.574,150.411 417.5,148.5C 418.973,149.072 420.307,149.905 421.5,151C 428.524,151.831 435.524,151.664 442.5,150.5C 440.49,146.772 438.49,143.105 436.5,139.5 Z"/></g>
<g><path style="opacity:1" fill="#1c1c1c" d="M 287.5,195.5 C 287.427,197.027 288.094,198.027 289.5,198.5C 289.938,198.435 290.272,198.601 290.5,199C 285.273,202.408 279.606,204.408 273.5,205C 270.836,194.175 266.17,184.341 259.5,175.5C 258.738,173.738 257.404,172.738 255.5,172.5C 241.885,164.757 228.218,164.59 214.5,172C 207.912,178.145 205.745,185.645 208,194.5C 210.94,201.452 215.44,207.286 221.5,212C 228.167,217 234.833,222 241.5,227C 219.915,233.915 204.915,227.248 196.5,207C 193.748,198.446 193.914,189.946 197,181.5C 197.792,178.894 199.292,176.894 201.5,175.5C 203.167,174.5 204.5,173.167 205.5,171.5C 210.519,166.826 216.519,163.993 223.5,163C 252.699,158.765 274.032,169.598 287.5,195.5 Z"/></g>
<g><path style="opacity:1" fill="#101010" d="M 147.5,174.5 C 147.821,176.048 148.821,176.715 150.5,176.5C 157.366,180.365 162.033,186.032 164.5,193.5C 164.41,196.152 165.076,198.485 166.5,200.5C 168.157,209.307 167.491,217.974 164.5,226.5C 157.532,227.497 150.532,227.83 143.5,227.5C 147.877,214.204 147.21,201.204 141.5,188.5C 141.715,186.821 141.048,185.821 139.5,185.5C 137.863,183.525 136.196,181.525 134.5,179.5C 134.027,178.094 133.027,177.427 131.5,177.5C 131.027,176.094 130.027,175.427 128.5,175.5C 122.588,173.417 116.588,171.75 110.5,170.5C 102.016,169.507 93.3494,169.174 84.5,169.5C 84.5,188.833 84.5,208.167 84.5,227.5C 77.8333,227.5 71.1667,227.5 64.5,227.5C 64.5961,207.157 64.2627,186.824 63.5,166.5C 82.5029,166.333 101.503,166.5 120.5,167C 129.963,167.99 138.963,170.49 147.5,174.5 Z"/></g>
<g><path style="opacity:1" fill="#0d0d0d" d="M 316.5,166.5 C 324.5,166.5 332.5,166.5 340.5,166.5C 338.877,186.788 338.21,207.121 338.5,227.5C 331.833,227.5 325.167,227.5 318.5,227.5C 318.562,207.137 317.895,186.804 316.5,166.5 Z"/></g>
<g><path style="opacity:0.999" fill="#424242" d="M 416.5,166.5 C 419.518,166.335 422.518,166.502 425.5,167C 405.825,186.342 386.825,206.342 368.5,227C 366.5,227.667 364.5,227.667 362.5,227C 381.45,207.558 399.45,187.391 416.5,166.5 Z"/></g>
<g><path style="opacity:0.197" fill="#c7c7c7" d="M 110.5,170.5 C 102.167,170.5 93.8333,170.5 85.5,170.5C 85.8303,189.674 85.497,208.674 84.5,227.5C 84.5,208.167 84.5,188.833 84.5,169.5C 93.3494,169.174 102.016,169.507 110.5,170.5 Z"/></g>
<g><path style="opacity:0.733" fill="#959595" d="M 255.5,172.5 C 257.404,172.738 258.738,173.738 259.5,175.5C 257.596,175.262 256.262,174.262 255.5,172.5 Z"/></g>
<g><path style="opacity:0.659" fill="#8f8f8f" d="M 205.5,171.5 C 204.5,173.167 203.167,174.5 201.5,175.5C 201.833,173.167 203.167,171.833 205.5,171.5 Z"/></g>
<g><path style="opacity:0.918" fill="#7e7e7e" d="M 147.5,174.5 C 148.71,174.932 149.71,175.599 150.5,176.5C 148.821,176.715 147.821,176.048 147.5,174.5 Z"/></g>
<g><path style="opacity:0.396" fill="#9c9c9c" d="M 128.5,175.5 C 130.027,175.427 131.027,176.094 131.5,177.5C 129.973,177.573 128.973,176.906 128.5,175.5 Z"/></g>
<g><path style="opacity:0.518" fill="#959595" d="M 131.5,177.5 C 133.027,177.427 134.027,178.094 134.5,179.5C 132.973,179.573 131.973,178.906 131.5,177.5 Z"/></g>
<g><path style="opacity:0.89" fill="#838383" d="M 139.5,185.5 C 141.048,185.821 141.715,186.821 141.5,188.5C 140.599,187.71 139.932,186.71 139.5,185.5 Z"/></g>
<g><path style="opacity:0.408" fill="#989898" d="M 287.5,195.5 C 288.906,195.973 289.573,196.973 289.5,198.5C 288.094,198.027 287.427,197.027 287.5,195.5 Z"/></g>
<g><path style="opacity:0.624" fill="#7f7f7f" d="M 164.5,193.5 C 165.924,195.515 166.59,197.848 166.5,200.5C 165.076,198.485 164.41,196.152 164.5,193.5 Z"/></g>
<g><path style="opacity:0.048" fill="#e6e6e6" d="M 210.5,234.5 C 208.784,234.629 207.117,234.962 205.5,235.5C 206.879,233.403 208.545,233.07 210.5,234.5 Z"/></g>
<g><path style="opacity:0.064" fill="#dedede" d="M 335.5,235.5 C 335.167,235.5 334.833,235.5 334.5,235.5C 330.265,234.564 325.931,234.231 321.5,234.5C 321.5,235.5 321.5,236.5 321.5,237.5C 321.5,237.833 321.5,238.167 321.5,238.5C 319.418,237.415 319.084,235.915 320.5,234C 325.167,233.333 329.833,233.333 334.5,234C 335.056,234.383 335.389,234.883 335.5,235.5 Z"/></g>
<g><path style="opacity:0.066" fill="#ebebeb" d="M 403.5,234.5 C 407.981,233.352 412.648,233.185 417.5,234C 418.056,234.383 418.389,234.883 418.5,235.5C 413.562,234.608 408.562,234.274 403.5,234.5 Z"/></g>
<g><path style="opacity:0.025" fill="#e7e7e7" d="M 62.5,234.5 C 62.5,235.833 62.5,237.167 62.5,238.5C 61.4138,238.38 60.7472,237.713 60.5,236.5C 60.7472,235.287 61.4138,234.62 62.5,234.5 Z"/></g>
<g><path style="opacity:0.169" fill="#d9d9d9" d="M 98.5,234.5 C 97.0937,234.973 96.427,235.973 96.5,237.5C 95.8333,237.833 95.1667,238.167 94.5,238.5C 94.4838,235.168 95.8171,233.834 98.5,234.5 Z"/></g>
<g><path style="opacity:0.363" fill="#cacaca" d="M 252.5,234.5 C 253.708,233.218 255.042,233.218 256.5,234.5C 257.393,237.084 257.726,239.751 257.5,242.5C 256.833,242.5 256.167,242.5 255.5,242.5C 255.5,239.833 255.5,237.167 255.5,234.5C 254.5,234.5 253.5,234.5 252.5,234.5 Z"/></g>
<g><path style="opacity:0.162" fill="#e1e1e1" d="M 312.5,234.5 C 313.222,234.918 313.722,235.584 314,236.5C 314.167,239 314.333,241.5 314.5,244C 313.618,249.863 313.618,255.696 314.5,261.5C 314.253,262.713 313.586,263.38 312.5,263.5C 312.5,253.833 312.5,244.167 312.5,234.5 Z"/></g>
<g><path style="opacity:1" fill="#0f0f0f" d="M 334.5,235.5 C 330.627,237.43 326.294,238.097 321.5,237.5C 321.5,236.5 321.5,235.5 321.5,234.5C 325.931,234.231 330.265,234.564 334.5,235.5 Z"/></g>
<g><path style="opacity:0.573" fill="#b2b2b2" d="M 384.5,234.5 C 385.189,233.226 386.023,233.226 387,234.5C 388.009,236.025 388.509,237.692 388.5,239.5C 386.818,238.173 385.485,236.506 384.5,234.5 Z"/></g>
<g><path style="opacity:0.447" fill="#cbcbcb" d="M 116.5,234.5 C 120.646,233.353 124.98,233.186 129.5,234C 138.437,239.956 138.77,246.456 130.5,253.5C 131.127,254.417 131.461,255.417 131.5,256.5C 129.978,255.809 128.978,254.642 128.5,253C 136.425,246.859 136.425,240.859 128.5,235C 124.848,234.501 121.182,234.335 117.5,234.5C 117.167,234.5 116.833,234.5 116.5,234.5 Z"/></g>
<g><path style="opacity:0.024" fill="#dcdcdc" d="M 142.5,234.5 C 146.646,233.353 150.98,233.186 155.5,234C 157.043,236.045 156.71,237.545 154.5,238.5C 154.5,238.167 154.5,237.833 154.5,237.5C 154.5,236.5 154.5,235.5 154.5,234.5C 150.833,234.5 147.167,234.5 143.5,234.5C 143.167,234.5 142.833,234.5 142.5,234.5 Z"/></g>
<g><path style="opacity:0.09" fill="#c4c4c4" d="M 293.5,234.5 C 296.113,237.645 297.779,241.311 298.5,245.5C 295.907,242.446 294.241,238.78 293.5,234.5 Z"/></g>
<g><path style="opacity:0.51" fill="#bcbcbc" d="M 348.5,234.5 C 347.167,234.5 345.833,234.5 344.5,234.5C 344.5,242.167 344.5,249.833 344.5,257.5C 347.833,257.5 351.167,257.5 354.5,257.5C 350.767,258.821 346.934,258.821 343,257.5C 342.333,249.833 342.333,242.167 343,234.5C 344.943,233.193 346.777,233.193 348.5,234.5 Z"/></g>
<g><path style="opacity:0.617" fill="#676767" d="M 62.5,234.5 C 62.8333,234.5 63.1667,234.5 63.5,234.5C 63.5,235.5 63.5,236.5 63.5,237.5C 67.3714,237.185 71.0381,237.518 74.5,238.5C 73.8333,238.5 73.1667,238.5 72.5,238.5C 69.1667,238.5 65.8333,238.5 62.5,238.5C 62.5,237.167 62.5,235.833 62.5,234.5 Z"/></g>
<g><path style="opacity:0.627" fill="#6c6c6c" d="M 116.5,234.5 C 116.833,234.5 117.167,234.5 117.5,234.5C 117.5,235.5 117.5,236.5 117.5,237.5C 121.702,237.183 125.702,237.517 129.5,238.5C 128.5,238.5 127.5,238.5 126.5,238.5C 122.833,238.5 119.167,238.5 115.5,238.5C 115.232,236.901 115.566,235.568 116.5,234.5 Z"/></g>
<g><path style="opacity:0.257" fill="#c0c0c0" d="M 312.5,234.5 C 311.25,234.577 310.417,235.244 310,236.5C 309.5,245.494 309.334,254.494 309.5,263.5C 310.5,263.5 311.5,263.5 312.5,263.5C 311.432,264.434 310.099,264.768 308.5,264.5C 308.334,254.494 308.5,244.494 309,234.5C 310.292,233.209 311.458,233.209 312.5,234.5 Z"/></g>
<g><path style="opacity:1" fill="#1e1e1e" d="M 384.5,234.5 C 385.485,236.506 386.818,238.173 388.5,239.5C 389.452,244.725 391.452,249.392 394.5,253.5C 394.895,256.686 395.895,259.686 397.5,262.5C 389.528,263.498 381.528,263.831 373.5,263.5C 375.113,258.193 376.78,252.86 378.5,247.5C 381.275,243.611 383.275,239.278 384.5,234.5 Z M 390.5,254.5 C 391.038,256.117 391.371,257.784 391.5,259.5C 387.5,259.5 383.5,259.5 379.5,259.5C 380.434,254.307 382.434,249.64 385.5,245.5C 386.951,248.746 388.618,251.746 390.5,254.5 Z"/></g>
<g><path style="opacity:0.628" fill="#7b7b7b" d="M 403.5,234.5 C 403.5,235.5 403.5,236.5 403.5,237.5C 408.032,237.182 412.366,237.515 416.5,238.5C 415.833,238.5 415.167,238.5 414.5,238.5C 410.5,238.5 406.5,238.5 402.5,238.5C 402.232,236.901 402.566,235.568 403.5,234.5 Z"/></g>
<g><path style="opacity:1" fill="#2f2f2f" d="M 312.5,234.5 C 312.5,244.167 312.5,253.833 312.5,263.5C 311.5,263.5 310.5,263.5 309.5,263.5C 309.334,254.494 309.5,245.494 310,236.5C 310.417,235.244 311.25,234.577 312.5,234.5 Z"/></g>
<g><path style="opacity:0.984" fill="#424242" d="M 334.5,235.5 C 334.833,235.5 335.167,235.5 335.5,235.5C 339.411,238.841 340.411,242.841 338.5,247.5C 338.663,245.143 338.497,242.81 338,240.5C 337.802,242.382 337.302,244.048 336.5,245.5C 337.467,241.149 335.8,238.815 331.5,238.5C 328.167,238.5 324.833,238.5 321.5,238.5C 321.5,238.167 321.5,237.833 321.5,237.5C 326.294,238.097 330.627,237.43 334.5,235.5 Z"/></g>
<g><path style="opacity:0.051" fill="#d7d7d7" d="M 331.5,238.5 C 335.8,238.815 337.467,241.149 336.5,245.5C 335.833,246.833 334.833,247.833 333.5,248.5C 333.167,248.5 332.833,248.5 332.5,248.5C 336.59,244.693 336.257,241.36 331.5,238.5 Z"/></g>
<g><path style="opacity:0.997" fill="#111111" d="M 63.5,234.5 C 67.9671,234.133 72.3004,234.633 76.5,236C 81.8333,241 81.8333,246 76.5,251C 72.3004,252.367 67.9671,252.867 63.5,252.5C 62.7321,253.263 62.2321,254.263 62,255.5C 61.5045,253.527 61.3379,251.527 61.5,249.5C 66.0323,249.818 70.3656,249.485 74.5,248.5C 79.8148,245.115 79.8148,241.782 74.5,238.5C 71.0381,237.518 67.3714,237.185 63.5,237.5C 63.5,236.5 63.5,235.5 63.5,234.5 Z"/></g>
<g><path style="opacity:0.972" fill="#0e0e0e" d="M 143.5,234.5 C 147.167,234.5 150.833,234.5 154.5,234.5C 154.5,235.5 154.5,236.5 154.5,237.5C 151.5,237.5 148.5,237.5 145.5,237.5C 145.831,246.192 145.498,254.859 144.5,263.5C 143.502,253.856 143.168,244.19 143.5,234.5 Z"/></g>
<g><path style="opacity:0.011" fill="#d5d5d5" d="M 72.5,238.5 C 73.1667,238.5 73.8333,238.5 74.5,238.5C 79.8148,241.782 79.8148,245.115 74.5,248.5C 73.8333,248.5 73.1667,248.5 72.5,248.5C 76.4081,245.295 76.4081,241.962 72.5,238.5 Z"/></g>
<g><path style="opacity:0.051" fill="#e9e9e9" d="M 94.5,238.5 C 94.5979,240.553 93.9313,242.22 92.5,243.5C 92.4021,241.447 93.0687,239.78 94.5,238.5 Z"/></g>
<g><path style="opacity:1" fill="#1b1b1b" d="M 293.5,234.5 C 294.241,238.78 295.907,242.446 298.5,245.5C 300.564,251.363 302.231,257.363 303.5,263.5C 296.167,263.5 288.833,263.5 281.5,263.5C 284.141,254.417 287.307,245.417 291,236.5C 291.708,235.619 292.542,234.953 293.5,234.5 Z M 294.5,246.5 C 296.234,250.702 297.567,255.035 298.5,259.5C 294.5,259.5 290.5,259.5 286.5,259.5C 287.942,254.614 289.942,249.947 292.5,245.5C 293.183,245.863 293.85,246.196 294.5,246.5 Z"/></g>
<g><path style="opacity:0.912" fill="#606060" d="M 96.5,237.5 C 95.506,239.334 95.506,241.001 96.5,242.5C 96.5,243.5 96.5,244.5 96.5,245.5C 95.8333,245.833 95.1667,246.167 94.5,246.5C 94.5912,244.302 93.9245,243.969 92.5,245.5C 92.5,244.833 92.5,244.167 92.5,243.5C 93.9313,242.22 94.5979,240.553 94.5,238.5C 95.1667,238.167 95.8333,237.833 96.5,237.5 Z"/></g>
<g><path style="opacity:0.106" fill="#b5b5b5" d="M 126.5,238.5 C 127.5,238.5 128.5,238.5 129.5,238.5C 133.696,242.271 133.363,245.771 128.5,249C 123.845,249.499 119.179,249.666 114.5,249.5C 114.5,249.167 114.5,248.833 114.5,248.5C 118.846,248.666 123.179,248.499 127.5,248C 131.439,244.38 131.106,241.214 126.5,238.5 Z"/></g>
<g><path style="opacity:0.257" fill="#c7c7c7" d="M 162.5,234.5 C 161.833,234.5 161.167,234.5 160.5,234.5C 159.506,243.986 159.173,253.652 159.5,263.5C 158.746,260.977 158.08,258.311 157.5,255.5C 158.595,248.908 158.595,242.075 157.5,235C 159.148,233.323 160.815,233.156 162.5,234.5 Z"/></g>
<g><path style="opacity:0.545" fill="#aeaeae" d="M 205.5,235.5 C 201.586,240.797 201.586,246.13 205.5,251.5C 200.398,247.931 199.232,243.264 202,237.5C 202.816,236.177 203.983,235.511 205.5,235.5 Z"/></g>
<g><path style="opacity:0.161" fill="#b5b5b5" d="M 232.5,234.5 C 233.093,237.5 233.926,240.5 235,243.5C 237.061,241.194 239.228,239.027 241.5,237C 243.134,236.506 244.801,236.34 246.5,236.5C 246.579,237.93 246.246,239.264 245.5,240.5C 246.833,241.167 248.167,241.833 249.5,242.5C 246.785,245.882 243.785,248.882 240.5,251.5C 241.713,248.775 243.546,246.441 246,244.5C 246.688,243.668 246.521,243.002 245.5,242.5C 241.552,246.11 237.552,249.777 233.5,253.5C 233.167,253.167 232.833,252.833 232.5,252.5C 236.257,247.787 240.257,243.287 244.5,239C 243.101,238.405 241.768,238.572 240.5,239.5C 233.379,249.021 230.713,247.355 232.5,234.5 Z"/></g>
<g><path style="opacity:0.074" fill="#e8e8e8" d="M 252.5,234.5 C 252.5,244.167 252.5,253.833 252.5,263.5C 251.711,263.217 251.044,262.717 250.5,262C 251.155,252.735 251.821,243.568 252.5,234.5 Z"/></g>
<g><path style="opacity:0.835" fill="#2f2f2f" d="M 272.5,255.5 C 272.5,255.167 272.5,254.833 272.5,254.5C 274.552,253.947 274.885,252.947 273.5,251.5C 273.5,249.833 273.5,248.167 273.5,246.5C 274.885,245.053 274.552,244.053 272.5,243.5C 273.084,240.527 273.751,237.527 274.5,234.5C 275.833,244.167 275.833,253.833 274.5,263.5C 273.832,260.694 273.166,258.028 272.5,255.5 Z"/></g>
<g><path style="opacity:0.467" fill="#b7b7b7" d="M 384.5,234.5 C 383.275,239.278 381.275,243.611 378.5,247.5C 379.16,243.687 380.326,240.021 382,236.5C 382.417,235.244 383.25,234.577 384.5,234.5 Z"/></g>
<g><path style="opacity:0.008" fill="#bbbbbb" d="M 414.5,238.5 C 415.167,238.5 415.833,238.5 416.5,238.5C 420.467,241.876 420.467,245.376 416.5,249C 411.845,249.499 407.179,249.666 402.5,249.5C 402.5,249.167 402.5,248.833 402.5,248.5C 407.297,248.879 411.964,248.379 416.5,247C 418.224,243.464 417.557,240.631 414.5,238.5 Z"/></g>
<g><path style="opacity:1" fill="#000000" d="M 255.5,243.5 C 261.167,243.5 266.833,243.5 272.5,243.5C 274.552,244.053 274.885,245.053 273.5,246.5C 267.5,246.5 261.5,246.5 255.5,246.5C 254.167,245.5 254.167,244.5 255.5,243.5 Z"/></g>
<g><path style="opacity:0.486" fill="#b5b5b5" d="M 419.5,236.5 C 422.077,237.972 423.41,240.305 423.5,243.5C 423.308,245.577 422.808,247.577 422,249.5C 421.329,250.252 420.496,250.586 419.5,250.5C 422.089,245.767 422.089,241.1 419.5,236.5 Z"/></g>
<g><path style="opacity:0.098" fill="#cecece" d="M 388.5,239.5 C 391.458,243.691 393.458,248.358 394.5,253.5C 391.452,249.392 389.452,244.725 388.5,239.5 Z"/></g>
<g><path style="opacity:0.09" fill="#c1c1c1" d="M 98.5,234.5 C 102.504,240.524 105.504,247.191 107.5,254.5C 104.773,249.192 101.94,243.858 99,238.5C 98.51,237.207 98.3433,235.873 98.5,234.5 Z"/></g>
<g><path style="opacity:0.998" fill="#222222" d="M 210.5,234.5 C 209.165,236.797 207.332,238.797 205,240.5C 203.791,244.268 204.791,247.268 208,249.5C 209.457,252.366 209.79,255.366 209,258.5C 207.293,260.037 205.793,261.704 204.5,263.5C 203.5,263.5 202.5,263.5 201.5,263.5C 201.5,262.5 201.5,261.5 201.5,260.5C 207.509,259.244 208.842,256.244 205.5,251.5C 201.586,246.13 201.586,240.797 205.5,235.5C 207.117,234.962 208.784,234.629 210.5,234.5 Z"/></g>
<g><path style="opacity:0.118" fill="#d2d2d2" d="M 210.5,234.5 C 211.573,235.251 211.74,236.251 211,237.5C 208.302,238.698 206.469,240.698 205.5,243.5C 208.279,246.723 210.279,250.39 211.5,254.5C 210.995,258.997 208.661,261.997 204.5,263.5C 205.793,261.704 207.293,260.037 209,258.5C 209.79,255.366 209.457,252.366 208,249.5C 204.791,247.268 203.791,244.268 205,240.5C 207.332,238.797 209.165,236.797 210.5,234.5 Z"/></g>
<g><path style="opacity:1" fill="#1d1d1d" d="M 117.5,234.5 C 121.182,234.335 124.848,234.501 128.5,235C 136.425,240.859 136.425,246.859 128.5,253C 128.978,254.642 129.978,255.809 131.5,256.5C 132.338,256.842 132.672,257.508 132.5,258.5C 133.434,260.239 133.434,261.905 132.5,263.5C 129.189,260.682 126.856,257.182 125.5,253C 122.854,252.503 120.187,252.336 117.5,252.5C 117.5,256.167 117.5,259.833 117.5,263.5C 116.5,263.5 115.5,263.5 114.5,263.5C 114.5,258.833 114.5,254.167 114.5,249.5C 119.179,249.666 123.845,249.499 128.5,249C 133.363,245.771 133.696,242.271 129.5,238.5C 125.702,237.517 121.702,237.183 117.5,237.5C 117.5,236.5 117.5,235.5 117.5,234.5 Z"/></g>
<g><path style="opacity:0.174" fill="#c7c7c7" d="M 255.5,246.5 C 261.5,246.5 267.5,246.5 273.5,246.5C 273.5,248.167 273.5,249.833 273.5,251.5C 267.5,251.5 261.5,251.5 255.5,251.5C 255.5,249.833 255.5,248.167 255.5,246.5 Z M 257.5,247.5 C 262.167,247.5 266.833,247.5 271.5,247.5C 271.5,248.5 271.5,249.5 271.5,250.5C 266.833,250.5 262.167,250.5 257.5,250.5C 257.5,249.5 257.5,248.5 257.5,247.5 Z"/></g>
<g><path style="opacity:0.273" fill="#bebebe" d="M 271.5,255.5 C 271.833,255.5 272.167,255.5 272.5,255.5C 273.166,258.028 273.832,260.694 274.5,263.5C 275.833,253.833 275.833,244.167 274.5,234.5C 273.751,237.527 273.084,240.527 272.5,243.5C 266.833,243.5 261.167,243.5 255.5,243.5C 255.5,243.167 255.5,242.833 255.5,242.5C 256.167,242.5 256.833,242.5 257.5,242.5C 262.167,242.5 266.833,242.5 271.5,242.5C 271.336,239.813 271.503,237.146 272,234.5C 273.667,233.167 275.333,233.167 277,234.5C 277.667,244.167 277.667,253.833 277,263.5C 275.333,264.833 273.667,264.833 272,263.5C 271.503,260.854 271.336,258.187 271.5,255.5 Z"/></g>
<g><path style="opacity:0.082" fill="#cecece" d="M 294.5,246.5 C 293.85,246.196 293.183,245.863 292.5,245.5C 289.942,249.947 287.942,254.614 286.5,259.5C 285.662,259.158 285.328,258.492 285.5,257.5C 287.492,252.529 289.492,247.529 291.5,242.5C 292.274,241.289 293.107,241.289 294,242.5C 294.49,243.793 294.657,245.127 294.5,246.5 Z"/></g>
<g><path style="opacity:0.949" fill="#303030" d="M 98.5,234.5 C 98.3433,235.873 98.51,237.207 99,238.5C 101.94,243.858 104.773,249.192 107.5,254.5C 108.404,255.209 108.737,256.209 108.5,257.5C 108.5,258.167 108.5,258.833 108.5,259.5C 107.778,259.082 107.278,258.416 107,257.5C 106.768,258.737 106.268,259.737 105.5,260.5C 105.5,260.167 105.5,259.833 105.5,259.5C 104.021,253.56 101.854,247.894 99,242.5C 98.0228,241.226 97.1894,241.226 96.5,242.5C 95.506,241.001 95.506,239.334 96.5,237.5C 96.427,235.973 97.0937,234.973 98.5,234.5 Z"/></g>
<g><path style="opacity:0.721" fill="#5d5d5d" d="M 160.5,234.5 C 160.334,243.839 160.5,253.173 161,262.5C 161.186,259.964 161.686,257.631 162.5,255.5C 162.5,258.167 162.5,260.833 162.5,263.5C 161.5,264.833 160.5,264.833 159.5,263.5C 159.173,253.652 159.506,243.986 160.5,234.5 Z"/></g>
<g><path style="opacity:0.362" fill="#b4b4b4" d="M 364.5,263.5 C 365.5,263.5 366.5,263.5 367.5,263.5C 367.832,253.81 367.498,244.144 366.5,234.5C 365.503,242.138 365.169,249.804 365.5,257.5C 363.821,257.715 362.821,257.048 362.5,255.5C 363.117,255.611 363.617,255.944 364,256.5C 364.5,249.174 364.666,241.841 364.5,234.5C 365.884,233.199 367.384,233.199 369,234.5C 369.667,244.167 369.667,253.833 369,263.5C 367.384,264.801 365.884,264.801 364.5,263.5 Z"/></g>
<g><path style="opacity:1" fill="#171717" d="M 338.5,247.5 C 337.046,249.458 335.379,251.291 333.5,253C 335.593,256.351 337.26,259.851 338.5,263.5C 337.5,263.5 336.5,263.5 335.5,263.5C 335.13,260.733 333.796,258.733 331.5,257.5C 331.703,255.61 331.037,254.11 329.5,253C 327.19,252.503 324.857,252.337 322.5,252.5C 321.677,255.977 321.177,259.644 321,263.5C 320.501,258.845 320.334,254.179 320.5,249.5C 325.032,249.818 329.366,249.485 333.5,248.5C 334.833,247.833 335.833,246.833 336.5,245.5C 337.302,244.048 337.802,242.382 338,240.5C 338.497,242.81 338.663,245.143 338.5,247.5 Z"/></g>
<g><path style="opacity:0.045" fill="#ededed" d="M 402.5,248.5 C 402.5,248.833 402.5,249.167 402.5,249.5C 401.514,253.97 401.181,258.637 401.5,263.5C 400.836,261.19 400.503,258.69 400.5,256C 400.525,253.071 401.191,250.571 402.5,248.5 Z"/></g>
<g><path style="opacity:1" fill="#191919" d="M 403.5,234.5 C 408.562,234.274 413.562,234.608 418.5,235.5C 419.167,235.5 419.5,235.833 419.5,236.5C 422.089,241.1 422.089,245.767 419.5,250.5C 419.5,251.167 419.167,251.5 418.5,251.5C 416.448,252.053 416.115,253.053 417.5,254.5C 418.338,254.842 418.672,255.508 418.5,256.5C 419.086,258.84 420.086,261.007 421.5,263C 421,263.167 420.5,263.333 420,263.5C 418.252,261.478 416.419,259.478 414.5,257.5C 414.249,255.83 413.582,254.33 412.5,253C 409.854,252.503 407.187,252.336 404.5,252.5C 404.823,256.226 404.489,259.893 403.5,263.5C 402.507,258.88 402.173,254.214 402.5,249.5C 407.179,249.666 411.845,249.499 416.5,249C 420.467,245.376 420.467,241.876 416.5,238.5C 412.366,237.515 408.032,237.182 403.5,237.5C 403.5,236.5 403.5,235.5 403.5,234.5 Z"/></g>
<g><path style="opacity:0.055" fill="#cccccc" d="M 96.5,245.5 C 95.1554,250.182 93.8221,254.849 92.5,259.5C 91.5084,259.672 90.8417,259.338 90.5,258.5C 91.2672,254.302 92.6005,250.302 94.5,246.5C 95.1667,246.167 95.8333,245.833 96.5,245.5 Z"/></g>
<g><path style="opacity:1" fill="#141414" d="M 160.5,234.5 C 161.167,234.5 161.833,234.5 162.5,234.5C 162.5,237.5 162.5,240.5 162.5,243.5C 168.358,243.822 174.025,243.489 179.5,242.5C 180.317,240.031 180.817,237.365 181,234.5C 181.5,244.161 181.666,253.828 181.5,263.5C 179.612,261.012 178.945,258.012 179.5,254.5C 173.642,254.178 167.975,254.511 162.5,255.5C 161.686,257.631 161.186,259.964 161,262.5C 160.5,253.173 160.334,243.839 160.5,234.5 Z M 163.5,247.5 C 168.5,247.5 173.5,247.5 178.5,247.5C 178.5,248.5 178.5,249.5 178.5,250.5C 173.5,250.5 168.5,250.5 163.5,250.5C 163.5,249.5 163.5,248.5 163.5,247.5 Z"/></g>
<g><path style="opacity:0.132" fill="#d8d8d8" d="M 162.5,246.5 C 168.167,246.5 173.833,246.5 179.5,246.5C 179.5,248.167 179.5,249.833 179.5,251.5C 173.833,251.5 168.167,251.5 162.5,251.5C 162.5,249.833 162.5,248.167 162.5,246.5 Z M 163.5,247.5 C 163.5,248.5 163.5,249.5 163.5,250.5C 168.5,250.5 173.5,250.5 178.5,250.5C 178.5,249.5 178.5,248.5 178.5,247.5C 173.5,247.5 168.5,247.5 163.5,247.5 Z"/></g>
<g><path style="opacity:0.493" fill="#a5a5a5" d="M 162.5,234.5 C 163.473,236.948 163.806,239.615 163.5,242.5C 168.179,242.666 172.845,242.499 177.5,242C 178.123,239.393 178.79,236.893 179.5,234.5C 179.5,237.167 179.5,239.833 179.5,242.5C 174.025,243.489 168.358,243.822 162.5,243.5C 162.5,240.5 162.5,237.5 162.5,234.5 Z"/></g>
<g><path style="opacity:1" fill="#030303" d="M 255.5,251.5 C 261.5,251.5 267.5,251.5 273.5,251.5C 274.885,252.947 274.552,253.947 272.5,254.5C 266.5,254.5 260.5,254.5 254.5,254.5C 254.263,253.209 254.596,252.209 255.5,251.5 Z"/></g>
<g><path style="opacity:0.02" fill="#d6d6d6" d="M 335.5,235.5 C 341.042,238.289 342.542,242.622 340,248.5C 338.108,250.054 336.608,251.888 335.5,254C 337.034,256.899 338.701,259.733 340.5,262.5C 339.087,264.607 337.42,264.94 335.5,263.5C 336.5,263.5 337.5,263.5 338.5,263.5C 337.26,259.851 335.593,256.351 333.5,253C 335.379,251.291 337.046,249.458 338.5,247.5C 340.411,242.841 339.411,238.841 335.5,235.5 Z"/></g>
<g><path style="opacity:0.396" fill="#b1b1b1" d="M 402.5,249.5 C 402.173,254.214 402.507,258.88 403.5,263.5C 404.489,259.893 404.823,256.226 404.5,252.5C 407.187,252.336 409.854,252.503 412.5,253C 413.582,254.33 414.249,255.83 414.5,257.5C 413.188,256.855 412.188,255.855 411.5,254.5C 409.955,253.548 408.288,253.215 406.5,253.5C 406.665,256.85 406.498,260.183 406,263.5C 404.384,264.801 402.884,264.801 401.5,263.5C 401.181,258.637 401.514,253.97 402.5,249.5 Z"/></g>
<g><path style="opacity:0.094" fill="#dadada" d="M 418.5,251.5 C 417.89,252.391 417.557,253.391 417.5,254.5C 416.115,253.053 416.448,252.053 418.5,251.5 Z"/></g>
<g><path style="opacity:0.202" fill="#cfcfcf" d="M 62.5,234.5 C 67.4337,233.092 72.4337,233.259 77.5,235C 83.0716,241.294 82.7383,247.294 76.5,253C 72.789,253.175 69.1224,253.675 65.5,254.5C 64.7565,257.443 64.2565,260.443 64,263.5C 62.6667,264.833 61.3333,264.833 60,263.5C 59.1837,258.316 59.3503,253.316 60.5,248.5C 60.0845,252.375 60.5845,256.042 62,259.5C 62.977,257.26 63.477,254.927 63.5,252.5C 67.9671,252.867 72.3004,252.367 76.5,251C 81.8333,246 81.8333,241 76.5,236C 72.3004,234.633 67.9671,234.133 63.5,234.5C 63.1667,234.5 62.8333,234.5 62.5,234.5 Z"/></g>
<g><path style="opacity:0.489" fill="#7c7c7c" d="M 60.5,248.5 C 64.5,248.5 68.5,248.5 72.5,248.5C 73.1667,248.5 73.8333,248.5 74.5,248.5C 70.3656,249.485 66.0323,249.818 61.5,249.5C 61.3379,251.527 61.5045,253.527 62,255.5C 62.2321,254.263 62.7321,253.263 63.5,252.5C 63.477,254.927 62.977,257.26 62,259.5C 60.5845,256.042 60.0845,252.375 60.5,248.5 Z"/></g>
<g><path style="opacity:0.278" fill="#cecece" d="M 114.5,248.5 C 114.5,248.833 114.5,249.167 114.5,249.5C 114.5,254.167 114.5,258.833 114.5,263.5C 115.5,263.5 116.5,263.5 117.5,263.5C 117.5,259.833 117.5,256.167 117.5,252.5C 120.187,252.336 122.854,252.503 125.5,253C 126.856,257.182 129.189,260.682 132.5,263.5C 133.434,261.905 133.434,260.239 132.5,258.5C 136.975,262.375 136.309,264.209 130.5,264C 127.92,260.842 125.587,257.508 123.5,254C 122.207,253.51 120.873,253.343 119.5,253.5C 119.751,256.909 119.417,260.242 118.5,263.5C 116.955,264.452 115.288,264.785 113.5,264.5C 113.179,258.974 113.512,253.64 114.5,248.5 Z"/></g>
<g><path style="opacity:0.994" fill="#414141" d="M 252.5,234.5 C 253.5,234.5 254.5,234.5 255.5,234.5C 255.5,237.167 255.5,239.833 255.5,242.5C 255.5,242.833 255.5,243.167 255.5,243.5C 254.167,244.5 254.167,245.5 255.5,246.5C 255.5,248.167 255.5,249.833 255.5,251.5C 254.596,252.209 254.263,253.209 254.5,254.5C 260.5,254.5 266.5,254.5 272.5,254.5C 272.5,254.833 272.5,255.167 272.5,255.5C 272.167,255.5 271.833,255.5 271.5,255.5C 266.833,255.5 262.167,255.5 257.5,255.5C 255.631,257.635 254.964,260.302 255.5,263.5C 254.5,263.5 253.5,263.5 252.5,263.5C 252.5,253.833 252.5,244.167 252.5,234.5 Z"/></g>
<g><path style="opacity:0.739" fill="#7b7b7b" d="M 332.5,248.5 C 332.833,248.5 333.167,248.5 333.5,248.5C 329.366,249.485 325.032,249.818 320.5,249.5C 320.334,254.179 320.501,258.845 321,263.5C 321.177,259.644 321.677,255.977 322.5,252.5C 322.5,256.167 322.5,259.833 322.5,263.5C 321.458,264.791 320.292,264.791 319,263.5C 318.501,258.511 318.334,253.511 318.5,248.5C 323.167,248.5 327.833,248.5 332.5,248.5 Z"/></g>
<g><path style="opacity:0.059" fill="#d5d5d5" d="M 105.5,259.5 C 104.833,259.5 104.167,259.5 103.5,259.5C 102.626,256.081 101.46,252.748 100,249.5C 99.5017,247.456 98.335,246.122 96.5,245.5C 96.5,244.5 96.5,243.5 96.5,242.5C 97.1894,241.226 98.0228,241.226 99,242.5C 101.854,247.894 104.021,253.56 105.5,259.5 Z"/></g>
<g><path style="opacity:0.424" fill="#b4b4b4" d="M 142.5,234.5 C 142.833,234.5 143.167,234.5 143.5,234.5C 143.168,244.19 143.502,253.856 144.5,263.5C 145.498,254.859 145.831,246.192 145.5,237.5C 148.5,237.5 151.5,237.5 154.5,237.5C 154.5,237.833 154.5,238.167 154.5,238.5C 152.167,238.5 149.833,238.5 147.5,238.5C 147.666,246.84 147.5,255.173 147,263.5C 145.612,264.554 144.112,264.72 142.5,264C 141.171,254.069 141.171,244.235 142.5,234.5 Z"/></g>
<g><path style="opacity:0.999" fill="#1d1d1d" d="M 232.5,234.5 C 230.713,247.355 233.379,249.021 240.5,239.5C 241.768,238.572 243.101,238.405 244.5,239C 240.257,243.287 236.257,247.787 232.5,252.5C 232.833,252.833 233.167,253.167 233.5,253.5C 237.552,249.777 241.552,246.11 245.5,242.5C 246.521,243.002 246.688,243.668 246,244.5C 243.546,246.441 241.713,248.775 240.5,251.5C 239.427,252.251 239.26,253.251 240,254.5C 242.683,257.016 245.183,259.683 247.5,262.5C 246.635,263.583 245.635,263.749 244.5,263C 241.934,260.434 239.434,257.934 237,255.5C 235.395,256.101 234.062,257.101 233,258.5C 232.95,260.744 232.117,262.411 230.5,263.5C 229.86,253.442 230.527,243.775 232.5,234.5 Z"/></g>
<g><path style="opacity:0.994" fill="#1f1f1f" d="M 348.5,234.5 C 348.845,237.198 350.178,239.198 352.5,240.5C 354.016,243.533 356.016,246.2 358.5,248.5C 359.569,250.969 360.902,253.302 362.5,255.5C 362.821,257.048 363.821,257.715 365.5,257.5C 365.169,249.804 365.503,242.138 366.5,234.5C 367.498,244.144 367.832,253.81 367.5,263.5C 366.5,263.5 365.5,263.5 364.5,263.5C 364.269,260.937 362.935,259.27 360.5,258.5C 359.544,255.561 357.877,253.228 355.5,251.5C 355.291,250.078 354.791,248.745 354,247.5C 352.281,244.712 350.115,242.379 347.5,240.5C 346.514,244.97 346.181,249.637 346.5,254.5C 349.167,254.5 351.833,254.5 354.5,254.5C 354.5,255.5 354.5,256.5 354.5,257.5C 351.167,257.5 347.833,257.5 344.5,257.5C 344.5,249.833 344.5,242.167 344.5,234.5C 345.833,234.5 347.167,234.5 348.5,234.5 Z M 355.5,251.5 C 355.5,252.167 355.5,252.833 355.5,253.5C 353.167,253.5 350.833,253.5 348.5,253.5C 348.335,250.482 348.502,247.482 349,244.5C 350.719,247.288 352.885,249.621 355.5,251.5 Z"/></g>
<g><path style="opacity:0.639" fill="#808080" d="M 347.5,240.5 C 347.182,245.032 347.515,249.366 348.5,253.5C 350.833,253.5 353.167,253.5 355.5,253.5C 355.768,255.099 355.434,256.432 354.5,257.5C 354.5,256.5 354.5,255.5 354.5,254.5C 351.833,254.5 349.167,254.5 346.5,254.5C 346.181,249.637 346.514,244.97 347.5,240.5 Z"/></g>
<g><path style="opacity:0.08" fill="#e1e1e1" d="M 364.5,234.5 C 364.666,241.841 364.5,249.174 364,256.5C 363.617,255.944 363.117,255.611 362.5,255.5C 360.902,253.302 359.569,250.969 358.5,248.5C 360.451,249.716 361.951,251.382 363,253.5C 363.172,246.987 363.672,240.653 364.5,234.5 Z"/></g>
<g><path style="opacity:0.376" fill="#cfcfcf" d="M 347.5,240.5 C 350.115,242.379 352.281,244.712 354,247.5C 354.791,248.745 355.291,250.078 355.5,251.5C 352.885,249.621 350.719,247.288 349,244.5C 348.502,247.482 348.335,250.482 348.5,253.5C 347.515,249.366 347.182,245.032 347.5,240.5 Z"/></g>
<g><path style="opacity:0.184" fill="#c5c5c5" d="M 352.5,240.5 C 355.471,242.443 357.471,245.109 358.5,248.5C 356.016,246.2 354.016,243.533 352.5,240.5 Z"/></g>
<g><path style="opacity:0.157" fill="#c6c6c6" d="M 348.5,234.5 C 350.822,235.802 352.155,237.802 352.5,240.5C 350.178,239.198 348.845,237.198 348.5,234.5 Z"/></g>
<g><path style="opacity:0.102" fill="#cbcbcb" d="M 390.5,254.5 C 388.618,251.746 386.951,248.746 385.5,245.5C 382.434,249.64 380.434,254.307 379.5,259.5C 378.833,259.5 378.167,259.5 377.5,259.5C 379.189,253.127 381.689,247.127 385,241.5C 387.919,245.343 389.753,249.676 390.5,254.5 Z"/></g>
<g><path style="opacity:0.049" fill="#f2f2f2" d="M 162.5,255.5 C 163.167,255.5 163.833,255.5 164.5,255.5C 163.922,258.28 163.255,260.947 162.5,263.5C 162.5,260.833 162.5,258.167 162.5,255.5 Z"/></g>
<g><path style="opacity:0.697" fill="#636363" d="M 182.5,234.5 C 182.827,244.348 182.494,254.014 181.5,263.5C 181.666,253.828 181.5,244.161 181,234.5C 180.817,237.365 180.317,240.031 179.5,242.5C 179.5,239.833 179.5,237.167 179.5,234.5C 180.5,233.167 181.5,233.167 182.5,234.5 Z"/></g>
<g><path style="opacity:0.231" fill="#bfbfbf" d="M 182.5,234.5 C 183.267,235.172 183.934,236.005 184.5,237C 183.228,244.613 183.228,252.28 184.5,260C 184.176,263.58 182.176,265.08 178.5,264.5C 178.777,261.552 178.444,258.719 177.5,256C 173.179,255.501 168.846,255.334 164.5,255.5C 163.833,255.5 163.167,255.5 162.5,255.5C 167.975,254.511 173.642,254.178 179.5,254.5C 178.945,258.012 179.612,261.012 181.5,263.5C 182.494,254.014 182.827,244.348 182.5,234.5 Z"/></g>
<g><path style="opacity:0.652" fill="#919191" d="M 232.5,234.5 C 230.527,243.775 229.86,253.442 230.5,263.5C 230.167,263.5 229.833,263.5 229.5,263.5C 228.342,254.009 228.175,244.342 229,234.5C 230.292,233.209 231.458,233.209 232.5,234.5 Z"/></g>
<g><path style="opacity:0.008" fill="#cfcfcf" d="M 355.5,251.5 C 357.877,253.228 359.544,255.561 360.5,258.5C 358.605,257.027 356.939,255.36 355.5,253.5C 355.5,252.833 355.5,252.167 355.5,251.5 Z"/></g>
<g><path style="opacity:0.342" fill="#cccccc" d="M 257.5,255.5 C 257.726,258.249 257.393,260.916 256.5,263.5C 255.042,264.782 253.708,264.782 252.5,263.5C 253.5,263.5 254.5,263.5 255.5,263.5C 254.964,260.302 255.631,257.635 257.5,255.5 Z"/></g>
<g><path style="opacity:0.099" fill="#dddddd" d="M 322.5,252.5 C 324.857,252.337 327.19,252.503 329.5,253C 331.037,254.11 331.703,255.61 331.5,257.5C 329.974,254.107 327.307,252.774 323.5,253.5C 323.813,257.042 323.479,260.375 322.5,263.5C 322.5,259.833 322.5,256.167 322.5,252.5 Z"/></g>
<g><path style="opacity:0.02" fill="#cecece" d="M 240.5,251.5 C 242.725,255.235 245.558,258.568 249,261.5C 249.667,262.167 249.667,262.833 249,263.5C 247.274,264.576 245.441,264.743 243.5,264C 240.96,261.795 238.793,259.295 237,256.5C 234.056,258.372 232.889,261.039 233.5,264.5C 231.901,264.768 230.568,264.434 229.5,263.5C 229.833,263.5 230.167,263.5 230.5,263.5C 232.117,262.411 232.95,260.744 233,258.5C 234.062,257.101 235.395,256.101 237,255.5C 239.434,257.934 241.934,260.434 244.5,263C 245.635,263.749 246.635,263.583 247.5,262.5C 245.183,259.683 242.683,257.016 240,254.5C 239.26,253.251 239.427,252.251 240.5,251.5 Z"/></g>
<g><path style="opacity:0.384" fill="#bcbcbc" d="M 331.5,257.5 C 333.796,258.733 335.13,260.733 335.5,263.5C 333.204,262.267 331.87,260.267 331.5,257.5 Z"/></g>
<g><path style="opacity:0.594" fill="#797979" d="M 345.5,260.5 C 345.5,260.167 345.5,259.833 345.5,259.5C 349.846,259.334 354.179,259.501 358.5,260C 359.684,261.145 359.684,262.312 358.5,263.5C 358.167,263.5 357.833,263.5 357.5,263.5C 357.5,262.5 357.5,261.5 357.5,260.5C 353.5,260.5 349.5,260.5 345.5,260.5 Z"/></g>
<g><path style="opacity:1" fill="#171717" d="M 94.5,246.5 C 92.6005,250.302 91.2672,254.302 90.5,258.5C 89.9569,258.56 89.6236,258.893 89.5,259.5C 94.7921,260.495 100.125,260.828 105.5,260.5C 106.268,259.737 106.768,258.737 107,257.5C 107.278,258.416 107.778,259.082 108.5,259.5C 109.434,260.568 109.768,261.901 109.5,263.5C 101.5,263.5 93.5,263.5 85.5,263.5C 87.822,257.541 90.1553,251.541 92.5,245.5C 93.9245,243.969 94.5912,244.302 94.5,246.5 Z"/></g>
<g><path style="opacity:0.4" fill="#aeaeae" d="M 360.5,258.5 C 362.935,259.27 364.269,260.937 364.5,263.5C 362.413,262.415 361.08,260.749 360.5,258.5 Z"/></g>
<g><path style="opacity:0.439" fill="#a0a0a0" d="M 205.5,251.5 C 208.842,256.244 207.509,259.244 201.5,260.5C 201.5,261.5 201.5,262.5 201.5,263.5C 202.5,263.5 203.5,263.5 204.5,263.5C 203.432,264.434 202.099,264.768 200.5,264.5C 200.5,262.833 200.5,261.167 200.5,259.5C 205.124,258.595 206.79,255.929 205.5,251.5 Z"/></g>
<g><path style="opacity:0.914" fill="#161616" d="M 345.5,260.5 C 349.5,260.5 353.5,260.5 357.5,260.5C 357.5,261.5 357.5,262.5 357.5,263.5C 353.167,263.5 348.833,263.5 344.5,263.5C 344.263,262.209 344.596,261.209 345.5,260.5 Z"/></g>
<g><path style="opacity:0.101" fill="#dedede" d="M 92.5,243.5 C 92.5,244.167 92.5,244.833 92.5,245.5C 90.1553,251.541 87.822,257.541 85.5,263.5C 93.5,263.5 101.5,263.5 109.5,263.5C 109.768,261.901 109.434,260.568 108.5,259.5C 108.5,258.833 108.5,258.167 108.5,257.5C 110.043,258.736 111.043,260.402 111.5,262.5C 111.291,263.086 110.957,263.586 110.5,264C 101.833,264.667 93.1667,264.667 84.5,264C 84.1667,263.667 83.8333,263.333 83.5,263C 86.2207,256.323 89.2207,249.823 92.5,243.5 Z"/></g>
<g><path style="opacity:0.589" fill="#696969" d="M 90.5,258.5 C 90.8417,259.338 91.5084,259.672 92.5,259.5C 96.1667,259.5 99.8333,259.5 103.5,259.5C 104.167,259.5 104.833,259.5 105.5,259.5C 105.5,259.833 105.5,260.167 105.5,260.5C 100.125,260.828 94.7921,260.495 89.5,259.5C 89.6236,258.893 89.9569,258.56 90.5,258.5 Z"/></g>
<g><path style="opacity:0.099" fill="#d3d3d3" d="M 293.5,234.5 C 292.542,234.953 291.708,235.619 291,236.5C 287.307,245.417 284.141,254.417 281.5,263.5C 288.833,263.5 296.167,263.5 303.5,263.5C 302.231,257.363 300.564,251.363 298.5,245.5C 302.552,251.172 304.885,257.338 305.5,264C 296.833,264.667 288.167,264.667 279.5,264C 279.043,263.586 278.709,263.086 278.5,262.5C 282.626,253.623 286.459,244.623 290,235.5C 291.041,233.689 292.207,233.355 293.5,234.5 Z M 294.5,246.5 C 296.234,250.702 297.567,255.035 298.5,259.5C 294.5,259.5 290.5,259.5 286.5,259.5C 287.942,254.614 289.942,249.947 292.5,245.5C 293.183,245.863 293.85,246.196 294.5,246.5 Z"/></g>
<g><path style="opacity:0.594" fill="#7f7f7f" d="M 294.5,246.5 C 297.819,250.414 299.819,255.08 300.5,260.5C 295.167,260.5 289.833,260.5 284.5,260.5C 284.263,259.209 284.596,258.209 285.5,257.5C 285.328,258.492 285.662,259.158 286.5,259.5C 290.5,259.5 294.5,259.5 298.5,259.5C 297.567,255.035 296.234,250.702 294.5,246.5 Z"/></g>
<g><path style="opacity:0.094" fill="#dadada" d="M 345.5,259.5 C 345.5,259.833 345.5,260.167 345.5,260.5C 344.596,261.209 344.263,262.209 344.5,263.5C 348.833,263.5 353.167,263.5 357.5,263.5C 357.833,263.5 358.167,263.5 358.5,263.5C 353.684,264.65 348.684,264.816 343.5,264C 341.944,261.499 342.611,259.999 345.5,259.5 Z"/></g>
<g><path style="opacity:0.096" fill="#dcdcdc" d="M 378.5,247.5 C 376.78,252.86 375.113,258.193 373.5,263.5C 381.528,263.831 389.528,263.498 397.5,262.5C 395.895,259.686 394.895,256.686 394.5,253.5C 396.392,256.276 398.059,259.276 399.5,262.5C 399.291,263.086 398.957,263.586 398.5,264C 389.833,264.667 381.167,264.667 372.5,264C 372.043,263.586 371.709,263.086 371.5,262.5C 373.078,257.017 375.412,252.017 378.5,247.5 Z"/></g>
<g><path style="opacity:0.587" fill="#757575" d="M 390.5,254.5 C 392.539,255.911 393.539,257.911 393.5,260.5C 387.974,260.821 382.64,260.488 377.5,259.5C 378.167,259.5 378.833,259.5 379.5,259.5C 383.5,259.5 387.5,259.5 391.5,259.5C 391.371,257.784 391.038,256.117 390.5,254.5 Z"/></g>
<g><path style="opacity:0.1" fill="#d0d0d0" d="M 418.5,256.5 C 421.137,258.482 422.47,261.148 422.5,264.5C 417.532,264.957 414.866,262.624 414.5,257.5C 416.419,259.478 418.252,261.478 420,263.5C 420.5,263.333 421,263.167 421.5,263C 420.086,261.007 419.086,258.84 418.5,256.5 Z"/></g>
<g><path style="opacity:1" fill="#111111" d="M 64.5,271.5 C 71.5,271.5 78.5,271.5 85.5,271.5C 85.353,289.845 85.6863,308.179 86.5,326.5C 78.8333,326.5 71.1667,326.5 63.5,326.5C 64.2262,308.176 64.5596,289.842 64.5,271.5 Z"/></g>
<g><path style="opacity:1" fill="#1d1d1d" d="M 216.5,309.5 C 216.738,311.404 217.738,312.738 219.5,313.5C 236.48,328.386 254.813,330.386 274.5,319.5C 276.587,318.415 277.92,316.749 278.5,314.5C 286.566,297.651 283.232,283.485 268.5,272C 276.188,271.169 283.855,271.335 291.5,272.5C 298.706,290.634 295.706,306.801 282.5,321C 272.674,328.042 261.674,331.208 249.5,330.5C 235.677,331.301 223.344,327.634 212.5,319.5C 212.027,318.094 211.027,317.427 209.5,317.5C 197.258,307.006 189.091,294.006 185,278.5C 189.088,276.206 193.255,274.039 197.5,272C 198.944,271.219 200.277,271.386 201.5,272.5C 203.586,286.11 208.586,298.443 216.5,309.5 Z"/></g>
<g><path style="opacity:1" fill="#0c0c0c" d="M 318.5,271.5 C 325.167,271.5 331.833,271.5 338.5,271.5C 338.279,289.878 338.946,308.212 340.5,326.5C 332.5,326.5 324.5,326.5 316.5,326.5C 317.741,308.192 318.408,289.859 318.5,271.5 Z"/></g>
<g><path style="opacity:1" fill="#101010" d="M 402.5,276.5 C 402.427,278.027 403.094,279.027 404.5,279.5C 405.833,280.167 406.833,281.167 407.5,282.5C 407.427,284.027 408.094,285.027 409.5,285.5C 410.5,285.833 411.167,286.5 411.5,287.5C 411.427,289.027 412.094,290.027 413.5,290.5C 414.5,290.833 415.167,291.5 415.5,292.5C 415.427,294.027 416.094,295.027 417.5,295.5C 418.5,295.833 419.167,296.5 419.5,297.5C 419.427,299.027 420.094,300.027 421.5,300.5C 424.295,302.751 426.628,305.418 428.5,308.5C 428.738,310.404 429.738,311.738 431.5,312.5C 436.331,317.163 441.331,321.663 446.5,326C 435.818,326.832 425.151,326.666 414.5,325.5C 401.261,307.258 387.261,289.591 372.5,272.5C 381.482,271.335 390.482,271.168 399.5,272C 400.386,273.615 401.386,275.115 402.5,276.5 Z"/></g>
<g><path style="opacity:0.776" fill="#848484" d="M 402.5,276.5 C 403.906,276.973 404.573,277.973 404.5,279.5C 403.094,279.027 402.427,278.027 402.5,276.5 Z"/></g>
<g><path style="opacity:0.671" fill="#9d9d9d" d="M 407.5,282.5 C 408.906,282.973 409.573,283.973 409.5,285.5C 408.094,285.027 407.427,284.027 407.5,282.5 Z"/></g>
<g><path style="opacity:0.702" fill="#969696" d="M 411.5,287.5 C 412.906,287.973 413.573,288.973 413.5,290.5C 412.094,290.027 411.427,289.027 411.5,287.5 Z"/></g>
<g><path style="opacity:0.733" fill="#8e8e8e" d="M 415.5,292.5 C 416.906,292.973 417.573,293.973 417.5,295.5C 416.094,295.027 415.427,294.027 415.5,292.5 Z"/></g>
<g><path style="opacity:0.761" fill="#878787" d="M 419.5,297.5 C 420.906,297.973 421.573,298.973 421.5,300.5C 420.094,300.027 419.427,299.027 419.5,297.5 Z"/></g>
<g><path style="opacity:0.761" fill="#919191" d="M 428.5,308.5 C 430.262,309.262 431.262,310.596 431.5,312.5C 429.738,311.738 428.738,310.404 428.5,308.5 Z"/></g>
<g><path style="opacity:0.722" fill="#979797" d="M 216.5,309.5 C 218.262,310.262 219.262,311.596 219.5,313.5C 217.738,312.738 216.738,311.404 216.5,309.5 Z"/></g>
<g><path style="opacity:0.714" fill="#929292" d="M 209.5,317.5 C 211.027,317.427 212.027,318.094 212.5,319.5C 210.973,319.573 209.973,318.906 209.5,317.5 Z"/></g>
<g><path style="opacity:0.659" fill="#8f8f8f" d="M 278.5,314.5 C 277.92,316.749 276.587,318.415 274.5,319.5C 275.08,317.251 276.413,315.585 278.5,314.5 Z"/></g>
<g><path style="opacity:1" fill="#090909" d="M 47.5,342.5 C 53.5,342.5 59.5,342.5 65.5,342.5C 65.8333,344.833 67.1667,346.167 69.5,346.5C 80.17,358.188 92.5033,367.521 106.5,374.5C 108.033,376.245 110.033,377.245 112.5,377.5C 114.696,378.763 117.03,379.763 119.5,380.5C 120.895,382.3 122.561,382.634 124.5,381.5C 124.043,380.702 123.376,380.369 122.5,380.5C 116.992,376.651 111.992,372.151 107.5,367C 106.5,366.667 105.5,366.333 104.5,366C 99.3877,360.38 94.221,354.88 89,349.5C 87.2765,347.283 85.7765,344.95 84.5,342.5C 91.5,342.5 98.5,342.5 105.5,342.5C 106.833,344.5 108.5,346.167 110.5,347.5C 112.76,352.095 116.093,355.762 120.5,358.5C 120.682,361.703 122.348,363.536 125.5,364C 153.446,391.058 186.779,407.558 225.5,413.5C 225.577,414.75 226.244,415.583 227.5,416C 217.839,416.5 208.172,416.666 198.5,416.5C 197.5,416.5 196.5,416.5 195.5,416.5C 195.082,415.778 194.416,415.278 193.5,415C 182.562,413.306 171.562,412.139 160.5,411.5C 146.724,408.591 133.391,404.591 120.5,399.5C 118.625,397.761 116.292,396.761 113.5,396.5C 112.833,396.833 112.167,397.167 111.5,397.5C 112.577,398.705 113.91,399.372 115.5,399.5C 118.333,402.333 121.666,404.333 125.5,405.5C 130.678,408.747 136.011,411.913 141.5,415C 161.035,422.93 181.368,428.097 202.5,430.5C 214.993,431.66 227.66,431.827 240.5,431C 241.416,430.722 242.082,430.222 242.5,429.5C 244.5,429.5 246.5,429.5 248.5,429.5C 252.04,429.247 255.373,428.581 258.5,427.5C 262.479,427.258 266.146,426.258 269.5,424.5C 271.553,424.598 273.22,423.931 274.5,422.5C 279.538,422.223 284.205,420.89 288.5,418.5C 290.898,418.741 292.898,418.074 294.5,416.5C 299.741,414.708 304.408,412.041 308.5,408.5C 311.406,408.043 314.072,407.043 316.5,405.5C 320.689,404.786 324.022,402.786 326.5,399.5C 332.204,395.645 337.537,391.311 342.5,386.5C 347.607,382.568 352.607,378.401 357.5,374C 361.42,370.253 364.753,366.086 367.5,361.5C 371.922,357.413 375.589,352.746 378.5,347.5C 380.25,346.341 381.25,344.674 381.5,342.5C 385.5,342.5 389.5,342.5 393.5,342.5C 392.378,347.401 390.711,352.068 388.5,356.5C 387.185,357.476 385.852,358.476 384.5,359.5C 356.387,406.026 316.053,435.36 263.5,447.5C 255.069,449.269 246.735,450.936 238.5,452.5C 226.5,452.5 214.5,452.5 202.5,452.5C 196.536,451.33 190.536,449.83 184.5,448C 181.854,447.503 179.187,447.336 176.5,447.5C 167.845,445.171 159.178,442.838 150.5,440.5C 150.027,439.094 149.027,438.427 147.5,438.5C 144.965,435.413 141.632,433.746 137.5,433.5C 127.667,429.31 118.334,424.31 109.5,418.5C 86.7076,401.199 67.8742,380.199 53,355.5C 50.6702,351.334 48.8369,347.001 47.5,342.5 Z M 111.5,375.5 C 111.167,375.5 110.833,375.5 110.5,375.5C 110.511,372.999 111.178,372.832 112.5,375C 112.272,375.399 111.938,375.565 111.5,375.5 Z"/></g>
<g><path style="opacity:0.894" fill="#666666" d="M 65.5,342.5 C 67.1788,342.285 68.1788,342.952 68.5,344.5C 68.8333,345.167 69.1667,345.833 69.5,346.5C 67.1667,346.167 65.8333,344.833 65.5,342.5 Z"/></g>
<g><path style="opacity:1" fill="#0b0b0b" d="M 414.5,342.5 C 421.833,342.5 429.167,342.5 436.5,342.5C 408.858,410.821 358.858,451.488 286.5,464.5C 282.21,464.198 278.21,464.864 274.5,466.5C 271.5,466.5 268.5,466.5 265.5,466.5C 261.958,466.813 258.625,466.479 255.5,465.5C 255.833,465.5 256.167,465.5 256.5,465.5C 260.182,465.665 263.848,465.499 267.5,465C 268.056,464.617 268.389,464.117 268.5,463.5C 270.5,463.5 272.5,463.5 274.5,463.5C 277.839,463.11 281.173,462.61 284.5,462C 285.056,461.617 285.389,461.117 285.5,460.5C 285.833,460.5 286.167,460.5 286.5,460.5C 288.801,459.94 291.134,459.44 293.5,459C 294.056,458.617 294.389,458.117 294.5,457.5C 299.422,455.637 304.422,453.97 309.5,452.5C 313.625,450.494 317.625,448.494 321.5,446.5C 322.5,446.167 323.167,445.5 323.5,444.5C 330.584,442.125 336.917,438.458 342.5,433.5C 346.982,431.904 350.649,429.237 353.5,425.5C 359.582,420.934 365.582,416.1 371.5,411C 380.044,401.458 388.21,391.625 396,381.5C 398.978,376.729 401.478,371.729 403.5,366.5C 403.5,366.167 403.5,365.833 403.5,365.5C 405.539,364.089 406.539,362.089 406.5,359.5C 410.492,354.513 413.159,348.846 414.5,342.5 Z"/></g>
<g><path style="opacity:0.259" fill="#c8c8c8" d="M 105.5,342.5 C 108.167,343.167 109.833,344.833 110.5,347.5C 108.5,346.167 106.833,344.5 105.5,342.5 Z"/></g>
<g><path style="opacity:0.129" fill="#d3d3d3" d="M 381.5,342.5 C 381.25,344.674 380.25,346.341 378.5,347.5C 378.259,344.966 379.259,343.3 381.5,342.5 Z"/></g>
<g><path style="opacity:0.149" fill="#cacbcb" d="M 414.5,342.5 C 413.159,348.846 410.492,354.513 406.5,359.5C 408.429,353.353 411.096,347.687 414.5,342.5 Z"/></g>
<g><path style="opacity:0.067" fill="#d5d5d5" d="M 393.5,342.5 C 394.552,342.351 395.552,342.517 396.5,343C 394.168,347.851 391.502,352.351 388.5,356.5C 390.711,352.068 392.378,347.401 393.5,342.5 Z"/></g>
<g><path style="opacity:0.188" fill="#cecece" d="M 110.5,347.5 C 114.515,350.516 117.848,354.183 120.5,358.5C 116.093,355.762 112.76,352.095 110.5,347.5 Z"/></g>
<g><path style="opacity:0.153" fill="#cfcfcf" d="M 378.5,347.5 C 375.589,352.746 371.922,357.413 367.5,361.5C 370.084,357.067 372.918,352.734 376,348.5C 376.671,347.748 377.504,347.414 378.5,347.5 Z"/></g>
<g><path style="opacity:0.082" fill="#dcdcdc" d="M 406.5,359.5 C 406.539,362.089 405.539,364.089 403.5,365.5C 403.755,363.033 404.755,361.033 406.5,359.5 Z"/></g>
<g><path style="opacity:0.153" fill="#bcbcbc" d="M 388.5,356.5 C 361.48,403.879 321.48,434.712 268.5,449C 263.227,450.288 257.894,451.122 252.5,451.5C 256.167,450.167 259.833,448.833 263.5,447.5C 316.053,435.36 356.387,406.026 384.5,359.5C 385.852,358.476 387.185,357.476 388.5,356.5 Z"/></g>
<g><path style="opacity:0.18" fill="#d1d1d1" d="M 367.5,361.5 C 364.753,366.086 361.42,370.253 357.5,374C 352.607,378.401 347.607,382.568 342.5,386.5C 350.527,377.806 358.86,369.473 367.5,361.5 Z"/></g>
<g><path style="opacity:0.043" fill="#c6c6c6" d="M 84.5,342.5 C 85.7765,344.95 87.2765,347.283 89,349.5C 94.221,354.88 99.3877,360.38 104.5,366C 105.5,366.333 106.5,366.667 107.5,367C 111.992,372.151 116.992,376.651 122.5,380.5C 121.5,380.5 120.5,380.5 119.5,380.5C 117.03,379.763 114.696,378.763 112.5,377.5C 112.167,376.833 111.833,376.167 111.5,375.5C 111.938,375.565 112.272,375.399 112.5,375C 111.178,372.832 110.511,372.999 110.5,375.5C 109.167,375.167 107.833,374.833 106.5,374.5C 92.5033,367.521 80.17,358.188 69.5,346.5C 69.1667,345.833 68.8333,345.167 68.5,344.5C 75.0777,350.062 81.7444,355.729 88.5,361.5C 95.1169,366.314 102.117,370.148 109.5,373C 99.4328,363.602 90.0995,353.602 81.5,343C 82.448,342.517 83.448,342.351 84.5,342.5 Z M 111.5,375.5 C 111.167,375.5 110.833,375.5 110.5,375.5C 110.511,372.999 111.178,372.832 112.5,375C 112.272,375.399 111.938,375.565 111.5,375.5 Z"/></g>
<g><path style="opacity:0.4" fill="#808080" d="M 106.5,374.5 C 107.833,374.833 109.167,375.167 110.5,375.5C 110.833,375.5 111.167,375.5 111.5,375.5C 111.833,376.167 112.167,376.833 112.5,377.5C 110.033,377.245 108.033,376.245 106.5,374.5 Z"/></g>
<g><path style="opacity:0.616" fill="#646464" d="M 119.5,380.5 C 120.5,380.5 121.5,380.5 122.5,380.5C 123.376,380.369 124.043,380.702 124.5,381.5C 122.561,382.634 120.895,382.3 119.5,380.5 Z"/></g>
<g><path style="opacity:0.059" fill="#cdcdcd" d="M 47.5,342.5 C 48.8369,347.001 50.6702,351.334 53,355.5C 67.8742,380.199 86.7076,401.199 109.5,418.5C 108.448,418.649 107.448,418.483 106.5,418C 79.9212,398.427 59.5879,373.76 45.5,344C 45.8361,342.97 46.5028,342.47 47.5,342.5 Z"/></g>
<g><path style="opacity:0.473" fill="#707070" d="M 120.5,399.5 C 118.666,398.506 116.999,398.506 115.5,399.5C 113.91,399.372 112.577,398.705 111.5,397.5C 112.167,397.167 112.833,396.833 113.5,396.5C 116.292,396.761 118.625,397.761 120.5,399.5 Z"/></g>
<g><path style="opacity:0.133" fill="#d2d2d2" d="M 342.5,386.5 C 337.537,391.311 332.204,395.645 326.5,399.5C 323.903,401.594 320.903,402.927 317.5,403.5C 325.652,397.589 333.985,391.922 342.5,386.5 Z"/></g>
<g><path style="opacity:0.969" fill="#484848" d="M 326.5,399.5 C 324.022,402.786 320.689,404.786 316.5,405.5C 316.833,404.833 317.167,404.167 317.5,403.5C 320.903,402.927 323.903,401.594 326.5,399.5 Z"/></g>
<g><path style="opacity:0.341" fill="#c9c9c9" d="M 403.5,366.5 C 401.478,371.729 398.978,376.729 396,381.5C 388.21,391.625 380.044,401.458 371.5,411C 365.582,416.1 359.582,420.934 353.5,425.5C 362.004,417.5 370.504,409.166 379,400.5C 387.87,389.496 396.037,378.163 403.5,366.5 Z"/></g>
<g><path style="opacity:0.184" fill="#d3d3d3" d="M 115.5,399.5 C 116.999,398.506 118.666,398.506 120.5,399.5C 133.391,404.591 146.724,408.591 160.5,411.5C 166.167,412.833 171.833,414.167 177.5,415.5C 172.464,415.412 167.464,414.912 162.5,414C 152.31,410.796 141.977,408.296 131.5,406.5C 130.833,405.167 130.167,405.167 129.5,406.5C 128.167,406.167 126.833,405.833 125.5,405.5C 121.666,404.333 118.333,402.333 115.5,399.5 Z"/></g>
<g><path style="opacity:0.251" fill="#bdbdbd" d="M 120.5,358.5 C 155.161,391.465 196.495,410.298 244.5,415C 245.833,415.667 245.833,416.333 244.5,417C 223.521,418.882 202.521,418.882 181.5,417C 180.263,416.768 179.263,416.268 178.5,415.5C 184.172,415.76 189.839,416.093 195.5,416.5C 196.5,416.5 197.5,416.5 198.5,416.5C 212.353,417.742 226.353,417.575 240.5,416C 235.46,415.322 230.46,414.489 225.5,413.5C 186.779,407.558 153.446,391.058 125.5,364C 122.348,363.536 120.682,361.703 120.5,358.5 Z"/></g>
<g><path style="opacity:0.11" fill="#d6d6d6" d="M 317.5,403.5 C 317.167,404.167 316.833,404.833 316.5,405.5C 314.072,407.043 311.406,408.043 308.5,408.5C 311.22,406.473 314.22,404.807 317.5,403.5 Z"/></g>
<g><path style="opacity:0.075" fill="#cbcbcb" d="M 308.5,408.5 C 304.408,412.041 299.741,414.708 294.5,416.5C 292.102,416.259 290.102,416.926 288.5,418.5C 284.205,420.89 279.538,422.223 274.5,422.5C 285.665,417.661 296.999,412.994 308.5,408.5 Z"/></g>
<g><path style="opacity:0.98" fill="#3c3c3c" d="M 160.5,411.5 C 171.562,412.139 182.562,413.306 193.5,415C 194.416,415.278 195.082,415.778 195.5,416.5C 189.839,416.093 184.172,415.76 178.5,415.5C 178.167,415.5 177.833,415.5 177.5,415.5C 171.833,414.167 166.167,412.833 160.5,411.5 Z"/></g>
<g><path style="opacity:0.671" fill="#606060" d="M 225.5,413.5 C 230.46,414.489 235.46,415.322 240.5,416C 226.353,417.575 212.353,417.742 198.5,416.5C 208.172,416.666 217.839,416.5 227.5,416C 226.244,415.583 225.577,414.75 225.5,413.5 Z"/></g>
<g><path style="opacity:0.835" fill="#5a5a5a" d="M 294.5,416.5 C 292.898,418.074 290.898,418.741 288.5,418.5C 290.102,416.926 292.102,416.259 294.5,416.5 Z"/></g>
<g><path style="opacity:0.243" fill="#bababa" d="M 125.5,405.5 C 126.833,405.833 128.167,406.167 129.5,406.5C 130.167,406.5 130.833,406.5 131.5,406.5C 153.31,419.206 176.976,426.539 202.5,428.5C 203.833,429.167 205.167,429.833 206.5,430.5C 205.167,430.5 203.833,430.5 202.5,430.5C 181.368,428.097 161.035,422.93 141.5,415C 136.011,411.913 130.678,408.747 125.5,405.5 Z"/></g>
<g><path style="opacity:0.004" fill="#c0c0c0" d="M 436.5,342.5 C 437.497,342.47 438.164,342.97 438.5,344C 410.171,412.726 359.171,453.726 285.5,467C 272.865,468.459 260.198,468.792 247.5,468C 246.663,466.989 246.33,465.822 246.5,464.5C 249.833,464.5 253.167,464.5 256.5,464.5C 256.5,464.833 256.5,465.167 256.5,465.5C 256.167,465.5 255.833,465.5 255.5,465.5C 251.107,465.457 250.774,465.957 254.5,467C 258.358,467.81 262.024,467.643 265.5,466.5C 268.5,466.5 271.5,466.5 274.5,466.5C 278.733,466.461 282.733,465.795 286.5,464.5C 358.858,451.488 408.858,410.821 436.5,342.5 Z"/></g>
<g><path style="opacity:0.192" fill="#d0d0d0" d="M 274.5,422.5 C 273.22,423.931 271.553,424.598 269.5,424.5C 267.139,424.674 264.806,425.007 262.5,425.5C 266.126,423.502 270.126,422.502 274.5,422.5 Z"/></g>
<g><path style="opacity:0.682" fill="#717171" d="M 269.5,424.5 C 266.146,426.258 262.479,427.258 258.5,427.5C 259.167,426.833 259.833,426.167 260.5,425.5C 261.167,425.5 261.833,425.5 262.5,425.5C 264.806,425.007 267.139,424.674 269.5,424.5 Z"/></g>
<g><path style="opacity:0.82" fill="#555555" d="M 258.5,427.5 C 255.373,428.581 252.04,429.247 248.5,429.5C 248.611,428.883 248.944,428.383 249.5,428C 252.482,427.502 255.482,427.335 258.5,427.5 Z"/></g>
<g><path style="opacity:0.043" fill="#e4e4e4" d="M 260.5,425.5 C 259.833,426.167 259.167,426.833 258.5,427.5C 255.482,427.335 252.482,427.502 249.5,428C 248.944,428.383 248.611,428.883 248.5,429.5C 246.5,429.5 244.5,429.5 242.5,429.5C 230.531,430.416 218.531,430.749 206.5,430.5C 205.167,429.833 203.833,429.167 202.5,428.5C 221.989,430.216 241.322,429.216 260.5,425.5 Z"/></g>
<g><path style="opacity:0.118" fill="#cfcfcf" d="M 109.5,418.5 C 118.334,424.31 127.667,429.31 137.5,433.5C 139.167,434.833 140.833,436.167 142.5,437.5C 134.137,434.486 126.137,430.652 118.5,426C 114.988,423.939 111.988,421.439 109.5,418.5 Z"/></g>
<g><path style="opacity:0.574" fill="#5f5f5f" d="M 242.5,429.5 C 242.082,430.222 241.416,430.722 240.5,431C 227.66,431.827 214.993,431.66 202.5,430.5C 203.833,430.5 205.167,430.5 206.5,430.5C 218.531,430.749 230.531,430.416 242.5,429.5 Z"/></g>
<g><path style="opacity:0.106" fill="#d0d0d0" d="M 353.5,425.5 C 350.649,429.237 346.982,431.904 342.5,433.5C 344.304,430.902 346.638,428.735 349.5,427C 350.745,426.209 352.078,425.709 353.5,425.5 Z"/></g>
<g><path style="opacity:1" fill="#404040" d="M 137.5,433.5 C 141.632,433.746 144.965,435.413 147.5,438.5C 145.883,437.962 144.216,437.629 142.5,437.5C 140.833,436.167 139.167,434.833 137.5,433.5 Z"/></g>
<g><path style="opacity:0.055" fill="#d7d7d7" d="M 142.5,437.5 C 144.216,437.629 145.883,437.962 147.5,438.5C 149.027,438.427 150.027,439.094 150.5,440.5C 147.351,440.585 144.684,439.585 142.5,437.5 Z"/></g>
<g><path style="opacity:0.153" fill="#cacaca" d="M 342.5,433.5 C 336.917,438.458 330.584,442.125 323.5,444.5C 329.581,440.423 335.915,436.757 342.5,433.5 Z"/></g>
<g><path style="opacity:0.11" fill="#d3d3d3" d="M 323.5,444.5 C 323.167,445.5 322.5,446.167 321.5,446.5C 320.292,447.234 318.959,447.567 317.5,447.5C 319.033,445.755 321.033,444.755 323.5,444.5 Z"/></g>
<g><path style="opacity:0.247" fill="#cacaca" d="M 150.5,440.5 C 159.178,442.838 167.845,445.171 176.5,447.5C 180.582,448.623 184.582,449.956 188.5,451.5C 174.97,449.96 162.303,446.293 150.5,440.5 Z"/></g>
<g><path style="opacity:0.706" fill="#5f5f5f" d="M 176.5,447.5 C 179.187,447.336 181.854,447.503 184.5,448C 190.536,449.83 196.536,451.33 202.5,452.5C 198.143,452.414 193.81,452.08 189.5,451.5C 189.167,451.5 188.833,451.5 188.5,451.5C 184.582,449.956 180.582,448.623 176.5,447.5 Z"/></g>
<g><path style="opacity:0.38" fill="#777777" d="M 263.5,447.5 C 259.833,448.833 256.167,450.167 252.5,451.5C 252.167,451.5 251.833,451.5 251.5,451.5C 247.19,452.08 242.857,452.414 238.5,452.5C 246.735,450.936 255.069,449.269 263.5,447.5 Z"/></g>
<g><path style="opacity:0.663" fill="#8d8d8d" d="M 321.5,446.5 C 317.625,448.494 313.625,450.494 309.5,452.5C 309.833,451.833 310.167,451.167 310.5,450.5C 312.461,448.688 314.794,447.688 317.5,447.5C 318.959,447.567 320.292,447.234 321.5,446.5 Z"/></g>
<g><path style="opacity:0.2" fill="#cecece" d="M 189.5,451.5 C 193.81,452.08 198.143,452.414 202.5,452.5C 214.5,452.5 226.5,452.5 238.5,452.5C 242.857,452.414 247.19,452.08 251.5,451.5C 251.082,452.222 250.416,452.722 249.5,453C 230.17,454.963 210.836,454.963 191.5,453C 190.584,452.722 189.918,452.222 189.5,451.5 Z"/></g>
<g><path style="opacity:0.016" fill="#dedede" d="M 310.5,450.5 C 310.167,451.167 309.833,451.833 309.5,452.5C 304.422,453.97 299.422,455.637 294.5,457.5C 292.883,458.038 291.216,458.371 289.5,458.5C 289.611,457.883 289.944,457.383 290.5,457C 297.278,455.13 303.944,452.963 310.5,450.5 Z"/></g>
<g><path style="opacity:0.169" fill="#d0d0d0" d="M 287.5,458.5 C 287.167,459.167 286.833,459.833 286.5,460.5C 286.167,460.5 285.833,460.5 285.5,460.5C 283.236,461.219 280.903,461.552 278.5,461.5C 281.189,459.883 284.189,458.883 287.5,458.5 Z"/></g>
<g><path style="opacity:0.624" fill="#6b6b6b" d="M 294.5,457.5 C 294.389,458.117 294.056,458.617 293.5,459C 291.134,459.44 288.801,459.94 286.5,460.5C 286.833,459.833 287.167,459.167 287.5,458.5C 288.167,458.5 288.833,458.5 289.5,458.5C 291.216,458.371 292.883,458.038 294.5,457.5 Z"/></g>
<g><path style="opacity:0.824" fill="#545454" d="M 285.5,460.5 C 285.389,461.117 285.056,461.617 284.5,462C 281.173,462.61 277.839,463.11 274.5,463.5C 275.167,462.833 275.833,462.167 276.5,461.5C 277.167,461.5 277.833,461.5 278.5,461.5C 280.903,461.552 283.236,461.219 285.5,460.5 Z"/></g>
<g><path style="opacity:0.051" fill="#e2e2e2" d="M 276.5,461.5 C 275.833,462.167 275.167,462.833 274.5,463.5C 272.5,463.5 270.5,463.5 268.5,463.5C 266.139,463.674 263.806,464.007 261.5,464.5C 261.918,463.778 262.584,463.278 263.5,463C 267.848,462.535 272.181,462.035 276.5,461.5 Z"/></g>
<g><path style="opacity:0.761" fill="#777777" d="M 268.5,463.5 C 268.389,464.117 268.056,464.617 267.5,465C 263.848,465.499 260.182,465.665 256.5,465.5C 256.5,465.167 256.5,464.833 256.5,464.5C 258.167,464.5 259.833,464.5 261.5,464.5C 263.806,464.007 266.139,463.674 268.5,463.5 Z"/></g>
<g><path style="opacity:0.635" fill="#5a5b5b" d="M 286.5,464.5 C 282.733,465.795 278.733,466.461 274.5,466.5C 278.21,464.864 282.21,464.198 286.5,464.5 Z"/></g>
<g><path style="opacity:0.416" fill="#929293" d="M 255.5,465.5 C 258.625,466.479 261.958,466.813 265.5,466.5C 262.024,467.643 258.358,467.81 254.5,467C 250.774,465.957 251.107,465.457 255.5,465.5 Z"/></g>
</svg>
