<?xml version="1.0" encoding="UTF-8"?>
<!DOCTYPE svg PUBLIC "-//W3C//DTD SVG 1.1//EN" "http://www.w3.org/Graphics/SVG/1.1/DTD/svg11.dtd">
<svg xmlns="http://www.w3.org/2000/svg" version="1.1" width="500px" height="500px" style="shape-rendering:geometricPrecision; text-rendering:geometricPrecision; image-rendering:optimizeQuality; fill-rule:evenodd; clip-rule:evenodd" xmlns:xlink="http://www.w3.org/1999/xlink">
<g><path style="opacity:0.086" fill="#151515" d="M 219.5,31.5 C 227.323,30.3439 235.323,30.1772 243.5,31C 244.337,32.0113 244.67,33.1779 244.5,34.5C 240.833,34.5 237.167,34.5 233.5,34.5C 235.292,33.6909 237.292,33.1909 239.5,33C 232.924,31.6226 226.257,31.1226 219.5,31.5 Z"/></g>
<g><path style="opacity:0.217" fill="#3d3d3d" d="M 219.5,31.5 C 226.257,31.1226 232.924,31.6226 239.5,33C 237.292,33.1909 235.292,33.6909 233.5,34.5C 223.428,36.2237 213.428,38.2237 203.5,40.5C 204.574,38.716 206.24,37.5494 208.5,37C 216.235,35.9888 223.901,34.6554 231.5,33C 225.167,32.3333 218.833,32.3333 212.5,33C 202.12,34.6964 191.786,36.5298 181.5,38.5C 179.883,39.038 178.216,39.3713 176.5,39.5C 180.514,37.3704 184.848,35.8704 189.5,35C 199.514,33.4716 209.514,32.3049 219.5,31.5 Z"/></g>
<g><path style="opacity:1" fill="#f3f3f3" d="M 203.5,40.5 C 196.932,40.7717 190.932,42.605 185.5,46C 180.742,46.061 177.075,47.8943 174.5,51.5C 171.911,51.461 169.911,52.461 168.5,54.5C 160.147,57.8446 152.147,62.0113 144.5,67C 120.709,84.7898 101.542,106.623 87,132.5C 86.338,134.813 85.838,137.146 85.5,139.5C 83.7497,140.659 82.7497,142.326 82.5,144.5C 80.5501,146.43 79.2167,148.763 78.5,151.5C 71.4684,151.83 64.4684,151.497 57.5,150.5C 61.1206,142.929 64.454,135.262 67.5,127.5C 69.2503,126.341 70.2503,124.674 70.5,122.5C 72.9501,120.371 74.6167,117.704 75.5,114.5C 77.1927,113.525 78.6927,112.192 80,110.5C 82.0222,106.997 84.1888,103.663 86.5,100.5C 94.6081,91.5598 103.275,83.0598 112.5,75C 117.712,70.948 123.045,67.1146 128.5,63.5C 131.704,62.6167 134.371,60.9501 136.5,58.5C 137.694,57.7281 138.694,56.7281 139.5,55.5C 142.406,55.0435 145.072,54.0435 147.5,52.5C 153.048,50.4897 158.715,48.6564 164.5,47C 166.063,46.2411 167.063,45.0744 167.5,43.5C 168.167,43.5 168.833,43.5 169.5,43.5C 174.375,43.631 178.375,41.9644 181.5,38.5C 191.786,36.5298 202.12,34.6964 212.5,33C 218.833,32.3333 225.167,32.3333 231.5,33C 223.901,34.6554 216.235,35.9888 208.5,37C 206.24,37.5494 204.574,38.716 203.5,40.5 Z"/></g>
<g><path style="opacity:0.957" fill="#b0b0b0" d="M 181.5,38.5 C 178.375,41.9644 174.375,43.631 169.5,43.5C 171.833,42.1667 174.167,40.8333 176.5,39.5C 178.216,39.3713 179.883,39.038 181.5,38.5 Z"/></g>
<g><path style="opacity:0.098" fill="#232323" d="M 176.5,39.5 C 174.167,40.8333 171.833,42.1667 169.5,43.5C 168.833,43.5 168.167,43.5 167.5,43.5C 163.698,45.3995 159.698,46.7328 155.5,47.5C 161.945,43.6801 168.945,41.0135 176.5,39.5 Z"/></g>
<g><path style="opacity:0.149" fill="#3c3d3c" d="M 203.5,40.5 C 193.752,43.9713 184.085,47.638 174.5,51.5C 177.075,47.8943 180.742,46.061 185.5,46C 190.932,42.605 196.932,40.7717 203.5,40.5 Z"/></g>
<g><path style="opacity:1" fill="#bababa" d="M 167.5,43.5 C 167.063,45.0744 166.063,46.2411 164.5,47C 158.715,48.6564 153.048,50.4897 147.5,52.5C 147.833,51.8333 148.167,51.1667 148.5,50.5C 151.346,50.4484 153.68,49.4484 155.5,47.5C 159.698,46.7328 163.698,45.3995 167.5,43.5 Z"/></g>
<g><path style="opacity:0.663" fill="#7e7d7d" d="M 251.5,46.5 C 246.37,47.9131 241.037,48.9131 235.5,49.5C 236.167,48.8333 236.833,48.1667 237.5,47.5C 238.167,47.5 238.833,47.5 239.5,47.5C 243.466,46.8379 247.466,46.5045 251.5,46.5 Z"/></g>
<g><path style="opacity:1" fill="#f9f7f7" d="M 251.5,46.5 C 277.761,44.3395 303.428,47.0062 328.5,54.5C 330.214,56.0875 332.214,57.4208 334.5,58.5C 338.928,59.6065 343.261,60.9399 347.5,62.5C 356.427,66.194 365.094,70.3606 373.5,75C 378.58,79.0869 383.913,82.7536 389.5,86C 399.305,93.9709 408.638,102.471 417.5,111.5C 417.733,113.062 418.4,114.395 419.5,115.5C 420.725,119.388 423.059,122.388 426.5,124.5C 432.61,132.289 437.944,140.622 442.5,149.5C 435.576,151.463 428.243,152.13 420.5,151.5C 419.833,150.167 418.833,149.167 417.5,148.5C 417.027,147.094 416.027,146.427 414.5,146.5C 414.5,146.167 414.5,145.833 414.5,145.5C 412.557,142.529 409.891,140.529 406.5,139.5C 405.109,137.11 403.109,135.443 400.5,134.5C 399.694,133.272 398.694,132.272 397.5,131.5C 394.782,129.14 391.782,127.14 388.5,125.5C 386.167,124.833 383.833,124.167 381.5,123.5C 381.027,122.094 380.027,121.427 378.5,121.5C 375.421,119.911 372.254,118.244 369,116.5C 368.5,116.833 368,117.167 367.5,117.5C 369.264,119.278 371.264,120.611 373.5,121.5C 377.488,124.485 381.488,127.485 385.5,130.5C 390.833,136.5 396.5,142.167 402.5,147.5C 402.539,148.583 402.873,149.583 403.5,150.5C 396.866,151.497 390.2,151.83 383.5,151.5C 378.474,146.805 373.474,142.139 368.5,137.5C 366.1,134.097 363.1,131.43 359.5,129.5C 355.479,124.904 351.146,120.737 346.5,117C 344.846,116.392 343.179,115.892 341.5,115.5C 340.395,113.777 338.728,112.777 336.5,112.5C 335.71,111.206 334.71,110.039 333.5,109C 330.929,108.099 328.596,106.766 326.5,105C 324.655,103.872 322.655,103.372 320.5,103.5C 315.265,98.5869 308.932,95.9203 301.5,95.5C 297.052,92.4643 292.052,90.7976 286.5,90.5C 286.167,90.5 285.833,90.5 285.5,90.5C 285.389,89.8826 285.056,89.3826 284.5,89C 281.146,88.5448 277.813,88.0448 274.5,87.5C 271.829,85.8819 268.829,85.2153 265.5,85.5C 264.737,84.7321 263.737,84.2321 262.5,84C 258.514,83.5012 254.514,83.3345 250.5,83.5C 256.866,81.9781 264.033,81.3114 272,81.5C 281.503,81.822 291.003,82.1553 300.5,82.5C 314.979,85.6244 329.645,88.291 344.5,90.5C 349.94,92.7202 355.607,94.0536 361.5,94.5C 364.991,96.3401 368.658,98.0067 372.5,99.5C 374.794,101.431 377.461,102.264 380.5,102C 377.822,100.049 375.155,98.2157 372.5,96.5C 369.807,95.4485 367.14,94.4485 364.5,93.5C 364.672,92.5084 364.338,91.8417 363.5,91.5C 359.304,88.3233 354.637,85.99 349.5,84.5C 346.691,82.1034 343.358,80.7701 339.5,80.5C 337.5,80.1667 335.5,79.8333 333.5,79.5C 331.029,77.5567 328.029,76.5567 324.5,76.5C 320.841,74.6578 316.841,73.6578 312.5,73.5C 309.264,72.1347 305.931,71.1347 302.5,70.5C 292.293,68.0354 281.793,67.0354 271,67.5C 264.5,67.6667 258,67.8333 251.5,68C 250.263,68.2321 249.263,68.7321 248.5,69.5C 247.833,69.5 247.167,69.5 246.5,69.5C 243.813,69.3359 241.146,69.5026 238.5,70C 237.584,70.2784 236.918,70.7784 236.5,71.5C 229.337,72.2072 222.337,73.7072 215.5,76C 207.55,79.4793 199.55,82.646 191.5,85.5C 159.454,99.8771 133.454,121.544 113.5,150.5C 109.167,151.833 104.833,151.833 100.5,150.5C 103.582,146.081 106.248,141.415 108.5,136.5C 109.075,134.589 110.075,132.922 111.5,131.5C 114.323,130.008 115.99,127.674 116.5,124.5C 118.588,122.664 119.921,120.331 120.5,117.5C 122.914,116.089 124.581,114.089 125.5,111.5C 127.5,111.5 128.5,110.5 128.5,108.5C 133.446,104.221 138.113,99.5542 142.5,94.5C 143.492,94.6716 144.158,94.3382 144.5,93.5C 148.804,90.878 153.138,88.2114 157.5,85.5C 158.193,84.4822 158.859,83.4822 159.5,82.5C 162.293,80.6 165.293,78.9333 168.5,77.5C 169.193,76.4822 169.859,75.4822 170.5,74.5C 173.546,74.2753 175.879,72.942 177.5,70.5C 178.29,69.5987 179.29,68.9321 180.5,68.5C 184.822,67.7382 188.989,66.4048 193,64.5C 194.975,63.5345 196.475,62.2012 197.5,60.5C 197.833,60.5 198.167,60.5 198.5,60.5C 200.967,60.2451 202.967,59.2451 204.5,57.5C 214.712,54.4307 225.045,51.7641 235.5,49.5C 241.037,48.9131 246.37,47.9131 251.5,46.5 Z M 364.5,93.5 C 363.791,94.404 362.791,94.7373 361.5,94.5C 361.369,93.7611 361.536,93.0944 362,92.5C 362.671,93.2524 363.504,93.5858 364.5,93.5 Z"/></g>
<g><path style="opacity:0.059" fill="#181818" d="M 155.5,47.5 C 153.68,49.4484 151.346,50.4484 148.5,50.5C 150.509,48.9348 152.843,47.9348 155.5,47.5 Z"/></g>
<g><path style="opacity:0.145" fill="#232323" d="M 174.5,51.5 C 173.089,53.539 171.089,54.539 168.5,54.5C 169.911,52.461 171.911,51.461 174.5,51.5 Z"/></g>
<g><path style="opacity:0.067" fill="#2b2b2a" d="M 237.5,47.5 C 236.833,48.1667 236.167,48.8333 235.5,49.5C 225.045,51.7641 214.712,54.4307 204.5,57.5C 203.167,57.8333 201.833,58.1667 200.5,58.5C 200.62,57.4138 201.287,56.7472 202.5,56.5C 213.73,51.9396 225.397,48.9396 237.5,47.5 Z"/></g>
<g><path style="opacity:0.165" fill="#343434" d="M 334.5,55.5 C 332.435,55.4828 330.435,55.1495 328.5,54.5C 303.428,47.0062 277.761,44.3395 251.5,46.5C 247.466,46.5045 243.466,46.8379 239.5,47.5C 239.611,46.8826 239.944,46.3826 240.5,46C 265.354,43.25 290.02,44.25 314.5,49C 321.488,50.5716 328.155,52.7383 334.5,55.5 Z"/></g>
<g><path style="opacity:0.102" fill="#222222" d="M 148.5,50.5 C 148.167,51.1667 147.833,51.8333 147.5,52.5C 145.072,54.0435 142.406,55.0435 139.5,55.5C 142.22,53.4735 145.22,51.8068 148.5,50.5 Z"/></g>
<g><path style="opacity:0.129" fill="#1d1d1d" d="M 139.5,55.5 C 138.694,56.7281 137.694,57.7281 136.5,58.5C 135.833,58.5 135.167,58.5 134.5,58.5C 135.659,56.7497 137.326,55.7497 139.5,55.5 Z"/></g>
<g><path style="opacity:0.145" fill="#2f2e2d" d="M 334.5,55.5 C 337.636,55.6031 340.302,56.6031 342.5,58.5C 339.364,58.3969 336.698,57.3969 334.5,55.5 Z"/></g>
<g><path style="opacity:0.063" fill="#1e1e1e" d="M 199.5,58.5 C 199.167,59.1667 198.833,59.8333 198.5,60.5C 198.167,60.5 197.833,60.5 197.5,60.5C 193.858,62.7477 189.858,64.0811 185.5,64.5C 189.821,61.94 194.488,59.94 199.5,58.5 Z"/></g>
<g><path style="opacity:0.737" fill="#939292" d="M 204.5,57.5 C 202.967,59.2451 200.967,60.2451 198.5,60.5C 198.833,59.8333 199.167,59.1667 199.5,58.5C 199.833,58.5 200.167,58.5 200.5,58.5C 201.833,58.1667 203.167,57.8333 204.5,57.5 Z"/></g>
<g><path style="opacity:0.98" fill="#c6c5c4" d="M 328.5,54.5 C 330.435,55.1495 332.435,55.4828 334.5,55.5C 336.698,57.3969 339.364,58.3969 342.5,58.5C 344.007,59.9755 345.673,61.3088 347.5,62.5C 343.261,60.9399 338.928,59.6065 334.5,58.5C 332.214,57.4208 330.214,56.0875 328.5,54.5 Z"/></g>
<g><path style="opacity:0.494" fill="#616161" d="M 134.5,58.5 C 135.167,58.5 135.833,58.5 136.5,58.5C 134.371,60.9501 131.704,62.6167 128.5,63.5C 128.833,62.8333 129.167,62.1667 129.5,61.5C 130.659,59.7497 132.326,58.7497 134.5,58.5 Z"/></g>
<g><path style="opacity:0.013" fill="#161515" d="M 185.5,64.5 C 183.833,65.8333 182.167,67.1667 180.5,68.5C 179.29,68.9321 178.29,69.5987 177.5,70.5C 175.685,71.6298 173.685,72.2964 171.5,72.5C 175.478,68.8379 180.145,66.1713 185.5,64.5 Z"/></g>
<g><path style="opacity:0.957" fill="#b2b1b1" d="M 197.5,60.5 C 196.475,62.2012 194.975,63.5345 193,64.5C 188.989,66.4048 184.822,67.7382 180.5,68.5C 182.167,67.1667 183.833,65.8333 185.5,64.5C 189.858,64.0811 193.858,62.7477 197.5,60.5 Z"/></g>
<g><path style="opacity:0.902" fill="#acabaa" d="M 302.5,70.5 C 284.529,68.377 266.529,68.0436 248.5,69.5C 249.263,68.7321 250.263,68.2321 251.5,68C 258,67.8333 264.5,67.6667 271,67.5C 281.793,67.0354 292.293,68.0354 302.5,70.5 Z"/></g>
<g><path style="opacity:0.129" fill="#363635" d="M 342.5,58.5 C 368.892,68.2118 391.892,83.2118 411.5,103.5C 413.934,105.921 415.934,108.588 417.5,111.5C 408.638,102.471 399.305,93.9709 389.5,86C 383.913,82.7536 378.58,79.0869 373.5,75C 365.094,70.3606 356.427,66.194 347.5,62.5C 345.673,61.3088 344.007,59.9755 342.5,58.5 Z"/></g>
<g><path style="opacity:0.051" fill="#232323" d="M 302.5,70.5 C 305.931,71.1347 309.264,72.1347 312.5,73.5C 270.275,65.3092 229.608,69.9759 190.5,87.5C 190.833,86.8333 191.167,86.1667 191.5,85.5C 199.55,82.646 207.55,79.4793 215.5,76C 222.337,73.7072 229.337,72.2072 236.5,71.5C 240.122,71.678 243.456,71.0114 246.5,69.5C 247.167,69.5 247.833,69.5 248.5,69.5C 266.529,68.0436 284.529,68.377 302.5,70.5 Z"/></g>
<g><path style="opacity:0.137" fill="#232323" d="M 129.5,61.5 C 129.167,62.1667 128.833,62.8333 128.5,63.5C 123.045,67.1146 117.712,70.948 112.5,75C 103.275,83.0598 94.6081,91.5598 86.5,100.5C 90.0288,94.6252 94.3622,89.2919 99.5,84.5C 108.839,75.8463 118.839,68.1797 129.5,61.5 Z"/></g>
<g><path style="opacity:0.525" fill="#91908f" d="M 246.5,69.5 C 243.456,71.0114 240.122,71.678 236.5,71.5C 236.918,70.7784 237.584,70.2784 238.5,70C 241.146,69.5026 243.813,69.3359 246.5,69.5 Z"/></g>
<g><path style="opacity:0.737" fill="#989696" d="M 177.5,70.5 C 175.879,72.942 173.546,74.2753 170.5,74.5C 170.833,73.8333 171.167,73.1667 171.5,72.5C 173.685,72.2964 175.685,71.6298 177.5,70.5 Z"/></g>
<g><path style="opacity:0.231" fill="#282727" d="M 312.5,73.5 C 316.841,73.6578 320.841,74.6578 324.5,76.5C 320.159,76.3422 316.159,75.3422 312.5,73.5 Z"/></g>
<g><path style="opacity:0.165" fill="#404040" d="M 168.5,54.5 C 132.36,74.6392 104.693,102.973 85.5,139.5C 85.838,137.146 86.338,134.813 87,132.5C 101.542,106.623 120.709,84.7898 144.5,67C 152.147,62.0113 160.147,57.8446 168.5,54.5 Z"/></g>
<g><path style="opacity:0.133" fill="#1b1a1a" d="M 171.5,72.5 C 171.167,73.1667 170.833,73.8333 170.5,74.5C 167.833,75.8333 165.167,77.1667 162.5,78.5C 164.61,75.2709 167.61,73.2709 171.5,72.5 Z"/></g>
<g><path style="opacity:1" fill="#b4b3b2" d="M 170.5,74.5 C 169.859,75.4822 169.193,76.4822 168.5,77.5C 165.293,78.9333 162.293,80.6 159.5,82.5C 160.5,81.1667 161.5,79.8333 162.5,78.5C 165.167,77.1667 167.833,75.8333 170.5,74.5 Z"/></g>
<g><path style="opacity:0.137" fill="#282828" d="M 324.5,76.5 C 328.029,76.5567 331.029,77.5567 333.5,79.5C 330.189,79.117 327.189,78.117 324.5,76.5 Z"/></g>
<g><path style="opacity:0.118" fill="#202020" d="M 162.5,78.5 C 161.5,79.8333 160.5,81.1667 159.5,82.5C 156.833,83.8333 154.167,85.1667 151.5,86.5C 154.226,82.6279 157.893,79.9612 162.5,78.5 Z"/></g>
<g><path style="opacity:0.363" fill="#353535" d="M 332.5,86.5 C 321.832,85.1661 311.165,83.8328 300.5,82.5C 291.003,82.1553 281.503,81.822 272,81.5C 264.033,81.3114 256.866,81.9781 250.5,83.5C 250.5,83.8333 250.5,84.1667 250.5,84.5C 244.604,84.1519 244.271,82.9853 249.5,81C 276.671,79.3947 303.671,80.7281 330.5,85C 331.416,85.2784 332.082,85.7784 332.5,86.5 Z"/></g>
<g><path style="opacity:0.051" fill="#232323" d="M 333.5,79.5 C 335.5,79.8333 337.5,80.1667 339.5,80.5C 339.5,80.8333 339.5,81.1667 339.5,81.5C 337.102,81.7406 335.102,81.0739 333.5,79.5 Z"/></g>
<g><path style="opacity:0.843" fill="#9b9a99" d="M 339.5,81.5 C 339.5,81.1667 339.5,80.8333 339.5,80.5C 343.358,80.7701 346.691,82.1034 349.5,84.5C 348.833,84.5 348.167,84.5 347.5,84.5C 346.833,84.5 346.167,84.5 345.5,84.5C 343.967,82.7549 341.967,81.7549 339.5,81.5 Z"/></g>
<g><path style="opacity:0.043" fill="#1a1a1a" d="M 339.5,81.5 C 341.967,81.7549 343.967,82.7549 345.5,84.5C 343.033,84.2451 341.033,83.2451 339.5,81.5 Z"/></g>
<g><path style="opacity:0.682" fill="#8f8e8d" d="M 250.5,84.5 C 250.5,84.1667 250.5,83.8333 250.5,83.5C 254.514,83.3345 258.514,83.5012 262.5,84C 263.737,84.2321 264.737,84.7321 265.5,85.5C 261.534,84.8379 257.534,84.5045 253.5,84.5C 252.5,84.5 251.5,84.5 250.5,84.5 Z"/></g>
<g><path style="opacity:0.173" fill="#2d2d2c" d="M 253.5,84.5 C 257.534,84.5045 261.534,84.8379 265.5,85.5C 268.829,85.2153 271.829,85.8819 274.5,87.5C 267.227,87.437 260.227,86.437 253.5,84.5 Z"/></g>
<g><path style="opacity:0.063" fill="#1e1d1c" d="M 332.5,86.5 C 336.874,86.5023 340.874,87.5023 344.5,89.5C 340.017,89.4679 336.017,88.4679 332.5,86.5 Z"/></g>
<g><path style="opacity:0.584" fill="#464645" d="M 274.5,87.5 C 277.813,88.0448 281.146,88.5448 284.5,89C 285.056,89.3826 285.389,89.8826 285.5,90.5C 281.43,90.5682 277.763,89.5682 274.5,87.5 Z"/></g>
<g><path style="opacity:0.925" fill="#bbbab9" d="M 300.5,82.5 C 311.165,83.8328 321.832,85.1661 332.5,86.5C 336.017,88.4679 340.017,89.4679 344.5,89.5C 344.5,89.8333 344.5,90.1667 344.5,90.5C 329.645,88.291 314.979,85.6244 300.5,82.5 Z"/></g>
<g><path style="opacity:0.059" fill="#1a1a1a" d="M 151.5,86.5 C 149.473,89.1939 147.139,91.5272 144.5,93.5C 144.158,94.3382 143.492,94.6716 142.5,94.5C 144.233,90.4351 147.233,87.7684 151.5,86.5 Z"/></g>
<g><path style="opacity:0.8" fill="#aaa9a8" d="M 159.5,82.5 C 158.859,83.4822 158.193,84.4822 157.5,85.5C 153.138,88.2114 148.804,90.878 144.5,93.5C 147.139,91.5272 149.473,89.1939 151.5,86.5C 154.167,85.1667 156.833,83.8333 159.5,82.5 Z"/></g>
<g><path style="opacity:0.463" fill="#5f5e5e" d="M 347.5,84.5 C 348.167,84.5 348.833,84.5 349.5,84.5C 354.637,85.99 359.304,88.3233 363.5,91.5C 362.167,91.1667 360.833,90.8333 359.5,90.5C 355.17,89.0632 351.17,87.0632 347.5,84.5 Z"/></g>
<g><path style="opacity:0.224" fill="#363535" d="M 286.5,90.5 C 292.052,90.7976 297.052,92.4643 301.5,95.5C 296.763,94.6325 292.096,93.4658 287.5,92C 286.944,91.6174 286.611,91.1174 286.5,90.5 Z"/></g>
<g><path style="opacity:0.071" fill="#252525" d="M 344.5,90.5 C 344.5,90.1667 344.5,89.8333 344.5,89.5C 349.098,89.9752 353.598,90.9752 358,92.5C 359.03,92.1639 359.53,91.4972 359.5,90.5C 360.833,90.8333 362.167,91.1667 363.5,91.5C 364.338,91.8417 364.672,92.5084 364.5,93.5C 363.504,93.5858 362.671,93.2524 362,92.5C 361.536,93.0944 361.369,93.7611 361.5,94.5C 355.607,94.0536 349.94,92.7202 344.5,90.5 Z"/></g>
<g><path style="opacity:0.02" fill="#262626" d="M 364.5,93.5 C 367.14,94.4485 369.807,95.4485 372.5,96.5C 372.953,97.4584 373.619,98.2917 374.5,99C 373.906,99.4643 373.239,99.631 372.5,99.5C 368.658,98.0067 364.991,96.3401 361.5,94.5C 362.791,94.7373 363.791,94.404 364.5,93.5 Z"/></g>
<g><path style="opacity:0.008" fill="#1f1f1f" d="M 142.5,94.5 C 138.113,99.5542 133.446,104.221 128.5,108.5C 128.709,107.078 129.209,105.745 130,104.5C 134.085,100.899 138.251,97.5659 142.5,94.5 Z"/></g>
<g><path style="opacity:0.537" fill="#525151" d="M 301.5,95.5 C 308.932,95.9203 315.265,98.5869 320.5,103.5C 313.779,101.636 307.446,98.9698 301.5,95.5 Z"/></g>
<g><path style="opacity:0.502" fill="#7b7a7a" d="M 372.5,96.5 C 375.155,98.2157 377.822,100.049 380.5,102C 377.461,102.264 374.794,101.431 372.5,99.5C 373.239,99.631 373.906,99.4643 374.5,99C 373.619,98.2917 372.953,97.4584 372.5,96.5 Z"/></g>
<g><path style="opacity:0.027" fill="#101010" d="M 165.5,101.5 C 165.027,102.906 164.027,103.573 162.5,103.5C 162.973,102.094 163.973,101.427 165.5,101.5 Z"/></g>
<g><path style="opacity:0.016" fill="#1d1d1d" d="M 86.5,100.5 C 84.1888,103.663 82.0222,106.997 80,110.5C 78.6927,112.192 77.1927,113.525 75.5,114.5C 77.7539,108.626 81.4206,103.959 86.5,100.5 Z"/></g>
<g><path style="opacity:0.478" fill="#4d4c4c" d="M 320.5,103.5 C 322.655,103.372 324.655,103.872 326.5,105C 328.596,106.766 330.929,108.099 333.5,109C 334.71,110.039 335.71,111.206 336.5,112.5C 330.683,110.347 325.349,107.347 320.5,103.5 Z"/></g>
<g><path style="opacity:0.129" fill="#262626" d="M 128.5,108.5 C 128.5,110.5 127.5,111.5 125.5,111.5C 125.5,109.5 126.5,108.5 128.5,108.5 Z"/></g>
<g><path style="opacity:0.282" fill="#3d3d3d" d="M 336.5,112.5 C 338.728,112.777 340.395,113.777 341.5,115.5C 339.152,115.408 337.486,114.408 336.5,112.5 Z"/></g>
<g><path style="opacity:0.094" fill="#272626" d="M 417.5,111.5 C 419.997,112.129 421.33,113.796 421.5,116.5C 420.833,116.167 420.167,115.833 419.5,115.5C 418.4,114.395 417.733,113.062 417.5,111.5 Z"/></g>
<g><path style="opacity:0.145" fill="#1e1e1e" d="M 125.5,111.5 C 124.581,114.089 122.914,116.089 120.5,117.5C 121.473,114.865 123.14,112.865 125.5,111.5 Z"/></g>
<g><path style="opacity:0.02" fill="#161616" d="M 421.5,116.5 C 423.5,116.5 424.5,117.5 424.5,119.5C 422.856,119.19 421.856,118.19 421.5,116.5 Z"/></g>
<g><path style="opacity:0.075" fill="#1b1b1b" d="M 75.5,114.5 C 74.6167,117.704 72.9501,120.371 70.5,122.5C 71.3405,119.324 73.0071,116.658 75.5,114.5 Z"/></g>
<g><path style="opacity:0.286" fill="#727171" d="M 378.5,121.5 C 376.666,120.506 374.999,120.506 373.5,121.5C 371.264,120.611 369.264,119.278 367.5,117.5C 368,117.167 368.5,116.833 369,116.5C 372.254,118.244 375.421,119.911 378.5,121.5 Z"/></g>
<g><path style="opacity:0.173" fill="#343332" d="M 120.5,117.5 C 119.921,120.331 118.588,122.664 116.5,124.5C 115.833,124.833 115.167,125.167 114.5,125.5C 115.41,121.935 117.41,119.268 120.5,117.5 Z"/></g>
<g><path style="opacity:0.094" fill="#404040" d="M 341.5,115.5 C 343.179,115.892 344.846,116.392 346.5,117C 351.146,120.737 355.479,124.904 359.5,129.5C 353.129,125.314 347.129,120.647 341.5,115.5 Z"/></g>
<g><path style="opacity:0.047" fill="#1e1e1e" d="M 70.5,122.5 C 70.2503,124.674 69.2503,126.341 67.5,127.5C 67.5923,125.152 68.5923,123.486 70.5,122.5 Z"/></g>
<g><path style="opacity:0.604" fill="#777676" d="M 419.5,115.5 C 420.167,115.833 420.833,116.167 421.5,116.5C 421.856,118.19 422.856,119.19 424.5,119.5C 425.906,119.973 426.573,120.973 426.5,122.5C 426.5,123.167 426.5,123.833 426.5,124.5C 423.059,122.388 420.725,119.388 419.5,115.5 Z"/></g>
<g><path style="opacity:0.094" fill="#2b2b2b" d="M 381.5,123.5 C 383.833,124.167 386.167,124.833 388.5,125.5C 389.5,126.833 390.5,128.167 391.5,129.5C 387.939,127.79 384.606,125.79 381.5,123.5 Z"/></g>
<g><path style="opacity:0.051" fill="#272727" d="M 373.5,121.5 C 374.999,120.506 376.666,120.506 378.5,121.5C 380.027,121.427 381.027,122.094 381.5,123.5C 380.761,123.369 380.094,123.536 379.5,124C 381.756,126.083 383.756,128.25 385.5,130.5C 381.488,127.485 377.488,124.485 373.5,121.5 Z"/></g>
<g><path style="opacity:0.039" fill="#252525" d="M 426.5,122.5 C 427.643,122.908 428.643,123.575 429.5,124.5C 435.09,132.397 439.757,140.73 443.5,149.5C 443.167,149.5 442.833,149.5 442.5,149.5C 437.944,140.622 432.61,132.289 426.5,124.5C 426.5,123.833 426.5,123.167 426.5,122.5 Z"/></g>
<g><path style="opacity:0.549" fill="#9f9f9e" d="M 388.5,125.5 C 391.782,127.14 394.782,129.14 397.5,131.5C 396.833,131.5 396.167,131.5 395.5,131.5C 395.027,130.094 394.027,129.427 392.5,129.5C 392.167,129.5 391.833,129.5 391.5,129.5C 390.5,128.167 389.5,126.833 388.5,125.5 Z"/></g>
<g><path style="opacity:0.714" fill="#929191" d="M 116.5,124.5 C 115.99,127.674 114.323,130.008 111.5,131.5C 112.5,129.5 113.5,127.5 114.5,125.5C 115.167,125.167 115.833,124.833 116.5,124.5 Z"/></g>
<g><path style="opacity:0.11" fill="#272727" d="M 392.5,129.5 C 394.027,129.427 395.027,130.094 395.5,131.5C 393.821,131.715 392.821,131.048 392.5,129.5 Z"/></g>
<g><path style="opacity:0.361" fill="#474747" d="M 191.5,85.5 C 191.167,86.1667 190.833,86.8333 190.5,87.5C 182.15,92.1947 173.816,96.8614 165.5,101.5C 163.973,101.427 162.973,102.094 162.5,103.5C 143.974,117.193 127.974,133.359 114.5,152C 109.177,152.499 103.844,152.666 98.5,152.5C 99.8328,146.503 102.499,141.17 106.5,136.5C 107.167,136.5 107.833,136.5 108.5,136.5C 106.248,141.415 103.582,146.081 100.5,150.5C 104.833,151.833 109.167,151.833 113.5,150.5C 133.454,121.544 159.454,99.8771 191.5,85.5 Z"/></g>
<g><path style="opacity:0.188" fill="#282828" d="M 359.5,129.5 C 363.1,131.43 366.1,134.097 368.5,137.5C 364.854,135.518 361.854,132.851 359.5,129.5 Z"/></g>
<g><path style="opacity:0.094" fill="#252524" d="M 395.5,131.5 C 396.167,131.5 396.833,131.5 397.5,131.5C 398.694,132.272 399.694,133.272 400.5,134.5C 398.067,134.727 396.401,133.727 395.5,131.5 Z"/></g>
<g><path style="opacity:0.09" fill="#1b1b1b" d="M 114.5,125.5 C 113.5,127.5 112.5,129.5 111.5,131.5C 110.075,132.922 109.075,134.589 108.5,136.5C 107.833,136.5 107.167,136.5 106.5,136.5C 108.4,132.268 111.067,128.601 114.5,125.5 Z"/></g>
<g><path style="opacity:0.02" fill="#1c1c1c" d="M 400.5,134.5 C 403.109,135.443 405.109,137.11 406.5,139.5C 403.865,138.527 401.865,136.86 400.5,134.5 Z"/></g>
<g><path style="opacity:0.149" fill="#242424" d="M 85.5,139.5 C 85.2503,141.674 84.2503,143.341 82.5,144.5C 82.7497,142.326 83.7497,140.659 85.5,139.5 Z"/></g>
<g><path style="opacity:0.294" fill="#2b2a2a" d="M 385.5,130.5 C 387.595,131.412 389.595,132.579 391.5,134C 395.403,138.393 399.069,142.893 402.5,147.5C 396.5,142.167 390.833,136.5 385.5,130.5 Z"/></g>
<g><path style="opacity:0.102" fill="#2e2d2d" d="M 406.5,139.5 C 409.891,140.529 412.557,142.529 414.5,145.5C 411.109,144.471 408.443,142.471 406.5,139.5 Z"/></g>
<g><path style="opacity:0.039" fill="#292928" d="M 368.5,137.5 C 373.474,142.139 378.474,146.805 383.5,151.5C 383.5,151.833 383.5,152.167 383.5,152.5C 382.078,152.291 380.745,151.791 379.5,151C 375.597,146.607 371.931,142.107 368.5,137.5 Z"/></g>
<g><path style="opacity:0.212" fill="#262624" d="M 414.5,146.5 C 416.027,146.427 417.027,147.094 417.5,148.5C 415.973,148.573 414.973,147.906 414.5,146.5 Z"/></g>
<g><path style="opacity:0.039" fill="#282828" d="M 417.5,148.5 C 418.833,149.167 419.833,150.167 420.5,151.5C 418.5,151.5 417.5,150.5 417.5,148.5 Z"/></g>
<g><path style="opacity:0.439" fill="#505050" d="M 67.5,127.5 C 64.454,135.262 61.1206,142.929 57.5,150.5C 64.4684,151.497 71.4684,151.83 78.5,151.5C 79.2167,148.763 80.5501,146.43 82.5,144.5C 82.7593,147.565 81.7593,150.065 79.5,152C 71.0023,152.965 62.6689,152.632 54.5,151C 58.2071,142.8 62.5405,134.967 67.5,127.5 Z"/></g>
<g><path style="opacity:0.435" fill="#5d5d5b" d="M 402.5,147.5 C 404.257,148.292 405.591,149.625 406.5,151.5C 398.862,152.497 391.196,152.831 383.5,152.5C 383.5,152.167 383.5,151.833 383.5,151.5C 390.2,151.83 396.866,151.497 403.5,150.5C 402.873,149.583 402.539,148.583 402.5,147.5 Z"/></g>
<g><path style="opacity:0.439" fill="#646463" d="M 442.5,149.5 C 442.833,149.5 443.167,149.5 443.5,149.5C 444.478,149.811 445.145,150.478 445.5,151.5C 437.009,152.821 428.676,152.821 420.5,151.5C 428.243,152.13 435.576,151.463 442.5,149.5 Z"/></g>
<g><path style="opacity:1" fill="#e1e1e1" d="M 259.5,175.5 C 258.415,173.413 256.749,172.08 254.5,171.5C 242.393,165.526 230.059,165.026 217.5,170C 207.146,177.686 204.646,187.52 210,199.5C 219.265,210.1 229.765,219.267 241.5,227C 231.5,227.667 221.5,227.667 211.5,227C 192.885,211.741 189.718,193.907 202,173.5C 215.081,163.19 229.915,159.69 246.5,163C 260.079,165.874 271.246,172.707 280,183.5C 283.624,188.58 287.124,193.747 290.5,199C 285.086,202.696 279.253,204.53 273,204.5C 270.635,193.773 266.135,184.106 259.5,175.5 Z"/></g>
<g><path style="opacity:1" fill="#f1f1f1" d="M 164.5,193.5 C 164.41,196.152 165.076,198.485 166.5,200.5C 168.157,209.307 167.491,217.974 164.5,226.5C 157.532,227.497 150.532,227.83 143.5,227.5C 147.809,214.638 147.309,201.972 142,189.5C 139.734,185.958 137.234,182.625 134.5,179.5C 134.027,178.094 133.027,177.427 131.5,177.5C 131.027,176.094 130.027,175.427 128.5,175.5C 122.324,173.219 115.991,171.552 109.5,170.5C 101.35,169.507 93.0168,169.174 84.5,169.5C 84.5,188.833 84.5,208.167 84.5,227.5C 77.8333,227.5 71.1667,227.5 64.5,227.5C 64.5961,207.157 64.2627,186.824 63.5,166.5C 82.5029,166.333 101.503,166.5 120.5,167C 135.901,168.014 149.068,173.847 160,184.5C 162.038,187.243 163.538,190.243 164.5,193.5 Z"/></g>
<g><path style="opacity:1" fill="#f4f4f4" d="M 316.5,166.5 C 324.5,166.5 332.5,166.5 340.5,166.5C 338.877,186.788 338.21,207.121 338.5,227.5C 331.833,227.5 325.167,227.5 318.5,227.5C 318.562,207.137 317.895,186.804 316.5,166.5 Z"/></g>
<g><path style="opacity:0.999" fill="#b3b3b3" d="M 416.5,166.5 C 419.518,166.335 422.518,166.502 425.5,167C 405.825,186.342 386.825,206.342 368.5,227C 366.5,227.667 364.5,227.667 362.5,227C 381.45,207.558 399.45,187.391 416.5,166.5 Z"/></g>
<g><path style="opacity:0.197" fill="#363636" d="M 109.5,170.5 C 101.5,170.5 93.5,170.5 85.5,170.5C 85.8303,189.674 85.497,208.674 84.5,227.5C 84.5,208.167 84.5,188.833 84.5,169.5C 93.0168,169.174 101.35,169.507 109.5,170.5 Z"/></g>
<g><path style="opacity:0.91" fill="#717171" d="M 254.5,171.5 C 256.749,172.08 258.415,173.413 259.5,175.5C 257.251,174.92 255.585,173.587 254.5,171.5 Z"/></g>
<g><path style="opacity:0.396" fill="#5c5c5c" d="M 128.5,175.5 C 130.027,175.427 131.027,176.094 131.5,177.5C 129.973,177.573 128.973,176.906 128.5,175.5 Z"/></g>
<g><path style="opacity:0.714" fill="#646464" d="M 131.5,177.5 C 133.027,177.427 134.027,178.094 134.5,179.5C 132.973,179.573 131.973,178.906 131.5,177.5 Z"/></g>
<g><path style="opacity:0.624" fill="#787878" d="M 164.5,193.5 C 165.924,195.515 166.59,197.848 166.5,200.5C 165.076,198.485 164.41,196.152 164.5,193.5 Z"/></g>
<g><path style="opacity:0.064" fill="#1e1e1e" d="M 335.5,235.5 C 330.897,234.617 326.23,234.283 321.5,234.5C 321.5,235.833 321.5,237.167 321.5,238.5C 319.418,237.415 319.084,235.915 320.5,234C 325.167,233.333 329.833,233.333 334.5,234C 335.056,234.383 335.389,234.883 335.5,235.5 Z"/></g>
<g><path style="opacity:0.066" fill="#111111" d="M 403.5,234.5 C 407.981,233.352 412.648,233.185 417.5,234C 418.056,234.383 418.389,234.883 418.5,235.5C 413.897,234.617 409.23,234.283 404.5,234.5C 404.167,234.5 403.833,234.5 403.5,234.5 Z"/></g>
<g><path style="opacity:0.2" fill="#323232" d="M 62.5,234.5 C 67.4337,233.092 72.4337,233.259 77.5,235C 81.3674,238.66 82.534,243.16 81,248.5C 80.6174,249.056 80.1174,249.389 79.5,249.5C 79.5,249.167 79.5,248.833 79.5,248.5C 81.4361,243.611 80.4361,239.444 76.5,236C 72.3004,234.633 67.9671,234.133 63.5,234.5C 63.1667,234.5 62.8333,234.5 62.5,234.5 Z"/></g>
<g><path style="opacity:0.145" fill="#292929" d="M 116.5,234.5 C 121.434,233.092 126.434,233.259 131.5,235C 137.564,239.995 137.897,245.162 132.5,250.5C 136.02,244.426 135.02,239.426 129.5,235.5C 125.6,234.57 121.6,234.237 117.5,234.5C 117.167,234.5 116.833,234.5 116.5,234.5 Z"/></g>
<g><path style="opacity:0.827" fill="#5e5e5e" d="M 208.5,238.5 C 208.167,238.5 207.833,238.5 207.5,238.5C 210.04,236.334 209.373,235.334 205.5,235.5C 206.659,233.623 208.326,233.123 210.5,234C 212.056,236.501 211.389,238.001 208.5,238.5 Z"/></g>
<g><path style="opacity:0.92" fill="#dcdcdc" d="M 335.5,235.5 C 341.184,241.903 340.517,247.737 333.5,253C 333.639,254.301 334.305,255.134 335.5,255.5C 336.358,258.05 337.358,260.55 338.5,263C 337.552,263.483 336.552,263.649 335.5,263.5C 334.805,260.085 333.138,257.418 330.5,255.5C 330.586,254.504 330.252,253.671 329.5,253C 327.19,252.503 324.857,252.337 322.5,252.5C 321.677,255.977 321.177,259.644 321,263.5C 320.501,258.845 320.334,254.179 320.5,249.5C 325.032,249.818 329.366,249.485 333.5,248.5C 336.332,246.593 337.166,243.927 336,240.5C 334.89,238.963 333.39,238.297 331.5,238.5C 328.167,238.5 324.833,238.5 321.5,238.5C 321.5,237.167 321.5,235.833 321.5,234.5C 326.23,234.283 330.897,234.617 335.5,235.5 Z"/></g>
<g><path style="opacity:0.22" fill="#222222" d="M 62.5,234.5 C 62.5,235.833 62.5,237.167 62.5,238.5C 61.4138,238.38 60.7472,237.713 60.5,236.5C 60.7472,235.287 61.4138,234.62 62.5,234.5 Z"/></g>
<g><path style="opacity:1" fill="#ebebeb" d="M 63.5,234.5 C 67.9671,234.133 72.3004,234.633 76.5,236C 80.4361,239.444 81.4361,243.611 79.5,248.5C 78.1667,248.5 76.8333,248.5 75.5,248.5C 77.6813,245.737 78.0146,242.737 76.5,239.5C 76.0825,238.778 75.4158,238.278 74.5,238C 70.8484,237.501 67.1817,237.335 63.5,237.5C 63.5,236.5 63.5,235.5 63.5,234.5 Z"/></g>
<g><path style="opacity:0.169" fill="#212121" d="M 98.5,234.5 C 96.2519,237.328 94.2519,240.328 92.5,243.5C 93.036,239.533 94.7026,236.199 97.5,233.5C 98.1067,233.624 98.44,233.957 98.5,234.5 Z"/></g>
<g><path style="opacity:0.078" fill="#363636" d="M 98.5,234.5 C 100.755,236.531 102.088,239.198 102.5,242.5C 100.229,240.388 98.8961,237.721 98.5,234.5 Z"/></g>
<g><path style="opacity:1" fill="#f3f3f3" d="M 117.5,234.5 C 121.6,234.237 125.6,234.57 129.5,235.5C 125.971,237.423 121.971,238.089 117.5,237.5C 117.5,236.5 117.5,235.5 117.5,234.5 Z"/></g>
<g><path style="opacity:1" fill="#f7f7f7" d="M 143.5,234.5 C 147.167,234.5 150.833,234.5 154.5,234.5C 154.5,235.5 154.5,236.5 154.5,237.5C 151.5,237.5 148.5,237.5 145.5,237.5C 145.831,246.192 145.498,254.859 144.5,263.5C 143.502,253.856 143.168,244.19 143.5,234.5 Z"/></g>
<g><path style="opacity:0.51" fill="#303030" d="M 142.5,234.5 C 146.646,233.353 150.98,233.186 155.5,234C 157.043,236.045 156.71,237.545 154.5,238.5C 154.5,238.167 154.5,237.833 154.5,237.5C 154.5,236.5 154.5,235.5 154.5,234.5C 150.833,234.5 147.167,234.5 143.5,234.5C 143.167,234.5 142.833,234.5 142.5,234.5 Z"/></g>
<g><path style="opacity:0.573" fill="#474747" d="M 384.5,234.5 C 385.189,233.226 386.023,233.226 387,234.5C 388.009,236.025 388.509,237.692 388.5,239.5C 386.818,238.173 385.485,236.506 384.5,234.5 Z"/></g>
<g><path style="opacity:0.365" fill="#323232" d="M 252.5,234.5 C 253.708,233.218 255.042,233.218 256.5,234.5C 257.393,237.084 257.726,239.751 257.5,242.5C 256.833,242.5 256.167,242.5 255.5,242.5C 255.5,239.833 255.5,237.167 255.5,234.5C 254.5,234.5 253.5,234.5 252.5,234.5 Z"/></g>
<g><path style="opacity:0.617" fill="#8d8d8d" d="M 62.5,234.5 C 62.8333,234.5 63.1667,234.5 63.5,234.5C 63.5,235.5 63.5,236.5 63.5,237.5C 67.1817,237.335 70.8484,237.501 74.5,238C 75.4158,238.278 76.0825,238.778 76.5,239.5C 75.8333,239.5 75.1667,239.5 74.5,239.5C 70.5662,238.64 66.5662,238.307 62.5,238.5C 62.5,237.167 62.5,235.833 62.5,234.5 Z"/></g>
<g><path style="opacity:0.628" fill="#7e7e7e" d="M 403.5,234.5 C 403.833,234.5 404.167,234.5 404.5,234.5C 404.5,235.5 404.5,236.5 404.5,237.5C 408.971,236.911 412.971,237.577 416.5,239.5C 411.897,238.617 407.23,238.283 402.5,238.5C 402.232,236.901 402.566,235.568 403.5,234.5 Z"/></g>
<g><path style="opacity:0.078" fill="#313131" d="M 293.5,234.5 C 296.113,237.645 297.779,241.311 298.5,245.5C 296.805,243.465 295.472,241.132 294.5,238.5C 294.167,237.167 293.833,235.833 293.5,234.5 Z"/></g>
<g><path style="opacity:0.258" fill="#3d3d3d" d="M 312.5,234.5 C 311.25,234.577 310.417,235.244 310,236.5C 309.5,245.494 309.334,254.494 309.5,263.5C 310.5,263.5 311.5,263.5 312.5,263.5C 311.432,264.434 310.099,264.768 308.5,264.5C 308.334,254.494 308.5,244.494 309,234.5C 310.292,233.209 311.458,233.209 312.5,234.5 Z"/></g>
<g><path style="opacity:0.089" fill="#161616" d="M 252.5,234.5 C 252.5,244.167 252.5,253.833 252.5,263.5C 251.711,263.217 251.044,262.717 250.5,262C 251.155,252.735 251.821,243.568 252.5,234.5 Z"/></g>
<g><path style="opacity:0.051" fill="#262626" d="M 331.5,238.5 C 333.39,238.297 334.89,238.963 336,240.5C 337.166,243.927 336.332,246.593 333.5,248.5C 333.167,248.5 332.833,248.5 332.5,248.5C 336.59,244.693 336.257,241.36 331.5,238.5 Z"/></g>
<g><path style="opacity:0.409" fill="#474747" d="M 364.5,263.5 C 365.5,263.5 366.5,263.5 367.5,263.5C 367.832,253.81 367.498,244.144 366.5,234.5C 365.833,242.167 365.167,249.833 364.5,257.5C 363.893,257.376 363.56,257.043 363.5,256.5C 364.492,249.352 364.825,242.019 364.5,234.5C 365.884,233.199 367.384,233.199 369,234.5C 369.667,244.167 369.667,253.833 369,263.5C 367.384,264.801 365.884,264.801 364.5,263.5 Z"/></g>
<g><path style="opacity:0.71" fill="#3f3f3f" d="M 419.5,236.5 C 422.077,237.972 423.41,240.305 423.5,243.5C 423.308,245.577 422.808,247.577 422,249.5C 421.329,250.252 420.496,250.586 419.5,250.5C 422.022,245.928 422.022,241.261 419.5,236.5 Z"/></g>
<g><path style="opacity:0.014" fill="#191919" d="M 74.5,239.5 C 75.1667,239.5 75.8333,239.5 76.5,239.5C 78.0146,242.737 77.6813,245.737 75.5,248.5C 74.5,248.5 73.5,248.5 72.5,248.5C 75.6892,246.241 76.3558,243.241 74.5,239.5 Z"/></g>
<g><path style="opacity:0.153" fill="#3b3b3b" d="M 241.5,250.5 C 242.728,247.925 244.395,245.592 246.5,243.5C 246,243.167 245.5,242.833 245,242.5C 240.72,245.756 236.887,249.422 233.5,253.5C 233.167,253.167 232.833,252.833 232.5,252.5C 236.628,248.2 240.628,243.7 244.5,239C 242.305,238.591 240.305,239.091 238.5,240.5C 239.99,237.108 242.657,235.774 246.5,236.5C 246.579,237.93 246.246,239.264 245.5,240.5C 246.833,241.167 248.167,241.833 249.5,242.5C 247.118,245.548 244.452,248.215 241.5,250.5 Z"/></g>
<g><path style="opacity:0.997" fill="#cdcdcd" d="M 312.5,234.5 C 312.5,244.167 312.5,253.833 312.5,263.5C 311.5,263.5 310.5,263.5 309.5,263.5C 309.334,254.494 309.5,245.494 310,236.5C 310.417,235.244 311.25,234.577 312.5,234.5 Z"/></g>
<g><path style="opacity:0.106" fill="#424242" d="M 126.5,238.5 C 133.574,240.639 134.24,244.139 128.5,249C 123.845,249.499 119.179,249.666 114.5,249.5C 114.5,249.167 114.5,248.833 114.5,248.5C 118.846,248.666 123.179,248.499 127.5,248C 131.439,244.38 131.106,241.214 126.5,238.5 Z"/></g>
<g><path style="opacity:0.545" fill="#474747" d="M 205.5,235.5 C 201.943,240.288 201.61,245.288 204.5,250.5C 200.242,246.972 199.409,242.639 202,237.5C 202.816,236.177 203.983,235.511 205.5,235.5 Z"/></g>
<g><path style="opacity:0.375" fill="#2c2c2c" d="M 335.5,235.5 C 339.338,236.684 341.338,239.351 341.5,243.5C 339.874,247.763 337.874,251.763 335.5,255.5C 334.305,255.134 333.639,254.301 333.5,253C 340.517,247.737 341.184,241.903 335.5,235.5 Z"/></g>
<g><path style="opacity:0.467" fill="#404040" d="M 384.5,234.5 C 383.25,239.28 381.25,243.613 378.5,247.5C 379.16,243.687 380.326,240.021 382,236.5C 382.417,235.244 383.25,234.577 384.5,234.5 Z"/></g>
<g><path style="opacity:0.008" fill="#424242" d="M 416.5,239.5 C 420.369,242.37 420.369,245.537 416.5,249C 411.845,249.499 407.179,249.666 402.5,249.5C 402.5,249.167 402.5,248.833 402.5,248.5C 407.297,248.879 411.964,248.379 416.5,247C 417.779,244.502 417.779,242.002 416.5,239.5 Z"/></g>
<g><path style="opacity:0.963" fill="#b8b8b8" d="M 98.5,234.5 C 98.8961,237.721 100.229,240.388 102.5,242.5C 102.707,245.241 103.707,247.574 105.5,249.5C 107.02,251.89 108.02,254.557 108.5,257.5C 108.5,258.167 108.5,258.833 108.5,259.5C 107.768,258.192 106.934,256.858 106,255.5C 105.517,256.448 105.351,257.448 105.5,258.5C 103.31,253.268 101.31,247.934 99.5,242.5C 96.2206,243.031 94.8872,245.031 95.5,248.5C 94.407,250.349 93.0737,252.016 91.5,253.5C 91.5,252.833 91.1667,252.5 90.5,252.5C 90.8726,249.426 91.5392,246.426 92.5,243.5C 94.2519,240.328 96.2519,237.328 98.5,234.5 Z"/></g>
<g><path style="opacity:0.999" fill="#dbdbdb" d="M 160.5,234.5 C 161.167,234.5 161.833,234.5 162.5,234.5C 162.5,237.5 162.5,240.5 162.5,243.5C 168.167,243.5 173.833,243.5 179.5,243.5C 179.5,240.5 179.5,237.5 179.5,234.5C 180.931,234.881 181.764,235.881 182,237.5C 182.5,246.16 182.666,254.827 182.5,263.5C 181.5,263.5 180.5,263.5 179.5,263.5C 180.036,260.302 179.369,257.635 177.5,255.5C 173.167,255.5 168.833,255.5 164.5,255.5C 163.833,255.5 163.167,255.5 162.5,255.5C 161.683,257.969 161.183,260.635 161,263.5C 160.5,253.839 160.334,244.172 160.5,234.5 Z M 163.5,247.5 C 168.5,247.5 173.5,247.5 178.5,247.5C 178.5,248.5 178.5,249.5 178.5,250.5C 173.5,250.5 168.5,250.5 163.5,250.5C 163.5,249.5 163.5,248.5 163.5,247.5 Z"/></g>
<g><path style="opacity:0.493" fill="#575757" d="M 162.5,234.5 C 163.473,236.948 163.806,239.615 163.5,242.5C 168.179,242.666 172.845,242.499 177.5,242C 178.123,239.393 178.79,236.893 179.5,234.5C 179.5,237.5 179.5,240.5 179.5,243.5C 173.833,243.5 168.167,243.5 162.5,243.5C 162.5,240.5 162.5,237.5 162.5,234.5 Z"/></g>
<g><path style="opacity:0.482" fill="#545454" d="M 232.5,234.5 C 233.317,236.969 233.817,239.635 234,242.5C 234.333,242.833 234.667,243.167 235,243.5C 236.039,242.29 237.206,241.29 238.5,240.5C 237.604,243.069 235.938,245.069 233.5,246.5C 232.509,242.555 232.176,238.555 232.5,234.5 Z"/></g>
<g><path style="opacity:1" fill="#fefefe" d="M 255.5,243.5 C 261.833,243.5 268.167,243.5 274.5,243.5C 274.715,245.179 274.048,246.179 272.5,246.5C 266.833,246.5 261.167,246.5 255.5,246.5C 254.167,245.5 254.167,244.5 255.5,243.5 Z"/></g>
<g><path style="opacity:0.059" fill="#2c2c2c" d="M 293.5,241.5 C 294.038,243.117 294.371,244.784 294.5,246.5C 293.176,245.15 292.176,245.317 291.5,247C 289.405,251.019 287.739,255.186 286.5,259.5C 285.402,258.399 285.235,257.066 286,255.5C 287.931,251.207 289.764,246.874 291.5,242.5C 291.957,241.702 292.624,241.369 293.5,241.5 Z"/></g>
<g><path style="opacity:0.416" fill="#494949" d="M 142.5,234.5 C 142.833,234.5 143.167,234.5 143.5,234.5C 143.168,244.19 143.502,253.856 144.5,263.5C 145.498,254.859 145.831,246.192 145.5,237.5C 148.5,237.5 151.5,237.5 154.5,237.5C 154.5,237.833 154.5,238.167 154.5,238.5C 152.167,238.5 149.833,238.5 147.5,238.5C 147.666,246.84 147.5,255.173 147,263.5C 145.612,264.554 144.112,264.72 142.5,264C 141.171,254.069 141.171,244.235 142.5,234.5 Z"/></g>
<g><path style="opacity:0.837" fill="#b3b3b3" d="M 271.5,255.5 C 266.833,255.5 262.167,255.5 257.5,255.5C 256.833,255.5 256.167,255.5 255.5,255.5C 255.5,255.167 255.5,254.833 255.5,254.5C 261.833,254.5 268.167,254.5 274.5,254.5C 274.715,252.821 274.048,251.821 272.5,251.5C 272.5,249.833 272.5,248.167 272.5,246.5C 274.048,246.179 274.715,245.179 274.5,243.5C 268.167,243.5 261.833,243.5 255.5,243.5C 255.5,243.167 255.5,242.833 255.5,242.5C 256.167,242.5 256.833,242.5 257.5,242.5C 262.167,242.5 266.833,242.5 271.5,242.5C 273.08,240.283 274.08,237.616 274.5,234.5C 275.833,244.167 275.833,253.833 274.5,263.5C 274.08,260.384 273.08,257.717 271.5,255.5 Z"/></g>
<g><path style="opacity:0.098" fill="#272727" d="M 388.5,239.5 C 391.458,243.691 393.458,248.358 394.5,253.5C 391.432,249.356 389.432,244.689 388.5,239.5 Z"/></g>
<g><path style="opacity:0.09" fill="#1a1a1a" d="M 102.5,242.5 C 104.293,244.426 105.293,246.759 105.5,249.5C 103.707,247.574 102.707,245.241 102.5,242.5 Z"/></g>
<g><path style="opacity:1" fill="#dddddd" d="M 232.5,234.5 C 232.176,238.555 232.509,242.555 233.5,246.5C 235.938,245.069 237.604,243.069 238.5,240.5C 240.305,239.091 242.305,238.591 244.5,239C 240.628,243.7 236.628,248.2 232.5,252.5C 232.833,252.833 233.167,253.167 233.5,253.5C 236.887,249.422 240.72,245.756 245,242.5C 245.5,242.833 246,243.167 246.5,243.5C 244.395,245.592 242.728,247.925 241.5,250.5C 240.89,251.391 240.557,252.391 240.5,253.5C 242.403,256.748 244.737,259.748 247.5,262.5C 246.635,263.583 245.635,263.749 244.5,263C 242.25,260.578 239.917,258.411 237.5,256.5C 237.103,255.475 236.437,255.308 235.5,256C 233.557,258.486 231.891,260.986 230.5,263.5C 229.86,253.442 230.527,243.775 232.5,234.5 Z"/></g>
<g><path style="opacity:0.275" fill="#333333" d="M 271.5,255.5 C 273.08,257.717 274.08,260.384 274.5,263.5C 275.833,253.833 275.833,244.167 274.5,234.5C 274.08,237.616 273.08,240.283 271.5,242.5C 271.336,239.813 271.503,237.146 272,234.5C 273.667,233.167 275.333,233.167 277,234.5C 277.667,244.167 277.667,253.833 277,263.5C 275.333,264.833 273.667,264.833 272,263.5C 271.503,260.854 271.336,258.187 271.5,255.5 Z"/></g>
<g><path style="opacity:0.999" fill="#dadada" d="M 384.5,234.5 C 385.485,236.506 386.818,238.173 388.5,239.5C 389.432,244.689 391.432,249.356 394.5,253.5C 395.199,256.573 396.199,259.573 397.5,262.5C 389.528,263.498 381.528,263.831 373.5,263.5C 375.156,258.182 376.822,252.849 378.5,247.5C 381.25,243.613 383.25,239.28 384.5,234.5 Z M 386.5,245.5 C 386.5,245.833 386.5,246.167 386.5,246.5C 387.279,249.545 388.613,252.211 390.5,254.5C 391.038,256.117 391.371,257.784 391.5,259.5C 387.5,259.5 383.5,259.5 379.5,259.5C 379.963,256.779 380.629,254.112 381.5,251.5C 382.793,250.158 383.626,248.491 384,246.5C 384.671,245.748 385.504,245.414 386.5,245.5 Z"/></g>
<g><path style="opacity:0.022" fill="#1c1c1c" d="M 386.5,245.5 C 385.504,245.414 384.671,245.748 384,246.5C 383.626,248.491 382.793,250.158 381.5,251.5C 381.899,248.304 382.899,245.304 384.5,242.5C 385.919,243.005 386.585,244.005 386.5,245.5 Z"/></g>
<g><path style="opacity:0.272" fill="#353535" d="M 162.5,234.5 C 161.833,234.5 161.167,234.5 160.5,234.5C 159.506,243.986 159.173,253.652 159.5,263.5C 158.746,260.977 158.08,258.311 157.5,255.5C 158.595,248.908 158.595,242.075 157.5,235C 159.148,233.323 160.815,233.156 162.5,234.5 Z"/></g>
<g><path style="opacity:0.721" fill="#9f9f9f" d="M 160.5,234.5 C 160.334,244.172 160.5,253.839 161,263.5C 161.183,260.635 161.683,257.969 162.5,255.5C 162.5,258.167 162.5,260.833 162.5,263.5C 161.5,264.833 160.5,264.833 159.5,263.5C 159.173,253.652 159.506,243.986 160.5,234.5 Z"/></g>
<g><path style="opacity:0.624" fill="#535353" d="M 294.5,246.5 C 297.619,250.132 299.619,254.466 300.5,259.5C 299.833,259.5 299.167,259.5 298.5,259.5C 297.567,255.035 296.234,250.702 294.5,246.5 Z"/></g>
<g><path style="opacity:0.29" fill="#363636" d="M 386.5,246.5 C 389.135,248.339 390.468,251.006 390.5,254.5C 388.613,252.211 387.279,249.545 386.5,246.5 Z"/></g>
<g><path style="opacity:0.49" fill="#848484" d="M 60.5,248.5 C 64.5,248.5 68.5,248.5 72.5,248.5C 73.5,248.5 74.5,248.5 75.5,248.5C 76.8333,248.5 78.1667,248.5 79.5,248.5C 79.5,248.833 79.5,249.167 79.5,249.5C 79.1667,250.5 78.5,251.167 77.5,251.5C 77.1667,251.5 76.8333,251.5 76.5,251.5C 71.9443,249.558 66.9443,248.892 61.5,249.5C 61.3379,251.527 61.5045,253.527 62,255.5C 62.2321,254.263 62.7321,253.263 63.5,252.5C 63.838,255.157 63.1713,257.49 61.5,259.5C 60.5108,255.893 60.1774,252.226 60.5,248.5 Z"/></g>
<g><path style="opacity:0.059" fill="#2f2f2f" d="M 298.5,245.5 C 300.957,248.751 302.624,252.418 303.5,256.5C 302.503,256.53 301.836,256.03 301.5,255C 300.172,251.876 299.172,248.71 298.5,245.5 Z"/></g>
<g><path style="opacity:0.49" fill="#414141" d="M 348.5,234.5 C 347.167,234.5 345.833,234.5 344.5,234.5C 344.5,242.167 344.5,249.833 344.5,257.5C 347.833,257.5 351.167,257.5 354.5,257.5C 350.767,258.821 346.934,258.821 343,257.5C 342.333,249.833 342.333,242.167 343,234.5C 344.943,233.193 346.777,233.193 348.5,234.5 Z"/></g>
<g><path style="opacity:1" fill="#f5f5f5" d="M 76.5,251.5 C 72.2315,252.373 67.8982,252.706 63.5,252.5C 62.7321,253.263 62.2321,254.263 62,255.5C 61.5045,253.527 61.3379,251.527 61.5,249.5C 66.9443,248.892 71.9443,249.558 76.5,251.5 Z"/></g>
<g><path style="opacity:0.045" fill="#161616" d="M 402.5,248.5 C 402.5,248.833 402.5,249.167 402.5,249.5C 401.514,253.97 401.181,258.637 401.5,263.5C 400.836,261.19 400.503,258.69 400.5,256C 400.525,253.071 401.191,250.571 402.5,248.5 Z"/></g>
<g><path style="opacity:1" fill="#e7e7e7" d="M 404.5,234.5 C 409.23,234.283 413.897,234.617 418.5,235.5C 419.167,235.5 419.5,235.833 419.5,236.5C 422.022,241.261 422.022,245.928 419.5,250.5C 419.5,251.167 419.167,251.5 418.5,251.5C 417.833,251.5 417.167,251.5 416.5,251.5C 415.9,252.9 414.9,253.9 413.5,254.5C 413.389,253.883 413.056,253.383 412.5,253C 409.854,252.503 407.187,252.336 404.5,252.5C 404.823,256.226 404.489,259.893 403.5,263.5C 402.507,258.88 402.173,254.214 402.5,249.5C 407.179,249.666 411.845,249.499 416.5,249C 420.369,245.537 420.369,242.37 416.5,239.5C 412.971,237.577 408.971,236.911 404.5,237.5C 404.5,236.5 404.5,235.5 404.5,234.5 Z"/></g>
<g><path style="opacity:0.125" fill="#252525" d="M 162.5,246.5 C 168.167,246.5 173.833,246.5 179.5,246.5C 179.5,248.167 179.5,249.833 179.5,251.5C 173.833,251.5 168.167,251.5 162.5,251.5C 162.5,249.833 162.5,248.167 162.5,246.5 Z M 163.5,247.5 C 163.5,248.5 163.5,249.5 163.5,250.5C 168.5,250.5 173.5,250.5 178.5,250.5C 178.5,249.5 178.5,248.5 178.5,247.5C 173.5,247.5 168.5,247.5 163.5,247.5 Z"/></g>
<g><path style="opacity:0.135" fill="#282828" d="M 255.5,246.5 C 261.167,246.5 266.833,246.5 272.5,246.5C 272.5,248.167 272.5,249.833 272.5,251.5C 266.833,251.5 261.167,251.5 255.5,251.5C 255.5,249.833 255.5,248.167 255.5,246.5 Z M 257.5,247.5 C 262.167,247.5 266.833,247.5 271.5,247.5C 271.5,248.5 271.5,249.5 271.5,250.5C 266.833,250.5 262.167,250.5 257.5,250.5C 257.5,249.5 257.5,248.5 257.5,247.5 Z"/></g>
<g><path style="opacity:0.976" fill="#bfbfbf" d="M 293.5,234.5 C 293.833,235.833 294.167,237.167 294.5,238.5C 291.061,237.856 290.728,238.856 293.5,241.5C 292.624,241.369 291.957,241.702 291.5,242.5C 289.764,246.874 287.931,251.207 286,255.5C 285.235,257.066 285.402,258.399 286.5,259.5C 290.5,259.5 294.5,259.5 298.5,259.5C 299.167,259.5 299.833,259.5 300.5,259.5C 294.766,260.825 288.932,260.825 283,259.5C 282.209,260.745 281.709,262.078 281.5,263.5C 280.402,262.399 280.235,261.066 281,259.5C 285.141,252.214 288.475,244.547 291,236.5C 291.708,235.619 292.542,234.953 293.5,234.5 Z"/></g>
<g><path style="opacity:1" fill="#fbfbfb" d="M 255.5,251.5 C 261.167,251.5 266.833,251.5 272.5,251.5C 274.048,251.821 274.715,252.821 274.5,254.5C 268.167,254.5 261.833,254.5 255.5,254.5C 254.167,253.5 254.167,252.5 255.5,251.5 Z"/></g>
<g><path style="opacity:0.165" fill="#1e1e1e" d="M 312.5,234.5 C 313.222,234.918 313.722,235.584 314,236.5C 314.167,239 314.333,241.5 314.5,244C 313.618,249.863 313.618,255.696 314.5,261.5C 314.253,262.713 313.586,263.38 312.5,263.5C 312.5,253.833 312.5,244.167 312.5,234.5 Z"/></g>
<g><path style="opacity:0.059" fill="#2e2e2e" d="M 131.5,251.5 C 130.89,252.391 130.557,253.391 130.5,254.5C 128.952,254.179 128.285,253.179 128.5,251.5C 129.5,251.5 130.5,251.5 131.5,251.5 Z"/></g>
<g><path style="opacity:0.094" fill="#212121" d="M 416.5,251.5 C 417.167,251.5 417.833,251.5 418.5,251.5C 417.89,252.391 417.557,253.391 417.5,254.5C 416.596,253.791 416.263,252.791 416.5,251.5 Z"/></g>
<g><path style="opacity:0.847" fill="#d1d1d1" d="M 116.5,234.5 C 116.833,234.5 117.167,234.5 117.5,234.5C 117.5,235.5 117.5,236.5 117.5,237.5C 121.971,238.089 125.971,237.423 129.5,235.5C 135.02,239.426 136.02,244.426 132.5,250.5C 132.5,251.167 132.167,251.5 131.5,251.5C 130.5,251.5 129.5,251.5 128.5,251.5C 128.285,253.179 128.952,254.179 130.5,254.5C 131.674,255.514 132.34,256.847 132.5,258.5C 133.434,260.239 133.434,261.905 132.5,263.5C 129.189,260.682 126.856,257.182 125.5,253C 122.854,252.503 120.187,252.336 117.5,252.5C 117.5,256.167 117.5,259.833 117.5,263.5C 116.5,263.5 115.5,263.5 114.5,263.5C 114.5,258.833 114.5,254.167 114.5,249.5C 119.179,249.666 123.845,249.499 128.5,249C 134.24,244.139 133.574,240.639 126.5,238.5C 122.833,238.5 119.167,238.5 115.5,238.5C 115.232,236.901 115.566,235.568 116.5,234.5 Z"/></g>
<g><path style="opacity:0.278" fill="#2f2f2f" d="M 114.5,248.5 C 114.5,248.833 114.5,249.167 114.5,249.5C 114.5,254.167 114.5,258.833 114.5,263.5C 115.5,263.5 116.5,263.5 117.5,263.5C 117.5,259.833 117.5,256.167 117.5,252.5C 120.187,252.336 122.854,252.503 125.5,253C 126.856,257.182 129.189,260.682 132.5,263.5C 133.434,261.905 133.434,260.239 132.5,258.5C 136.975,262.375 136.309,264.209 130.5,264C 127.92,260.842 125.587,257.508 123.5,254C 122.207,253.51 120.873,253.343 119.5,253.5C 119.751,256.909 119.417,260.242 118.5,263.5C 116.955,264.452 115.288,264.785 113.5,264.5C 113.179,258.974 113.512,253.64 114.5,248.5 Z"/></g>
<g><path style="opacity:0.543" fill="#686868" d="M 204.5,250.5 C 206.722,250.559 207.722,251.725 207.5,254C 207.613,255.699 206.947,256.866 205.5,257.5C 205.33,256.178 205.663,255.011 206.5,254C 205.695,252.887 205.028,251.721 204.5,250.5 Z"/></g>
<g><path style="opacity:0.994" fill="#c3c3c3" d="M 252.5,234.5 C 253.5,234.5 254.5,234.5 255.5,234.5C 255.5,237.167 255.5,239.833 255.5,242.5C 255.5,242.833 255.5,243.167 255.5,243.5C 254.167,244.5 254.167,245.5 255.5,246.5C 255.5,248.167 255.5,249.833 255.5,251.5C 254.167,252.5 254.167,253.5 255.5,254.5C 255.5,254.833 255.5,255.167 255.5,255.5C 255.5,258.167 255.5,260.833 255.5,263.5C 254.5,263.5 253.5,263.5 252.5,263.5C 252.5,253.833 252.5,244.167 252.5,234.5 Z"/></g>
<g><path style="opacity:0.74" fill="#7e7e7e" d="M 332.5,248.5 C 332.833,248.5 333.167,248.5 333.5,248.5C 329.366,249.485 325.032,249.818 320.5,249.5C 320.334,254.179 320.501,258.845 321,263.5C 321.177,259.644 321.677,255.977 322.5,252.5C 322.5,256.167 322.5,259.833 322.5,263.5C 321.458,264.791 320.292,264.791 319,263.5C 318.501,258.511 318.334,253.511 318.5,248.5C 323.167,248.5 327.833,248.5 332.5,248.5 Z"/></g>
<g><path style="opacity:0.994" fill="#dedede" d="M 348.5,234.5 C 347.891,237.878 349.224,239.878 352.5,240.5C 354.016,243.533 356.016,246.2 358.5,248.5C 359.655,251.475 361.322,254.142 363.5,256.5C 363.56,257.043 363.893,257.376 364.5,257.5C 365.167,249.833 365.833,242.167 366.5,234.5C 367.498,244.144 367.832,253.81 367.5,263.5C 366.5,263.5 365.5,263.5 364.5,263.5C 363.92,261.251 362.587,259.585 360.5,258.5C 359.544,255.561 357.877,253.228 355.5,251.5C 354.833,251.5 354.5,251.167 354.5,250.5C 352.938,246.608 350.605,243.275 347.5,240.5C 346.514,244.97 346.181,249.637 346.5,254.5C 349.167,254.5 351.833,254.5 354.5,254.5C 354.5,255.5 354.5,256.5 354.5,257.5C 351.167,257.5 347.833,257.5 344.5,257.5C 344.5,249.833 344.5,242.167 344.5,234.5C 345.833,234.5 347.167,234.5 348.5,234.5 Z M 354.5,250.5 C 354.5,251.167 354.833,251.5 355.5,251.5C 355.5,252.167 355.5,252.833 355.5,253.5C 353.167,253.5 350.833,253.5 348.5,253.5C 348.335,250.482 348.502,247.482 349,244.5C 350.617,246.763 352.45,248.763 354.5,250.5 Z"/></g>
<g><path style="opacity:0.64" fill="#7f7f7f" d="M 347.5,240.5 C 347.182,245.032 347.515,249.366 348.5,253.5C 350.833,253.5 353.167,253.5 355.5,253.5C 355.768,255.099 355.434,256.432 354.5,257.5C 354.5,256.5 354.5,255.5 354.5,254.5C 351.833,254.5 349.167,254.5 346.5,254.5C 346.181,249.637 346.514,244.97 347.5,240.5 Z"/></g>
<g><path style="opacity:0.077" fill="#1e1e1e" d="M 364.5,234.5 C 364.825,242.019 364.492,249.352 363.5,256.5C 361.322,254.142 359.655,251.475 358.5,248.5C 360.451,249.716 361.951,251.382 363,253.5C 363.172,246.987 363.672,240.653 364.5,234.5 Z"/></g>
<g><path style="opacity:0.184" fill="#393939" d="M 352.5,240.5 C 355.471,242.443 357.471,245.109 358.5,248.5C 356.016,246.2 354.016,243.533 352.5,240.5 Z"/></g>
<g><path style="opacity:0.188" fill="#222222" d="M 347.5,240.5 C 350.605,243.275 352.938,246.608 354.5,250.5C 352.45,248.763 350.617,246.763 349,244.5C 348.502,247.482 348.335,250.482 348.5,253.5C 347.515,249.366 347.182,245.032 347.5,240.5 Z"/></g>
<g><path style="opacity:0.949" fill="#797979" d="M 348.5,234.5 C 350.822,235.802 352.155,237.802 352.5,240.5C 349.224,239.878 347.891,237.878 348.5,234.5 Z"/></g>
<g><path style="opacity:0.969" fill="#979797" d="M 416.5,251.5 C 416.263,252.791 416.596,253.791 417.5,254.5C 418.338,254.842 418.672,255.508 418.5,256.5C 418.5,257.167 418.5,257.833 418.5,258.5C 416.19,254.214 415.19,254.548 415.5,259.5C 414.662,259.158 414.328,258.492 414.5,257.5C 414.443,256.391 414.11,255.391 413.5,254.5C 414.9,253.9 415.9,252.9 416.5,251.5 Z"/></g>
<g><path style="opacity:0.01" fill="#1d1d1d" d="M 105.5,258.5 C 105.5,258.833 105.5,259.167 105.5,259.5C 104.833,259.5 104.167,259.5 103.5,259.5C 102.082,254.577 100.082,249.91 97.5,245.5C 96.8243,246.602 96.1577,247.602 95.5,248.5C 94.8872,245.031 96.2206,243.031 99.5,242.5C 101.31,247.934 103.31,253.268 105.5,258.5 Z"/></g>
<g><path style="opacity:0.224" fill="#262626" d="M 207.5,238.5 C 207.833,238.5 208.167,238.5 208.5,238.5C 207.26,239.973 206.26,241.64 205.5,243.5C 208.279,246.723 210.279,250.39 211.5,254.5C 210.995,258.997 208.661,261.997 204.5,263.5C 205.793,261.704 207.293,260.037 209,258.5C 209.167,257.333 209.333,256.167 209.5,255C 208.3,250.802 206.633,246.802 204.5,243C 204.522,240.817 205.522,239.317 207.5,238.5 Z"/></g>
<g><path style="opacity:0.652" fill="#656565" d="M 232.5,234.5 C 230.527,243.775 229.86,253.442 230.5,263.5C 230.167,263.5 229.833,263.5 229.5,263.5C 228.342,254.009 228.175,244.342 229,234.5C 230.292,233.209 231.458,233.209 232.5,234.5 Z"/></g>
<g><path style="opacity:0.008" fill="#2b2b2b" d="M 355.5,251.5 C 357.877,253.228 359.544,255.561 360.5,258.5C 358.605,257.027 356.939,255.36 355.5,253.5C 355.5,252.833 355.5,252.167 355.5,251.5 Z"/></g>
<g><path style="opacity:0.047" fill="#1d1d1d" d="M 95.5,248.5 C 94.2074,252.086 93.2074,255.752 92.5,259.5C 91.5084,259.672 90.8417,259.338 90.5,258.5C 91.038,256.883 91.3713,255.216 91.5,253.5C 93.0737,252.016 94.407,250.349 95.5,248.5 Z"/></g>
<g><path style="opacity:0.343" fill="#303030" d="M 255.5,255.5 C 256.167,255.5 256.833,255.5 257.5,255.5C 257.726,258.249 257.393,260.916 256.5,263.5C 255.042,264.782 253.708,264.782 252.5,263.5C 253.5,263.5 254.5,263.5 255.5,263.5C 255.5,260.833 255.5,258.167 255.5,255.5 Z"/></g>
<g><path style="opacity:0.088" fill="#1e1e1e" d="M 322.5,252.5 C 324.857,252.337 327.19,252.503 329.5,253C 330.252,253.671 330.586,254.504 330.5,255.5C 328.521,253.832 326.188,253.166 323.5,253.5C 323.813,257.042 323.479,260.375 322.5,263.5C 322.5,259.833 322.5,256.167 322.5,252.5 Z"/></g>
<g><path style="opacity:0.51" fill="#444444" d="M 330.5,255.5 C 333.138,257.418 334.805,260.085 335.5,263.5C 332.862,261.582 331.195,258.915 330.5,255.5 Z"/></g>
<g><path style="opacity:0.418" fill="#4b4b4b" d="M 402.5,249.5 C 402.173,254.214 402.507,258.88 403.5,263.5C 404.489,259.893 404.823,256.226 404.5,252.5C 407.187,252.336 409.854,252.503 412.5,253C 413.056,253.383 413.389,253.883 413.5,254.5C 414.11,255.391 414.443,256.391 414.5,257.5C 413.188,256.855 412.188,255.855 411.5,254.5C 409.955,253.548 408.288,253.215 406.5,253.5C 406.665,256.85 406.498,260.183 406,263.5C 404.384,264.801 402.884,264.801 401.5,263.5C 401.181,258.637 401.514,253.97 402.5,249.5 Z"/></g>
<g><path style="opacity:0.231" fill="#303030" d="M 179.5,234.5 C 181.972,233.065 183.638,233.899 184.5,237C 183.228,244.613 183.228,252.28 184.5,260C 184.176,263.58 182.176,265.08 178.5,264.5C 178.736,261.391 178.403,258.391 177.5,255.5C 179.369,257.635 180.036,260.302 179.5,263.5C 180.5,263.5 181.5,263.5 182.5,263.5C 182.666,254.827 182.5,246.16 182,237.5C 181.764,235.881 180.931,234.881 179.5,234.5 Z"/></g>
<g><path style="opacity:0.994" fill="#d7d7d7" d="M 205.5,235.5 C 209.373,235.334 210.04,236.334 207.5,238.5C 205.522,239.317 204.522,240.817 204.5,243C 206.633,246.802 208.3,250.802 209.5,255C 209.333,256.167 209.167,257.333 209,258.5C 207.293,260.037 205.793,261.704 204.5,263.5C 203.5,263.5 202.5,263.5 201.5,263.5C 201.5,262.5 201.5,261.5 201.5,260.5C 203.973,260.912 205.306,259.912 205.5,257.5C 206.947,256.866 207.613,255.699 207.5,254C 207.722,251.725 206.722,250.559 204.5,250.5C 201.61,245.288 201.943,240.288 205.5,235.5 Z"/></g>
<g><path style="opacity:0.988" fill="#e5e5e5" d="M 294.5,238.5 C 295.472,241.132 296.805,243.465 298.5,245.5C 299.172,248.71 300.172,251.876 301.5,255C 301.836,256.03 302.503,256.53 303.5,256.5C 303.993,258.806 304.326,261.139 304.5,263.5C 296.833,263.5 289.167,263.5 281.5,263.5C 281.709,262.078 282.209,260.745 283,259.5C 288.932,260.825 294.766,260.825 300.5,259.5C 299.619,254.466 297.619,250.132 294.5,246.5C 294.371,244.784 294.038,243.117 293.5,241.5C 290.728,238.856 291.061,237.856 294.5,238.5 Z"/></g>
<g><path style="opacity:0.129" fill="#282828" d="M 335.5,255.5 C 337.497,257.513 339.164,259.846 340.5,262.5C 339.087,264.607 337.42,264.94 335.5,263.5C 336.552,263.649 337.552,263.483 338.5,263C 337.358,260.55 336.358,258.05 335.5,255.5 Z"/></g>
<g><path style="opacity:0.022" fill="#282828" d="M 381.5,251.5 C 380.629,254.112 379.963,256.779 379.5,259.5C 378.833,259.5 378.167,259.5 377.5,259.5C 377.532,256.006 378.865,253.339 381.5,251.5 Z"/></g>
<g><path style="opacity:0.046" fill="#121212" d="M 162.5,255.5 C 163.167,255.5 163.833,255.5 164.5,255.5C 163.922,258.28 163.255,260.947 162.5,263.5C 162.5,260.833 162.5,258.167 162.5,255.5 Z"/></g>
<g><path style="opacity:0.02" fill="#2b2b2b" d="M 240.5,253.5 C 244.373,256.186 247.206,259.519 249,263.5C 243.444,264.512 239.61,262.179 237.5,256.5C 239.917,258.411 242.25,260.578 244.5,263C 245.635,263.749 246.635,263.583 247.5,262.5C 244.737,259.748 242.403,256.748 240.5,253.5 Z"/></g>
<g><path style="opacity:0.994" fill="#dedede" d="M 418.5,258.5 C 419.479,259.765 420.479,261.099 421.5,262.5C 421,262.833 420.5,263.167 420,263.5C 418.285,262.396 416.785,261.062 415.5,259.5C 415.19,254.548 416.19,254.214 418.5,258.5 Z"/></g>
<g><path style="opacity:0.596" fill="#838383" d="M 345.5,260.5 C 345.5,260.167 345.5,259.833 345.5,259.5C 349.846,259.334 354.179,259.501 358.5,260C 359.684,261.145 359.684,262.312 358.5,263.5C 358.167,263.5 357.833,263.5 357.5,263.5C 357.5,262.5 357.5,261.5 357.5,260.5C 353.5,260.5 349.5,260.5 345.5,260.5 Z"/></g>
<g><path style="opacity:0.196" fill="#2d2d2d" d="M 60.5,248.5 C 60.1774,252.226 60.5108,255.893 61.5,259.5C 63.1713,257.49 63.838,255.157 63.5,252.5C 67.8982,252.706 72.2315,252.373 76.5,251.5C 76.8333,251.5 77.1667,251.5 77.5,251.5C 77.3893,252.117 77.056,252.617 76.5,253C 72.789,253.175 69.1224,253.675 65.5,254.5C 64.7565,257.443 64.2565,260.443 64,263.5C 62.6667,264.833 61.3333,264.833 60,263.5C 59.1837,258.316 59.3503,253.316 60.5,248.5 Z"/></g>
<g><path style="opacity:0.431" fill="#404040" d="M 237.5,256.5 C 234.107,258.073 232.774,260.74 233.5,264.5C 231.901,264.768 230.568,264.434 229.5,263.5C 229.833,263.5 230.167,263.5 230.5,263.5C 231.891,260.986 233.557,258.486 235.5,256C 236.437,255.308 237.103,255.475 237.5,256.5 Z"/></g>
<g><path style="opacity:0.176" fill="#3a3a3a" d="M 360.5,258.5 C 362.587,259.585 363.92,261.251 364.5,263.5C 362.413,262.415 361.08,260.749 360.5,258.5 Z"/></g>
<g><path style="opacity:0.928" fill="#e6e6e6" d="M 90.5,252.5 C 91.1667,252.5 91.5,252.833 91.5,253.5C 91.3713,255.216 91.038,256.883 90.5,258.5C 89.9569,258.56 89.6236,258.893 89.5,259.5C 94.9864,260.815 100.32,260.815 105.5,259.5C 105.5,259.167 105.5,258.833 105.5,258.5C 105.351,257.448 105.517,256.448 106,255.5C 106.934,256.858 107.768,258.192 108.5,259.5C 109.434,260.568 109.768,261.901 109.5,263.5C 101.5,263.5 93.5,263.5 85.5,263.5C 86.9076,259.687 88.5742,256.02 90.5,252.5 Z"/></g>
<g><path style="opacity:0.439" fill="#4e4e4e" d="M 205.5,257.5 C 205.306,259.912 203.973,260.912 201.5,260.5C 201.5,261.5 201.5,262.5 201.5,263.5C 202.5,263.5 203.5,263.5 204.5,263.5C 203.432,264.434 202.099,264.768 200.5,264.5C 200.5,262.833 200.5,261.167 200.5,259.5C 202.514,259.608 204.18,258.942 205.5,257.5 Z"/></g>
<g><path style="opacity:0.914" fill="#ebebeb" d="M 345.5,260.5 C 349.5,260.5 353.5,260.5 357.5,260.5C 357.5,261.5 357.5,262.5 357.5,263.5C 353.167,263.5 348.833,263.5 344.5,263.5C 344.263,262.209 344.596,261.209 345.5,260.5 Z"/></g>
<g><path style="opacity:0.102" fill="#1f1f1f" d="M 92.5,243.5 C 91.5392,246.426 90.8726,249.426 90.5,252.5C 88.5742,256.02 86.9076,259.687 85.5,263.5C 93.5,263.5 101.5,263.5 109.5,263.5C 109.768,261.901 109.434,260.568 108.5,259.5C 108.5,258.833 108.5,258.167 108.5,257.5C 110.043,258.736 111.043,260.402 111.5,262.5C 111.291,263.086 110.957,263.586 110.5,264C 101.833,264.667 93.1667,264.667 84.5,264C 84.1667,263.667 83.8333,263.333 83.5,263C 86.2207,256.323 89.2207,249.823 92.5,243.5 Z"/></g>
<g><path style="opacity:0.589" fill="#949494" d="M 90.5,258.5 C 90.8417,259.338 91.5084,259.672 92.5,259.5C 96.1667,259.5 99.8333,259.5 103.5,259.5C 104.167,259.5 104.833,259.5 105.5,259.5C 100.32,260.815 94.9864,260.815 89.5,259.5C 89.6236,258.893 89.9569,258.56 90.5,258.5 Z"/></g>
<g><path style="opacity:0.099" fill="#222222" d="M 293.5,234.5 C 292.542,234.953 291.708,235.619 291,236.5C 288.475,244.547 285.141,252.214 281,259.5C 280.235,261.066 280.402,262.399 281.5,263.5C 289.167,263.5 296.833,263.5 304.5,263.5C 304.326,261.139 303.993,258.806 303.5,256.5C 305.525,258.726 306.191,261.226 305.5,264C 296.833,264.667 288.167,264.667 279.5,264C 279.043,263.586 278.709,263.086 278.5,262.5C 282.626,253.623 286.459,244.623 290,235.5C 291.041,233.689 292.207,233.355 293.5,234.5 Z"/></g>
<g><path style="opacity:0.093" fill="#202020" d="M 345.5,259.5 C 345.5,259.833 345.5,260.167 345.5,260.5C 344.596,261.209 344.263,262.209 344.5,263.5C 348.833,263.5 353.167,263.5 357.5,263.5C 357.833,263.5 358.167,263.5 358.5,263.5C 353.684,264.65 348.684,264.816 343.5,264C 341.944,261.499 342.611,259.999 345.5,259.5 Z"/></g>
<g><path style="opacity:0.098" fill="#232323" d="M 378.5,247.5 C 376.822,252.849 375.156,258.182 373.5,263.5C 381.528,263.831 389.528,263.498 397.5,262.5C 396.199,259.573 395.199,256.573 394.5,253.5C 396.392,256.276 398.059,259.276 399.5,262.5C 399.291,263.086 398.957,263.586 398.5,264C 389.833,264.667 381.167,264.667 372.5,264C 372.043,263.586 371.709,263.086 371.5,262.5C 373.078,257.017 375.412,252.017 378.5,247.5 Z"/></g>
<g><path style="opacity:0.587" fill="#878787" d="M 390.5,254.5 C 392.043,255.736 393.043,257.402 393.5,259.5C 388.014,260.815 382.68,260.815 377.5,259.5C 378.167,259.5 378.833,259.5 379.5,259.5C 383.5,259.5 387.5,259.5 391.5,259.5C 391.371,257.784 391.038,256.117 390.5,254.5 Z"/></g>
<g><path style="opacity:0.094" fill="#222222" d="M 418.5,256.5 C 421.137,258.482 422.47,261.148 422.5,264.5C 418.187,265.513 415.854,263.846 415.5,259.5C 416.785,261.062 418.285,262.396 420,263.5C 420.5,263.167 421,262.833 421.5,262.5C 420.479,261.099 419.479,259.765 418.5,258.5C 418.5,257.833 418.5,257.167 418.5,256.5 Z"/></g>
<g><path style="opacity:1" fill="#f0f0f0" d="M 64.5,271.5 C 71.5,271.5 78.5,271.5 85.5,271.5C 85.353,289.845 85.6863,308.179 86.5,326.5C 78.8333,326.5 71.1667,326.5 63.5,326.5C 64.2262,308.176 64.5596,289.842 64.5,271.5 Z"/></g>
<g><path style="opacity:1" fill="#e0e0e0" d="M 216.5,309.5 C 216.738,311.404 217.738,312.738 219.5,313.5C 236.48,328.386 254.813,330.386 274.5,319.5C 275.906,319.027 276.573,318.027 276.5,316.5C 286.679,299.425 284.012,284.592 268.5,272C 276.188,271.169 283.855,271.335 291.5,272.5C 298.706,290.634 295.706,306.801 282.5,321C 272.674,328.042 261.674,331.208 249.5,330.5C 235.677,331.301 223.344,327.634 212.5,319.5C 212.027,318.094 211.027,317.427 209.5,317.5C 197.258,307.006 189.091,294.006 185,278.5C 189.088,276.206 193.255,274.039 197.5,272C 198.944,271.219 200.277,271.386 201.5,272.5C 203.586,286.11 208.586,298.443 216.5,309.5 Z"/></g>
<g><path style="opacity:1" fill="#f5f5f5" d="M 318.5,271.5 C 325.167,271.5 331.833,271.5 338.5,271.5C 338.279,289.878 338.946,308.212 340.5,326.5C 332.5,326.5 324.5,326.5 316.5,326.5C 317.741,308.192 318.408,289.859 318.5,271.5 Z"/></g>
<g><path style="opacity:1" fill="#f2f2f2" d="M 402.5,276.5 C 402.427,278.027 403.094,279.027 404.5,279.5C 405.833,280.167 406.833,281.167 407.5,282.5C 407.427,284.027 408.094,285.027 409.5,285.5C 410.5,285.833 411.167,286.5 411.5,287.5C 411.427,289.027 412.094,290.027 413.5,290.5C 414.5,290.833 415.167,291.5 415.5,292.5C 415.427,294.027 416.094,295.027 417.5,295.5C 418.5,295.833 419.167,296.5 419.5,297.5C 419.427,299.027 420.094,300.027 421.5,300.5C 424.295,302.751 426.628,305.418 428.5,308.5C 428.738,310.404 429.738,311.738 431.5,312.5C 436.331,317.163 441.331,321.663 446.5,326C 435.818,326.832 425.151,326.666 414.5,325.5C 401.261,307.258 387.261,289.591 372.5,272.5C 381.482,271.335 390.482,271.168 399.5,272C 400.386,273.615 401.386,275.115 402.5,276.5 Z"/></g>
<g><path style="opacity:0.776" fill="#6f6f6f" d="M 402.5,276.5 C 403.906,276.973 404.573,277.973 404.5,279.5C 403.094,279.027 402.427,278.027 402.5,276.5 Z"/></g>
<g><path style="opacity:0.671" fill="#5c5c5c" d="M 407.5,282.5 C 408.906,282.973 409.573,283.973 409.5,285.5C 408.094,285.027 407.427,284.027 407.5,282.5 Z"/></g>
<g><path style="opacity:0.702" fill="#606060" d="M 411.5,287.5 C 412.906,287.973 413.573,288.973 413.5,290.5C 412.094,290.027 411.427,289.027 411.5,287.5 Z"/></g>
<g><path style="opacity:0.733" fill="#676767" d="M 415.5,292.5 C 416.906,292.973 417.573,293.973 417.5,295.5C 416.094,295.027 415.427,294.027 415.5,292.5 Z"/></g>
<g><path style="opacity:0.761" fill="#6d6d6d" d="M 419.5,297.5 C 420.906,297.973 421.573,298.973 421.5,300.5C 420.094,300.027 419.427,299.027 419.5,297.5 Z"/></g>
<g><path style="opacity:0.761" fill="#636363" d="M 428.5,308.5 C 430.262,309.262 431.262,310.596 431.5,312.5C 429.738,311.738 428.738,310.404 428.5,308.5 Z"/></g>
<g><path style="opacity:0.722" fill="#5f5f5f" d="M 216.5,309.5 C 218.262,310.262 219.262,311.596 219.5,313.5C 217.738,312.738 216.738,311.404 216.5,309.5 Z"/></g>
<g><path style="opacity:0.714" fill="#636363" d="M 209.5,317.5 C 211.027,317.427 212.027,318.094 212.5,319.5C 210.973,319.573 209.973,318.906 209.5,317.5 Z"/></g>
<g><path style="opacity:0.659" fill="#5d5d5d" d="M 276.5,316.5 C 276.573,318.027 275.906,319.027 274.5,319.5C 274.427,317.973 275.094,316.973 276.5,316.5 Z"/></g>
<g><path style="opacity:1" fill="#f5f5f5" d="M 46.5,342.5 C 52.8333,342.5 59.1667,342.5 65.5,342.5C 66.5918,345.063 68.2585,347.23 70.5,349C 71.9007,349.41 73.234,349.91 74.5,350.5C 77.9152,355.248 82.2485,358.915 87.5,361.5C 94.9254,368.863 103.592,374.196 113.5,377.5C 116.493,379.019 119.493,380.686 122.5,382.5C 123.167,382.167 123.833,381.833 124.5,381.5C 122.988,378.651 120.655,376.984 117.5,376.5C 113.86,373.869 110.193,371.203 106.5,368.5C 98.4,360.363 90.7333,351.696 83.5,342.5C 90.8333,342.5 98.1667,342.5 105.5,342.5C 106.833,344.5 108.5,346.167 110.5,347.5C 112.763,351.103 115.43,354.436 118.5,357.5C 119.767,359.773 121.433,361.773 123.5,363.5C 126.5,365.5 129.5,367.5 132.5,369.5C 135.043,372.78 138.043,375.613 141.5,378C 143.078,379.094 144.745,379.928 146.5,380.5C 147.968,382.498 149.801,384.165 152,385.5C 157.522,389.177 163.355,392.177 169.5,394.5C 177.301,400.55 186.301,404.216 196.5,405.5C 199.084,407.472 202.084,408.472 205.5,408.5C 209.702,409.999 214.035,411.499 218.5,413C 220.81,413.497 223.143,413.663 225.5,413.5C 225.918,414.222 226.584,414.722 227.5,415C 231.688,415.176 235.688,415.676 239.5,416.5C 238.167,416.5 236.833,416.5 235.5,416.5C 222.167,416.5 208.833,416.5 195.5,416.5C 194.167,416.5 192.833,416.5 191.5,416.5C 191.389,415.883 191.056,415.383 190.5,415C 177.783,413.386 165.117,411.552 152.5,409.5C 141.462,407.079 130.796,403.745 120.5,399.5C 120.389,398.883 120.056,398.383 119.5,398C 117.302,397.627 115.135,397.127 113,396.5C 112.5,396.833 112,397.167 111.5,397.5C 112.766,398.362 114.099,399.029 115.5,399.5C 130.967,410.439 147.967,418.106 166.5,422.5C 169.269,423.972 172.269,425.139 175.5,426C 196.274,430.113 217.274,431.613 238.5,430.5C 244.743,430.151 250.743,429.151 256.5,427.5C 256.833,427.5 257.167,427.5 257.5,427.5C 262.124,427.237 266.458,426.237 270.5,424.5C 272.153,424.34 273.486,423.674 274.5,422.5C 277.854,422.253 280.854,421.253 283.5,419.5C 290.374,417.879 296.707,415.213 302.5,411.5C 305.089,411.539 307.089,410.539 308.5,408.5C 310.216,408.371 311.883,408.038 313.5,407.5C 314.873,407.657 316.207,407.49 317.5,407C 320.112,405.003 322.778,403.003 325.5,401C 326.793,400.51 328.127,400.343 329.5,400.5C 329.433,399.041 329.766,397.708 330.5,396.5C 331.338,396.158 331.672,395.492 331.5,394.5C 335.732,392.6 339.399,389.933 342.5,386.5C 343.766,385.91 345.099,385.41 346.5,385C 347.664,382.672 349.33,380.838 351.5,379.5C 355.5,377.5 358.5,374.5 360.5,370.5C 362.252,368.754 363.585,366.754 364.5,364.5C 366.144,364.19 367.144,363.19 367.5,361.5C 370.871,359.064 373.538,356.064 375.5,352.5C 378.831,349.828 381.165,346.495 382.5,342.5C 386.5,342.5 390.5,342.5 394.5,342.5C 391.15,346.539 389.15,351.206 388.5,356.5C 381.265,365.932 374.098,375.599 367,385.5C 347.091,407.765 323.591,424.931 296.5,437C 294.907,437.949 293.574,439.115 292.5,440.5C 282.648,443.475 272.648,445.809 262.5,447.5C 255.502,448.852 248.836,450.519 242.5,452.5C 239.5,452.5 236.5,452.5 233.5,452.5C 221.137,452.717 208.803,452.217 196.5,451C 186.151,448.503 175.818,446.337 165.5,444.5C 160.504,443.174 155.504,441.841 150.5,440.5C 150.167,440.5 149.833,440.5 149.5,440.5C 147.794,438.464 145.461,437.464 142.5,437.5C 140.678,435.99 138.678,434.657 136.5,433.5C 134.967,431.755 132.967,430.755 130.5,430.5C 123.463,426.44 116.463,422.44 109.5,418.5C 107.049,415.723 104.049,413.723 100.5,412.5C 99.7124,409.379 97.7124,407.712 94.5,407.5C 94.631,406.761 94.4643,406.094 94,405.5C 86.3333,399.167 79.3333,392.167 73,384.5C 66.9349,375.329 60.4349,366.663 53.5,358.5C 53.3465,356.03 52.3465,354.03 50.5,352.5C 49.6205,348.964 48.2872,345.631 46.5,342.5 Z M 110.5,373.5 C 111.289,373.783 111.956,374.283 112.5,375C 111.184,375.528 110.517,375.028 110.5,373.5 Z"/></g>
<g><path style="opacity:0.176" fill="#373737" d="M 105.5,342.5 C 108.167,343.167 109.833,344.833 110.5,347.5C 108.5,346.167 106.833,344.5 105.5,342.5 Z"/></g>
<g><path style="opacity:0.894" fill="#6d6d6d" d="M 65.5,342.5 C 69.7784,343.781 72.7784,346.448 74.5,350.5C 73.234,349.91 71.9007,349.41 70.5,349C 68.2585,347.23 66.5918,345.063 65.5,342.5 Z"/></g>
<g><path style="opacity:0.059" fill="#1b1b1b" d="M 381.5,342.5 C 381.262,344.404 380.262,345.738 378.5,346.5C 378.554,344.368 379.554,343.035 381.5,342.5 Z"/></g>
<g><path style="opacity:1" fill="#f6f6f6" d="M 414.5,342.5 C 421.833,342.5 429.167,342.5 436.5,342.5C 434.631,346.936 433.298,351.602 432.5,356.5C 429.366,358.609 427.533,361.609 427,365.5C 416.232,384.375 403.065,401.375 387.5,416.5C 380.613,422.425 373.613,428.092 366.5,433.5C 363.296,434.383 360.629,436.05 358.5,438.5C 346.294,445.435 333.628,451.602 320.5,457C 317.832,457.567 315.166,458.067 312.5,458.5C 302.191,461.066 291.858,463.232 281.5,465C 277.833,465.667 274.167,465.667 270.5,465C 271.737,464.768 272.737,464.268 273.5,463.5C 277.819,462.965 282.152,462.465 286.5,462C 289.304,460.992 291.637,459.492 293.5,457.5C 297.724,456.038 302.057,454.872 306.5,454C 311.33,451.053 316.33,448.553 321.5,446.5C 322.5,446.167 323.167,445.5 323.5,444.5C 327.284,444.111 330.284,442.444 332.5,439.5C 334.632,439.446 335.965,438.446 336.5,436.5C 336.833,436.5 337.167,436.5 337.5,436.5C 339.674,436.25 341.341,435.25 342.5,433.5C 345.833,431.5 349.167,429.5 352.5,427.5C 357.693,424.983 362.026,421.317 365.5,416.5C 372.552,409.782 378.885,402.449 384.5,394.5C 387.802,391.026 390.968,387.359 394,383.5C 397.824,378.182 400.991,372.516 403.5,366.5C 403.5,366.167 403.5,365.833 403.5,365.5C 405.245,363.967 406.245,361.967 406.5,359.5C 409.883,356.711 411.55,353.045 411.5,348.5C 413.245,346.967 414.245,344.967 414.5,342.5 Z"/></g>
<g><path style="opacity:0.137" fill="#313131" d="M 83.5,342.5 C 90.7333,351.696 98.4,360.363 106.5,368.5C 96.9958,361.162 88.6624,352.662 81.5,343C 82.0944,342.536 82.7611,342.369 83.5,342.5 Z"/></g>
<g><path style="opacity:0.122" fill="#2e2e2e" d="M 46.5,342.5 C 48.2872,345.631 49.6205,348.964 50.5,352.5C 48.9186,350.326 47.4186,347.993 46,345.5C 45.2599,344.251 45.4265,343.251 46.5,342.5 Z"/></g>
<g><path style="opacity:0.161" fill="#383838" d="M 394.5,342.5 C 395.239,342.369 395.906,342.536 396.5,343C 394.168,347.851 391.502,352.351 388.5,356.5C 389.15,351.206 391.15,346.539 394.5,342.5 Z"/></g>
<g><path style="opacity:0.149" fill="#262626" d="M 414.5,342.5 C 414.245,344.967 413.245,346.967 411.5,348.5C 411.621,345.895 412.621,343.895 414.5,342.5 Z"/></g>
<g><path style="opacity:0.016" fill="#272727" d="M 436.5,342.5 C 437.497,342.47 438.164,342.97 438.5,344C 436.377,348.253 434.377,352.42 432.5,356.5C 433.298,351.602 434.631,346.936 436.5,342.5 Z"/></g>
<g><path style="opacity:0.675" fill="#737373" d="M 381.5,342.5 C 381.833,342.5 382.167,342.5 382.5,342.5C 381.165,346.495 378.831,349.828 375.5,352.5C 375.5,351.833 375.5,351.167 375.5,350.5C 375.771,348.57 376.771,347.236 378.5,346.5C 380.262,345.738 381.262,344.404 381.5,342.5 Z"/></g>
<g><path style="opacity:0.188" fill="#292929" d="M 110.5,347.5 C 114.515,350.516 117.848,354.183 120.5,358.5C 119.833,358.167 119.167,357.833 118.5,357.5C 115.43,354.436 112.763,351.103 110.5,347.5 Z"/></g>
<g><path style="opacity:0.29" fill="#343434" d="M 74.5,350.5 C 79.4703,353.475 83.8037,357.142 87.5,361.5C 82.2485,358.915 77.9152,355.248 74.5,350.5 Z"/></g>
<g><path style="opacity:0.153" fill="#292929" d="M 50.5,352.5 C 52.3465,354.03 53.3465,356.03 53.5,358.5C 51.461,357.089 50.461,355.089 50.5,352.5 Z"/></g>
<g><path style="opacity:0.153" fill="#2b2b2b" d="M 375.5,350.5 C 375.5,351.167 375.5,351.833 375.5,352.5C 373.538,356.064 370.871,359.064 367.5,361.5C 369.435,357.293 372.102,353.627 375.5,350.5 Z"/></g>
<g><path style="opacity:0.267" fill="#323131" d="M 411.5,348.5 C 411.55,353.045 409.883,356.711 406.5,359.5C 408.321,355.844 409.987,352.177 411.5,348.5 Z"/></g>
<g><path style="opacity:0.835" fill="#878787" d="M 118.5,357.5 C 119.167,357.833 119.833,358.167 120.5,358.5C 122.19,358.856 123.19,359.856 123.5,361.5C 123.5,362.167 123.5,362.833 123.5,363.5C 121.433,361.773 119.767,359.773 118.5,357.5 Z"/></g>
<g><path style="opacity:0.082" fill="#1d1d1d" d="M 406.5,359.5 C 406.245,361.967 405.245,363.967 403.5,365.5C 403.755,363.033 404.755,361.033 406.5,359.5 Z"/></g>
<g><path style="opacity:0.039" fill="#303030" d="M 123.5,361.5 C 127.166,363.504 130.166,366.171 132.5,369.5C 129.5,367.5 126.5,365.5 123.5,363.5C 123.5,362.833 123.5,362.167 123.5,361.5 Z"/></g>
<g><path style="opacity:0.145" fill="#252525" d="M 367.5,361.5 C 367.144,363.19 366.144,364.19 364.5,364.5C 364.5,362.5 365.5,361.5 367.5,361.5 Z"/></g>
<g><path style="opacity:0.141" fill="#1f1f1f" d="M 364.5,364.5 C 363.585,366.754 362.252,368.754 360.5,370.5C 359.5,371.167 358.5,371.833 357.5,372.5C 359.146,369.19 361.48,366.523 364.5,364.5 Z"/></g>
<g><path style="opacity:0.149" fill="#3b3b3b" d="M 432.5,356.5 C 417.875,389.446 395.542,415.779 365.5,435.5C 365.833,434.833 366.167,434.167 366.5,433.5C 373.613,428.092 380.613,422.425 387.5,416.5C 403.065,401.375 416.232,384.375 427,365.5C 427.533,361.609 429.366,358.609 432.5,356.5 Z"/></g>
<g><path style="opacity:0.02" fill="#272727" d="M 87.5,361.5 C 94.4327,365.491 101.433,369.491 108.5,373.5C 108.833,373.333 109.167,373.167 109.5,373C 107.859,371.871 106.859,370.371 106.5,368.5C 110.193,371.203 113.86,373.869 117.5,376.5C 118.85,377.65 118.684,378.317 117,378.5C 115.862,378.011 114.695,377.678 113.5,377.5C 103.592,374.196 94.9254,368.863 87.5,361.5 Z M 110.5,373.5 C 110.517,375.028 111.184,375.528 112.5,375C 111.956,374.283 111.289,373.783 110.5,373.5 Z"/></g>
<g><path style="opacity:0.18" fill="#2b2a2a" d="M 403.5,366.5 C 400.991,372.516 397.824,378.182 394,383.5C 390.968,387.359 387.802,391.026 384.5,394.5C 390.368,384.737 396.701,375.403 403.5,366.5 Z"/></g>
<g><path style="opacity:0.09" fill="#292929" d="M 132.5,369.5 C 137.789,372.465 142.456,376.132 146.5,380.5C 144.745,379.928 143.078,379.094 141.5,378C 138.043,375.613 135.043,372.78 132.5,369.5 Z"/></g>
<g><path style="opacity:0.812" fill="#ababab" d="M 360.5,370.5 C 358.5,374.5 355.5,377.5 351.5,379.5C 353.5,377.167 355.5,374.833 357.5,372.5C 358.5,371.833 359.5,371.167 360.5,370.5 Z"/></g>
<g><path style="opacity:0.251" fill="#7b7b7b" d="M 117.5,376.5 C 120.655,376.984 122.988,378.651 124.5,381.5C 123.833,381.833 123.167,382.167 122.5,382.5C 119.493,380.686 116.493,379.019 113.5,377.5C 114.695,377.678 115.862,378.011 117,378.5C 118.684,378.317 118.85,377.65 117.5,376.5 Z"/></g>
<g><path style="opacity:0.145" fill="#323232" d="M 357.5,372.5 C 355.5,374.833 353.5,377.167 351.5,379.5C 349.33,380.838 347.664,382.672 346.5,385C 345.099,385.41 343.766,385.91 342.5,386.5C 342.414,385.504 342.748,384.671 343.5,384C 348.06,379.931 352.726,376.098 357.5,372.5 Z"/></g>
<g><path style="opacity:0.22" fill="#282828" d="M 53.5,358.5 C 60.4349,366.663 66.9349,375.329 73,384.5C 79.3333,392.167 86.3333,399.167 94,405.5C 94.4643,406.094 94.631,406.761 94.5,407.5C 87.9237,402.43 81.757,396.763 76,390.5C 68.2828,381.117 60.9494,371.451 54,361.5C 53.5172,360.552 53.3505,359.552 53.5,358.5 Z"/></g>
<g><path style="opacity:0.125" fill="#303030" d="M 146.5,380.5 C 154.413,384.8 162.08,389.466 169.5,394.5C 163.355,392.177 157.522,389.177 152,385.5C 149.801,384.165 147.968,382.498 146.5,380.5 Z"/></g>
<g><path style="opacity:0.243" fill="#2c2c2c" d="M 342.5,386.5 C 339.399,389.933 335.732,392.6 331.5,394.5C 334.601,391.067 338.268,388.4 342.5,386.5 Z"/></g>
<g><path style="opacity:0.473" fill="#878787" d="M 120.5,399.5 C 118.666,398.506 116.999,398.506 115.5,399.5C 114.099,399.029 112.766,398.362 111.5,397.5C 112,397.167 112.5,396.833 113,396.5C 115.135,397.127 117.302,397.627 119.5,398C 120.056,398.383 120.389,398.883 120.5,399.5 Z"/></g>
<g><path style="opacity:0.133" fill="#252525" d="M 331.5,394.5 C 331.672,395.492 331.338,396.158 330.5,396.5C 327.717,398.067 325.051,399.9 322.5,402C 320.846,402.608 319.179,403.108 317.5,403.5C 321.819,400.004 326.485,397.004 331.5,394.5 Z"/></g>
<g><path style="opacity:1" fill="#c5c5c5" d="M 330.5,396.5 C 329.766,397.708 329.433,399.041 329.5,400.5C 328.127,400.343 326.793,400.51 325.5,401C 322.778,403.003 320.112,405.003 317.5,407C 316.207,407.49 314.873,407.657 313.5,407.5C 314.833,406.167 316.167,404.833 317.5,403.5C 319.179,403.108 320.846,402.608 322.5,402C 325.051,399.9 327.717,398.067 330.5,396.5 Z"/></g>
<g><path style="opacity:0.165" fill="#3b3b3b" d="M 169.5,394.5 C 178.473,398.376 187.473,402.043 196.5,405.5C 186.301,404.216 177.301,400.55 169.5,394.5 Z"/></g>
<g><path style="opacity:0.341" fill="#313131" d="M 384.5,394.5 C 378.885,402.449 372.552,409.782 365.5,416.5C 364.391,416.557 363.391,416.89 362.5,417.5C 369.861,409.807 377.194,402.14 384.5,394.5 Z"/></g>
<g><path style="opacity:0.251" fill="#2f2f2f" d="M 196.5,405.5 C 199.854,405.747 202.854,406.747 205.5,408.5C 202.084,408.472 199.084,407.472 196.5,405.5 Z"/></g>
<g><path style="opacity:0.11" fill="#262626" d="M 317.5,403.5 C 316.167,404.833 314.833,406.167 313.5,407.5C 311.883,408.038 310.216,408.371 308.5,408.5C 311.22,406.473 314.22,404.807 317.5,403.5 Z"/></g>
<g><path style="opacity:0.11" fill="#292929" d="M 115.5,399.5 C 116.999,398.506 118.666,398.506 120.5,399.5C 130.796,403.745 141.462,407.079 152.5,409.5C 154.844,409.94 156.844,410.94 158.5,412.5C 151.468,410.859 144.468,409.026 137.5,407C 135.5,406.333 133.5,406.333 131.5,407C 143.049,412.673 154.715,417.84 166.5,422.5C 147.967,418.106 130.967,410.439 115.5,399.5 Z"/></g>
<g><path style="opacity:0.196" fill="#373737" d="M 388.5,356.5 C 366.676,396.086 334.676,424.086 292.5,440.5C 293.574,439.115 294.907,437.949 296.5,437C 323.591,424.931 347.091,407.765 367,385.5C 374.098,375.599 381.265,365.932 388.5,356.5 Z"/></g>
<g><path style="opacity:0.067" fill="#1f1f1f" d="M 94.5,407.5 C 97.7124,407.712 99.7124,409.379 100.5,412.5C 98.2274,411.233 96.2274,409.567 94.5,407.5 Z"/></g>
<g><path style="opacity:0.094" fill="#262626" d="M 308.5,408.5 C 307.089,410.539 305.089,411.539 302.5,411.5C 304.033,409.755 306.033,408.755 308.5,408.5 Z"/></g>
<g><path style="opacity:0.98" fill="#b7b7b7" d="M 152.5,409.5 C 165.117,411.552 177.783,413.386 190.5,415C 191.056,415.383 191.389,415.883 191.5,416.5C 187.143,416.414 182.81,416.08 178.5,415.5C 177.167,415.5 175.833,415.5 174.5,415.5C 174.389,414.883 174.056,414.383 173.5,414C 168.829,413.462 164.162,412.962 159.5,412.5C 159.167,412.5 158.833,412.5 158.5,412.5C 156.844,410.94 154.844,409.94 152.5,409.5 Z"/></g>
<g><path style="opacity:0.12" fill="#252525" d="M 205.5,408.5 C 215.944,410.51 226.278,412.51 236.5,414.5C 232.802,414.448 229.135,414.114 225.5,413.5C 223.143,413.663 220.81,413.497 218.5,413C 214.035,411.499 209.702,409.999 205.5,408.5 Z"/></g>
<g><path style="opacity:0.09" fill="#202020" d="M 302.5,411.5 C 296.707,415.213 290.374,417.879 283.5,419.5C 289.397,416.081 295.73,413.414 302.5,411.5 Z"/></g>
<g><path style="opacity:0.153" fill="#272727" d="M 159.5,412.5 C 164.162,412.962 168.829,413.462 173.5,414C 174.056,414.383 174.389,414.883 174.5,415.5C 169.205,415.322 164.205,414.322 159.5,412.5 Z"/></g>
<g><path style="opacity:0.294" fill="#6d6d6d" d="M 225.5,413.5 C 229.135,414.114 232.802,414.448 236.5,414.5C 237.833,414.5 239.167,414.5 240.5,414.5C 242.031,415.925 241.698,416.591 239.5,416.5C 235.688,415.676 231.688,415.176 227.5,415C 226.584,414.722 225.918,414.222 225.5,413.5 Z"/></g>
<g><path style="opacity:0.094" fill="#1b1b1b" d="M 100.5,412.5 C 104.049,413.723 107.049,415.723 109.5,418.5C 108.448,418.649 107.448,418.483 106.5,418C 104.237,416.383 102.237,414.55 100.5,412.5 Z"/></g>
<g><path style="opacity:0.207" fill="#262626" d="M 178.5,415.5 C 182.81,416.08 187.143,416.414 191.5,416.5C 192.833,416.5 194.167,416.5 195.5,416.5C 199.167,417.167 202.833,417.833 206.5,418.5C 198.153,418.281 189.82,417.781 181.5,417C 180.263,416.768 179.263,416.268 178.5,415.5 Z"/></g>
<g><path style="opacity:0.188" fill="#252525" d="M 240.5,414.5 C 241.873,414.343 243.207,414.51 244.5,415C 245.833,415.667 245.833,416.333 244.5,417C 239.566,418.16 234.566,418.66 229.5,418.5C 231.5,417.833 233.5,417.167 235.5,416.5C 236.833,416.5 238.167,416.5 239.5,416.5C 241.698,416.591 242.031,415.925 240.5,414.5 Z"/></g>
<g><path style="opacity:0.325" fill="#646464" d="M 195.5,416.5 C 208.833,416.5 222.167,416.5 235.5,416.5C 233.5,417.167 231.5,417.833 229.5,418.5C 221.833,418.5 214.167,418.5 206.5,418.5C 202.833,417.833 199.167,417.167 195.5,416.5 Z"/></g>
<g><path style="opacity:0.078" fill="#1a1a1a" d="M 362.5,417.5 C 361.833,418.833 360.833,419.833 359.5,420.5C 359.5,418.5 360.5,417.5 362.5,417.5 Z"/></g>
<g><path style="opacity:0.776" fill="#8d8d8d" d="M 365.5,416.5 C 362.026,421.317 357.693,424.983 352.5,427.5C 352.833,426.833 353.167,426.167 353.5,425.5C 353.5,423.5 354.5,422.5 356.5,422.5C 358.027,422.573 359.027,421.906 359.5,420.5C 360.833,419.833 361.833,418.833 362.5,417.5C 363.391,416.89 364.391,416.557 365.5,416.5 Z"/></g>
<g><path style="opacity:0.067" fill="#1f1f1f" d="M 283.5,419.5 C 280.854,421.253 277.854,422.253 274.5,422.5C 277.084,420.528 280.084,419.528 283.5,419.5 Z"/></g>
<g><path style="opacity:0.141" fill="#191919" d="M 359.5,420.5 C 359.027,421.906 358.027,422.573 356.5,422.5C 356.973,421.094 357.973,420.427 359.5,420.5 Z"/></g>
<g><path style="opacity:0.086" fill="#2e2e2e" d="M 166.5,422.5 C 180.376,425.319 194.376,427.485 208.5,429C 219.181,429.61 229.847,429.444 240.5,428.5C 239.833,429.167 239.167,429.833 238.5,430.5C 217.274,431.613 196.274,430.113 175.5,426C 172.269,425.139 169.269,423.972 166.5,422.5 Z"/></g>
<g><path style="opacity:0.278" fill="#2e2e2e" d="M 274.5,422.5 C 273.486,423.674 272.153,424.34 270.5,424.5C 267.833,424.833 265.167,425.167 262.5,425.5C 266.126,423.502 270.126,422.502 274.5,422.5 Z"/></g>
<g><path style="opacity:0.071" fill="#191919" d="M 259.5,425.5 C 258.833,426.167 258.167,426.833 257.5,427.5C 257.167,427.5 256.833,427.5 256.5,427.5C 252.466,427.505 248.466,427.838 244.5,428.5C 249.223,426.775 254.223,425.775 259.5,425.5 Z"/></g>
<g><path style="opacity:0.718" fill="#898989" d="M 270.5,424.5 C 266.458,426.237 262.124,427.237 257.5,427.5C 258.167,426.833 258.833,426.167 259.5,425.5C 260.5,425.5 261.5,425.5 262.5,425.5C 265.167,425.167 267.833,424.833 270.5,424.5 Z"/></g>
<g><path style="opacity:0.047" fill="#1f1f1f" d="M 109.5,418.5 C 116.463,422.44 123.463,426.44 130.5,430.5C 130.833,431.167 131.167,431.833 131.5,432.5C 123.077,429.303 115.744,424.637 109.5,418.5 Z"/></g>
<g><path style="opacity:0.404" fill="#7c7c7c" d="M 256.5,427.5 C 250.743,429.151 244.743,430.151 238.5,430.5C 239.167,429.833 239.833,429.167 240.5,428.5C 241.833,428.5 243.167,428.5 244.5,428.5C 248.466,427.838 252.466,427.505 256.5,427.5 Z"/></g>
<g><path style="opacity:0.212" fill="#252525" d="M 353.5,425.5 C 353.167,426.167 352.833,426.833 352.5,427.5C 349.167,429.5 345.833,431.5 342.5,433.5C 344.304,430.902 346.638,428.735 349.5,427C 350.745,426.209 352.078,425.709 353.5,425.5 Z"/></g>
<g><path style="opacity:0.71" fill="#989898" d="M 130.5,430.5 C 132.967,430.755 134.967,431.755 136.5,433.5C 134.883,432.962 133.216,432.629 131.5,432.5C 131.167,431.833 130.833,431.167 130.5,430.5 Z"/></g>
<g><path style="opacity:0.086" fill="#222222" d="M 131.5,432.5 C 133.216,432.629 134.883,432.962 136.5,433.5C 138.678,434.657 140.678,435.99 142.5,437.5C 138.418,436.624 134.751,434.957 131.5,432.5 Z"/></g>
<g><path style="opacity:0.067" fill="#252525" d="M 342.5,433.5 C 341.341,435.25 339.674,436.25 337.5,436.5C 338.486,434.592 340.152,433.592 342.5,433.5 Z"/></g>
<g><path style="opacity:0.612" fill="#8a8a8a" d="M 366.5,433.5 C 366.167,434.167 365.833,434.833 365.5,435.5C 363.973,435.427 362.973,436.094 362.5,437.5C 361.167,437.833 359.833,438.167 358.5,438.5C 360.629,436.05 363.296,434.383 366.5,433.5 Z"/></g>
<g><path style="opacity:0.008" fill="#141414" d="M 365.5,435.5 C 365.027,436.906 364.027,437.573 362.5,437.5C 362.973,436.094 363.973,435.427 365.5,435.5 Z"/></g>
<g><path style="opacity:0.153" fill="#222222" d="M 336.5,436.5 C 335.965,438.446 334.632,439.446 332.5,439.5C 333.262,437.738 334.596,436.738 336.5,436.5 Z"/></g>
<g><path style="opacity:0.086" fill="#272727" d="M 142.5,437.5 C 145.461,437.464 147.794,438.464 149.5,440.5C 146.759,440.293 144.426,439.293 142.5,437.5 Z"/></g>
<g><path style="opacity:0.188" fill="#303030" d="M 150.5,440.5 C 155.504,441.841 160.504,443.174 165.5,444.5C 165.833,445.167 166.167,445.833 166.5,446.5C 160.59,445.525 155.257,443.525 150.5,440.5 Z"/></g>
<g><path style="opacity:0.439" fill="#323232" d="M 332.5,439.5 C 330.284,442.444 327.284,444.111 323.5,444.5C 326.008,442.076 329.008,440.41 332.5,439.5 Z"/></g>
<g><path style="opacity:0.992" fill="#a0a0a0" d="M 165.5,444.5 C 175.818,446.337 186.151,448.503 196.5,451C 208.803,452.217 221.137,452.717 233.5,452.5C 218.952,453.828 204.286,453.494 189.5,451.5C 189.167,451.5 188.833,451.5 188.5,451.5C 183.708,449.795 178.708,448.295 173.5,447C 171.19,446.503 168.857,446.337 166.5,446.5C 166.167,445.833 165.833,445.167 165.5,444.5 Z"/></g>
<g><path style="opacity:0.122" fill="#242424" d="M 323.5,444.5 C 323.167,445.5 322.5,446.167 321.5,446.5C 320.167,446.833 318.833,447.167 317.5,447.5C 319.033,445.755 321.033,444.755 323.5,444.5 Z"/></g>
<g><path style="opacity:0.247" fill="#303030" d="M 166.5,446.5 C 168.857,446.337 171.19,446.503 173.5,447C 178.708,448.295 183.708,449.795 188.5,451.5C 180.876,450.614 173.543,448.948 166.5,446.5 Z"/></g>
<g><path style="opacity:0.082" fill="#242424" d="M 292.5,440.5 C 280.192,446.164 267.192,449.831 253.5,451.5C 256.5,450.167 259.5,448.833 262.5,447.5C 272.648,445.809 282.648,443.475 292.5,440.5 Z"/></g>
<g><path style="opacity:0.439" fill="#898989" d="M 262.5,447.5 C 259.5,448.833 256.5,450.167 253.5,451.5C 252.833,451.5 252.167,451.5 251.5,451.5C 248.482,451.704 245.482,452.037 242.5,452.5C 248.836,450.519 255.502,448.852 262.5,447.5 Z"/></g>
<g><path style="opacity:0.663" fill="#4e4e4e" d="M 321.5,446.5 C 316.33,448.553 311.33,451.053 306.5,454C 302.057,454.872 297.724,456.038 293.5,457.5C 292.167,457.833 290.833,458.167 289.5,458.5C 289.611,457.883 289.944,457.383 290.5,457C 299.755,454.364 308.755,451.197 317.5,447.5C 318.833,447.167 320.167,446.833 321.5,446.5 Z"/></g>
<g><path style="opacity:0.12" fill="#1f1f1f" d="M 189.5,451.5 C 204.286,453.494 218.952,453.828 233.5,452.5C 236.5,452.5 239.5,452.5 242.5,452.5C 245.482,452.037 248.482,451.704 251.5,451.5C 251.082,452.222 250.416,452.722 249.5,453C 230.17,454.963 210.836,454.963 191.5,453C 190.584,452.722 189.918,452.222 189.5,451.5 Z"/></g>
<g><path style="opacity:0.035" fill="#2d2d2d" d="M 362.5,437.5 C 345.403,449.876 326.403,458.209 305.5,462.5C 307.946,461.312 310.28,459.979 312.5,458.5C 315.166,458.067 317.832,457.567 320.5,457C 333.628,451.602 346.294,445.435 358.5,438.5C 359.833,438.167 361.167,437.833 362.5,437.5 Z"/></g>
<g><path style="opacity:0.302" fill="#303030" d="M 287.5,458.5 C 285.081,460.862 282.081,461.862 278.5,461.5C 281.189,459.883 284.189,458.883 287.5,458.5 Z"/></g>
<g><path style="opacity:1" fill="#b9b9b9" d="M 293.5,457.5 C 291.637,459.492 289.304,460.992 286.5,462C 282.152,462.465 277.819,462.965 273.5,463.5C 274.5,462.833 275.5,462.167 276.5,461.5C 277.167,461.5 277.833,461.5 278.5,461.5C 282.081,461.862 285.081,460.862 287.5,458.5C 288.167,458.5 288.833,458.5 289.5,458.5C 290.833,458.167 292.167,457.833 293.5,457.5 Z"/></g>
<g><path style="opacity:0.208" fill="#242424" d="M 276.5,461.5 C 275.5,462.167 274.5,462.833 273.5,463.5C 269.466,463.505 265.466,463.838 261.5,464.5C 261.918,463.778 262.584,463.278 263.5,463C 267.848,462.535 272.181,462.035 276.5,461.5 Z"/></g>
<g><path style="opacity:0.086" fill="#222222" d="M 305.5,462.5 C 301.138,464.344 296.471,465.344 291.5,465.5C 295.802,463.443 300.469,462.443 305.5,462.5 Z"/></g>
<g><path style="opacity:0.925" fill="#b2b2b2" d="M 312.5,458.5 C 310.28,459.979 307.946,461.312 305.5,462.5C 300.469,462.443 295.802,463.443 291.5,465.5C 290.5,465.5 289.5,465.5 288.5,465.5C 280.862,466.313 273.196,466.646 265.5,466.5C 261.958,466.813 258.625,466.479 255.5,465.5C 255.5,465.167 255.5,464.833 255.5,464.5C 257.5,464.5 259.5,464.5 261.5,464.5C 265.466,463.838 269.466,463.505 273.5,463.5C 272.737,464.268 271.737,464.768 270.5,465C 274.167,465.667 277.833,465.667 281.5,465C 291.858,463.232 302.191,461.066 312.5,458.5 Z"/></g>
<g><path style="opacity:0.165" fill="#232323" d="M 255.5,464.5 C 255.5,464.833 255.5,465.167 255.5,465.5C 254.022,465.238 252.689,465.571 251.5,466.5C 256.318,467.812 260.985,467.812 265.5,466.5C 273.196,466.646 280.862,466.313 288.5,465.5C 287.737,466.268 286.737,466.768 285.5,467C 272.865,468.459 260.198,468.792 247.5,468C 246.663,466.989 246.33,465.822 246.5,464.5C 249.5,464.5 252.5,464.5 255.5,464.5 Z"/></g>
<g><path style="opacity:0.435" fill="#656564" d="M 255.5,465.5 C 258.625,466.479 261.958,466.813 265.5,466.5C 260.985,467.812 256.318,467.812 251.5,466.5C 252.689,465.571 254.022,465.238 255.5,465.5 Z"/></g>
</svg>
